  0
SECTION
  2
HEADER
  9
$ACADVER
  1
AC1024
  9
$ACADMAINTVER
 70
    63
  9
$DWGCODEPAGE
  3
ANSI_1252
  9
$LASTSAVEDBY
  1
User
  9
$INSBASE
 10
0.0
 20
0.0
 30
0.0
  9
$EXTMIN
 10
95.19885821493009
 20
38.17578502098817
 30
-0.0015258207003583
  9
$EXTMAX
 10
117.303578984998
 20
80.10644476658763
 30
0.0000000349246037
  9
$LIMMIN
 10
0.0
 20
0.0
  9
$LIMMAX
 10
0.0
 20
0.0
  9
$ORTHOMODE
 70
     0
  9
$REGENMODE
 70
     1
  9
$FILLMODE
 70
     1
  9
$QTEXTMODE
 70
     0
  9
$MIRRTEXT
 70
     1
  9
$LTSCALE
 40
1.0
  9
$ATTMODE
 70
     1
  9
$TEXTSIZE
 40
0.0
  9
$TRACEWID
 40
0.05
  9
$TEXTSTYLE
  7
STANDARD
  9
$CLAYER
  8
0
  9
$CELTYPE
  6
CONTINUOUS
  9
$CECOLOR
 62
   256
  9
$CELTSCALE
 40
1.0
  9
$DISPSILH
 70
     0
  9
$DIMSCALE
 40
1.0
  9
$DIMASZ
 40
0.18
  9
$DIMEXO
 40
0.0625
  9
$DIMDLI
 40
0.38
  9
$DIMRND
 40
0.0
  9
$DIMDLE
 40
0.0
  9
$DIMEXE
 40
0.18
  9
$DIMTP
 40
0.0
  9
$DIMTM
 40
0.0
  9
$DIMTXT
 40
0.18
  9
$DIMCEN
 40
0.09
  9
$DIMTSZ
 40
0.0
  9
$DIMTOL
 70
     0
  9
$DIMLIM
 70
     0
  9
$DIMTIH
 70
     1
  9
$DIMTOH
 70
     1
  9
$DIMSE1
 70
     0
  9
$DIMSE2
 70
     0
  9
$DIMTAD
 70
     0
  9
$DIMZIN
 70
     0
  9
$DIMBLK
  1

  9
$DIMASO
 70
     1
  9
$DIMSHO
 70
     1
  9
$DIMPOST
  1

  9
$DIMAPOST
  1

  9
$DIMALT
 70
     0
  9
$DIMALTD
 70
     2
  9
$DIMALTF
 40
25.4
  9
$DIMLFAC
 40
1.0
  9
$DIMTOFL
 70
     0
  9
$DIMTVP
 40
0.0
  9
$DIMTIX
 70
     0
  9
$DIMSOXD
 70
     0
  9
$DIMSAH
 70
     0
  9
$DIMBLK1
  1

  9
$DIMBLK2
  1

  9
$DIMSTYLE
  2
STANDARD
  9
$DIMCLRD
 70
     0
  9
$DIMCLRE
 70
     0
  9
$DIMCLRT
 70
     0
  9
$DIMTFAC
 40
1.0
  9
$DIMGAP
 40
0.09
  9
$DIMJUST
 70
     0
  9
$DIMSD1
 70
     0
  9
$DIMSD2
 70
     0
  9
$DIMTOLJ
 70
     1
  9
$DIMTZIN
 70
     0
  9
$DIMALTZ
 70
     0
  9
$DIMALTTZ
 70
     0
  9
$DIMUPT
 70
     0
  9
$DIMDEC
 70
     4
  9
$DIMTDEC
 70
     4
  9
$DIMALTU
 70
     2
  9
$DIMALTTD
 70
     2
  9
$DIMTXSTY
  7
STANDARD
  9
$DIMAUNIT
 70
     0
  9
$DIMADEC
 70
     0
  9
$DIMALTRND
 40
0.0
  9
$DIMAZIN
 70
     0
  9
$DIMDSEP
 70
    46
  9
$DIMATFIT
 70
     3
  9
$DIMFRAC
 70
     0
  9
$DIMLDRBLK
  1

  9
$DIMLUNIT
 70
     2
  9
$DIMLWD
 70
    -2
  9
$DIMLWE
 70
    -2
  9
$DIMTMOVE
 70
     0
  9
$DIMFXL
 40
1.0
  9
$DIMFXLON
 70
     0
  9
$DIMJOGANG
 40
0.7853981633974483
  9
$DIMTFILL
 70
     0
  9
$DIMTFILLCLR
 70
     0
  9
$DIMARCSYM
 70
     0
  9
$DIMLTYPE
  6

  9
$DIMLTEX1
  6

  9
$DIMLTEX2
  6

  9
$DIMTXTDIRECTION
 70
     0
  9
$LUNITS
 70
     2
  9
$LUPREC
 70
     4
  9
$SKETCHINC
 40
0.1
  9
$FILLETRAD
 40
0.0
  9
$AUNITS
 70
     0
  9
$AUPREC
 70
     0
  9
$MENU
  1
acad
  9
$ELEVATION
 40
0.0
  9
$PELEVATION
 40
0.0
  9
$THICKNESS
 40
0.0
  9
$LIMCHECK
 70
     0
  9
$CHAMFERA
 40
0.0
  9
$CHAMFERB
 40
0.0
  9
$CHAMFERC
 40
0.0
  9
$CHAMFERD
 40
0.0
  9
$SKPOLY
 70
     0
  9
$TDCREATE
 40
2305824.175265914
  9
$TDUCREATE
 40
2305824.133599248
  9
$TDUPDATE
 40
2456815.435676297
  9
$TDUUPDATE
 40
2456815.394009630
  9
$TDINDWG
 40
0.0085359028
  9
$TDUSRTIMER
 40
0.0085357639
  9
$USRTIMER
 70
     1
  9
$ANGBASE
 50
0.0
  9
$ANGDIR
 70
     0
  9
$PDMODE
 70
     0
  9
$PDSIZE
 40
0.0
  9
$PLINEWID
 40
0.0
  9
$SPLFRAME
 70
     0
  9
$SPLINETYPE
 70
     6
  9
$SPLINESEGS
 70
     8
  9
$HANDSEED
  5
2E2B
  9
$SURFTAB1
 70
     6
  9
$SURFTAB2
 70
     6
  9
$SURFTYPE
 70
     6
  9
$SURFU
 70
     6
  9
$SURFV
 70
     6
  9
$UCSBASE
  2

  9
$UCSNAME
  2

  9
$UCSORG
 10
0.0
 20
0.0
 30
0.0
  9
$UCSXDIR
 10
1.0
 20
0.0
 30
0.0
  9
$UCSYDIR
 10
0.0
 20
1.0
 30
0.0
  9
$UCSORTHOREF
  2

  9
$UCSORTHOVIEW
 70
     0
  9
$UCSORGTOP
 10
0.0
 20
0.0
 30
0.0
  9
$UCSORGBOTTOM
 10
0.0
 20
0.0
 30
0.0
  9
$UCSORGLEFT
 10
0.0
 20
0.0
 30
0.0
  9
$UCSORGRIGHT
 10
0.0
 20
0.0
 30
0.0
  9
$UCSORGFRONT
 10
0.0
 20
0.0
 30
0.0
  9
$UCSORGBACK
 10
0.0
 20
0.0
 30
0.0
  9
$PUCSBASE
  2

  9
$PUCSNAME
  2

  9
$PUCSORG
 10
0.0
 20
0.0
 30
0.0
  9
$PUCSXDIR
 10
1.0
 20
0.0
 30
0.0
  9
$PUCSYDIR
 10
0.0
 20
1.0
 30
0.0
  9
$PUCSORTHOREF
  2

  9
$PUCSORTHOVIEW
 70
     0
  9
$PUCSORGTOP
 10
0.0
 20
0.0
 30
0.0
  9
$PUCSORGBOTTOM
 10
0.0
 20
0.0
 30
0.0
  9
$PUCSORGLEFT
 10
0.0
 20
0.0
 30
0.0
  9
$PUCSORGRIGHT
 10
0.0
 20
0.0
 30
0.0
  9
$PUCSORGFRONT
 10
0.0
 20
0.0
 30
0.0
  9
$PUCSORGBACK
 10
0.0
 20
0.0
 30
0.0
  9
$USERI1
 70
     0
  9
$USERI2
 70
     0
  9
$USERI3
 70
     0
  9
$USERI4
 70
     0
  9
$USERI5
 70
     0
  9
$USERR1
 40
0.0
  9
$USERR2
 40
0.0
  9
$USERR3
 40
0.0
  9
$USERR4
 40
0.0
  9
$USERR5
 40
0.0
  9
$WORLDVIEW
 70
     1
  9
$SHADEDGE
 70
     3
  9
$SHADEDIF
 70
    70
  9
$TILEMODE
 70
     1
  9
$MAXACTVP
 70
    16
  9
$PINSBASE
 10
0.0
 20
0.0
 30
0.0
  9
$PLIMCHECK
 70
     0
  9
$PEXTMIN
 10
1.000000000000000E+20
 20
1.000000000000000E+20
 30
1.000000000000000E+20
  9
$PEXTMAX
 10
-1.000000000000000E+20
 20
-1.000000000000000E+20
 30
-1.000000000000000E+20
  9
$PLIMMIN
 10
0.0
 20
0.0
  9
$PLIMMAX
 10
12.0
 20
9.0
  9
$UNITMODE
 70
     0
  9
$VISRETAIN
 70
     0
  9
$PLINEGEN
 70
     1
  9
$PSLTSCALE
 70
     0
  9
$TREEDEPTH
 70
  3020
  9
$CMLSTYLE
  2
STANDARD
  9
$CMLJUST
 70
     0
  9
$CMLSCALE
 40
1.0
  9
$PROXYGRAPHICS
 70
     1
  9
$MEASUREMENT
 70
     0
  9
$CELWEIGHT
370
    -1
  9
$ENDCAPS
280
     0
  9
$JOINSTYLE
280
     0
  9
$LWDISPLAY
290
     0
  9
$INSUNITS
 70
     0
  9
$HYPERLINKBASE
  1

  9
$STYLESHEET
  1

  9
$XEDIT
290
     1
  9
$CEPSNTYPE
380
     0
  9
$PSTYLEMODE
290
     1
  9
$FINGERPRINTGUID
  2
{2A7389EE-0730-4483-870A-36FEFFB5C508}
  9
$VERSIONGUID
  2
{EF76A0F6-8DED-4F32-AE80-79864662EFCD}
  9
$EXTNAMES
290
     1
  9
$PSVPSCALE
 40
0.0
  9
$OLESTARTUP
290
     0
  9
$SORTENTS
280
   127
  9
$INDEXCTL
280
     0
  9
$HIDETEXT
280
     0
  9
$XCLIPFRAME
280
     2
  9
$HALOGAP
280
     0
  9
$OBSCOLOR
 70
   257
  9
$OBSLTYPE
280
     0
  9
$INTERSECTIONDISPLAY
280
     0
  9
$INTERSECTIONCOLOR
 70
   257
  9
$DIMASSOC
280
     1
  9
$PROJECTNAME
  1

  9
$CAMERADISPLAY
290
     0
  9
$LENSLENGTH
 40
50.0
  9
$CAMERAHEIGHT
 40
0.0
  9
$STEPSPERSEC
 40
2.0
  9
$STEPSIZE
 40
6.0
  9
$3DDWFPREC
 40
2.0
  9
$PSOLWIDTH
 40
0.25
  9
$PSOLHEIGHT
 40
4.0
  9
$LOFTANG1
 40
1.570796326794896
  9
$LOFTANG2
 40
1.570796326794896
  9
$LOFTMAG1
 40
0.0
  9
$LOFTMAG2
 40
0.0
  9
$LOFTPARAM
 70
     7
  9
$LOFTNORMALS
280
     1
  9
$LATITUDE
 40
37.795
  9
$LONGITUDE
 40
-122.394
  9
$NORTHDIRECTION
 40
0.0
  9
$TIMEZONE
 70
 -8000
  9
$LIGHTGLYPHDISPLAY
280
     1
  9
$TILEMODELIGHTSYNCH
280
     1
  9
$CMATERIAL
347
2DBB
  9
$SOLIDHIST
280
     0
  9
$SHOWHIST
280
     1
  9
$DWFFRAME
280
     2
  9
$DGNFRAME
280
     0
  9
$REALWORLDSCALE
290
     1
  9
$INTERFERECOLOR
 62
     1
  9
$INTERFEREOBJVS
345
2DDD
  9
$INTERFEREVPVS
346
2DDA
  9
$CSHADOW
280
     0
  9
$SHADOWPLANELOCATION
 40
0.0
  0
ENDSEC
  0
SECTION
  2
CLASSES
  0
CLASS
  1
IMAGE
  2
AcDbRasterImage
  3
ISM
 90
     2175
 91
        0
280
     0
281
     1
  0
CLASS
  1
DICTIONARYVAR
  2
AcDbDictionaryVar
  3
ObjectDBX Classes
 90
        0
 91
       21
280
     0
281
     0
  0
CLASS
  1
RASTERVARIABLES
  2
AcDbRasterVariables
  3
ISM
 90
        0
 91
        0
280
     0
281
     0
  0
CLASS
  1
IMAGEDEF
  2
AcDbRasterImageDef
  3
ISM
 90
        0
 91
        0
280
     0
281
     0
  0
CLASS
  1
IMAGEDEF_REACTOR
  2
AcDbRasterImageDefReactor
  3
ISM
 90
        1
 91
        0
280
     0
281
     0
  0
CLASS
  1
IDBUFFER
  2
AcDbIdBuffer
  3
ObjectDBX Classes
 90
        0
 91
        0
280
     0
281
     0
  0
CLASS
  1
SPATIAL_FILTER
  2
AcDbSpatialFilter
  3
ObjectDBX Classes
 90
        0
 91
        0
280
     0
281
     0
  0
CLASS
  1
SORTENTSTABLE
  2
AcDbSortentsTable
  3
ObjectDBX Classes
 90
        0
 91
        0
280
     0
281
     0
  0
CLASS
  1
LAYER_INDEX
  2
AcDbLayerIndex
  3
ObjectDBX Classes
 90
        0
 91
        0
280
     0
281
     0
  0
CLASS
  1
SPATIAL_INDEX
  2
AcDbSpatialIndex
  3
ObjectDBX Classes
 90
        0
 91
        0
280
     0
281
     0
  0
CLASS
  1
OBJECT_PTR
  2
CAseDLPNTableRecord
  3
ASE-LPNTableRecord
 90
        1
 91
        0
280
     0
281
     0
  0
CLASS
  1
PLOTSETTINGS
  2
AcDbPlotSettings
  3
ObjectDBX Classes
 90
        0
 91
        0
280
     0
281
     0
  0
CLASS
  1
ACDBDICTIONARYWDFLT
  2
AcDbDictionaryWithDefault
  3
ObjectDBX Classes
 90
        0
 91
        1
280
     0
281
     0
  0
CLASS
  1
WIPEOUT
  2
AcDbWipeout
  3
WipeOut|Product Desc: Object Enabler for WipeOut entity | Company: Autodesk, Inc. | WEB Address: www.autodesk.com
 90
     2175
 91
        0
280
     0
281
     1
  0
CLASS
  1
WIPEOUTVARIABLES
  2
AcDbWipeoutVariables
  3
"WipeOut|Product Desc:     WipeOut Dbx Application|Company:          Autodesk, Inc.|WEB Address:      www.autodesk.com"
 90
        0
 91
        0
280
     0
281
     0
  0
CLASS
  1
RTEXT
  2
RText
  3
RText|AutoCAD Express Tool|expresstools@autodesk.com
 90
        0
 91
        0
280
     0
281
     1
  0
CLASS
  1
ARCALIGNEDTEXT
  2
AcDbArcAlignedText
  3
ATEXT|AutoCAD Express Tool|expresstools@autodesk.com
 90
        0
 91
        0
280
     0
281
     1
  0
CLASS
  1
MATERIAL
  2
AcDbMaterial
  3
ObjectDBX Classes
 90
     1153
 91
        3
280
     0
281
     0
  0
CLASS
  1
VISUALSTYLE
  2
AcDbVisualStyle
  3
ObjectDBX Classes
 90
     4095
 91
       24
280
     0
281
     0
  0
CLASS
  1
TABLESTYLE
  2
AcDbTableStyle
  3
ObjectDBX Classes
 90
     4095
 91
        1
280
     0
281
     0
  0
CLASS
  1
SCALE
  2
AcDbScale
  3
ObjectDBX Classes
 90
     1153
 91
       17
280
     0
281
     0
  0
CLASS
  1
MLEADERSTYLE
  2
AcDbMLeaderStyle
  3
ACDB_MLEADERSTYLE_CLASS
 90
     4095
 91
        1
280
     0
281
     0
  0
CLASS
  1
EXACXREFPANELOBJECT
  2
ExAcXREFPanelObject
  3
EXAC_ESW
 90
     1025
 91
        1
280
     0
281
     0
  0
CLASS
  1
NPOCOLLECTION
  2
AcDbImpNonPersistentObjectsCollection
  3
ObjectDBX Classes
 90
     1153
 91
        1
280
     0
281
     0
  0
CLASS
  1
CELLSTYLEMAP
  2
AcDbCellStyleMap
  3
ObjectDBX Classes
 90
     1152
 91
        1
280
     0
281
     0
  0
ENDSEC
  0
SECTION
  2
TABLES
  0
TABLE
  2
VPORT
  5
7
330
0
100
AcDbSymbolTable
 70
     1
  0
VPORT
  5
15
330
7
100
AcDbSymbolTableRecord
100
AcDbViewportTableRecord
  2
*ACTIVE
 70
     0
 10
0.0
 20
0.0
 11
1.0
 21
1.0
 12
119.2928753951945
 22
65.23235522920827
 13
0.0
 23
0.0
 14
1.0
 24
1.0
 15
0.0
 25
0.0
 16
0.0
 26
0.0
 36
1.0
 17
0.0
 27
0.0
 37
0.0
 40
36.7490115757727
 41
2.427122940430925
 42
50.0
 43
0.0
 44
0.0
 50
0.0
 51
0.0
 71
     0
 72
   100
 73
     1
 74
     1
 75
     0
 76
     0
 77
     0
 78
     0
281
     0
 65
     1
110
0.0
120
0.0
130
0.0
111
1.0
121
0.0
131
0.0
112
0.0
122
1.0
132
0.0
 79
     0
146
0.0
348
2DD9
 60
     3
 61
     5
292
     1
282
     1
141
0.0
142
0.0
 63
   250
421
  3355443
1001
ACAD_NAV_VCDISPLAY
1070
     3
  0
ENDTAB
  0
TABLE
  2
LTYPE
  5
4
330
0
100
AcDbSymbolTable
 70
     1
  0
LTYPE
  5
11
330
4
100
AcDbSymbolTableRecord
100
AcDbLinetypeTableRecord
  2
BYBLOCK
 70
     0
  3

 72
    65
 73
     0
 40
0.0
  0
LTYPE
  5
12
330
4
100
AcDbSymbolTableRecord
100
AcDbLinetypeTableRecord
  2
BYLAYER
 70
     0
  3

 72
    65
 73
     0
 40
0.0
  0
LTYPE
  5
13
330
4
100
AcDbSymbolTableRecord
100
AcDbLinetypeTableRecord
  2
CONTINUOUS
 70
     0
  3
Solid line
 72
    65
 73
     0
 40
0.0
  0
ENDTAB
  0
TABLE
  2
LAYER
  5
2
330
0
100
AcDbSymbolTable
 70
    16
  0
LAYER
  5
14
330
2
100
AcDbSymbolTableRecord
100
AcDbLayerTableRecord
  2
0
 70
     0
 62
     7
  6
CONTINUOUS
370
    -3
390
2DB9
347
2DCB
  0
LAYER
  5
24
330
2
100
AcDbSymbolTableRecord
100
AcDbLayerTableRecord
  2
TOPOVERLAY
 70
     4
 62
     2
  6
CONTINUOUS
370
    -3
390
2DB9
347
2DCB
  0
ENDTAB
  0
TABLE
  2
STYLE
  5
3
330
0
100
AcDbSymbolTable
 70
     1
  0
STYLE
  5
17
330
3
100
AcDbSymbolTableRecord
100
AcDbTextStyleTableRecord
  2
STANDARD
 70
     0
 40
0.0
 41
1.0
 50
0.0
 71
     0
 42
0.0
  3
txt
  4

  0
ENDTAB
  0
TABLE
  2
VIEW
  5
5
330
0
100
AcDbSymbolTable
 70
     0
  0
ENDTAB
  0
TABLE
  2
UCS
  5
6
330
0
100
AcDbSymbolTable
 70
     0
  0
ENDTAB
  0
TABLE
  2
APPID
  5
8
330
0
100
AcDbSymbolTable
 70
     3
  0
APPID
  5
16
330
8
100
AcDbSymbolTableRecord
100
AcDbRegAppTableRecord
  2
ACAD
 70
     0
  0
APPID
  5
2E0D
330
8
100
AcDbSymbolTableRecord
100
AcDbRegAppTableRecord
  2
DCO15
 70
     0
  0
APPID
  5
2E0F
330
8
100
AcDbSymbolTableRecord
100
AcDbRegAppTableRecord
  2
ACAD_NAV_VCDISPLAY
 70
     0
  0
ENDTAB
  0
TABLE
  2
DIMSTYLE
  5
9
330
0
100
AcDbSymbolTable
 70
     1
100
AcDbDimStyleTable
 71
     0
  0
DIMSTYLE
105
18
330
9
100
AcDbSymbolTableRecord
100
AcDbDimStyleTableRecord
  2
STANDARD
 70
     0
340
17
  0
ENDTAB
  0
TABLE
  2
BLOCK_RECORD
  5
1
330
0
100
AcDbSymbolTable
 70
     0
  0
BLOCK_RECORD
  5
A
330
1
100
AcDbSymbolTableRecord
100
AcDbBlockTableRecord
  2
*MODEL_SPACE
340
2E05
 70
     0
280
     1
281
     0
  0
BLOCK_RECORD
  5
B
330
1
100
AcDbSymbolTableRecord
100
AcDbBlockTableRecord
  2
*PAPER_SPACE
340
2E06
 70
     0
280
     1
281
     0
  0
ENDTAB
  0
ENDSEC
  0
SECTION
  2
BLOCKS
  0
BLOCK
  5
D
330
A
100
AcDbEntity
  8
0
100
AcDbBlockBegin
  2
*MODEL_SPACE
 70
     0
 10
0.0
 20
0.0
 30
0.0
  3
*MODEL_SPACE
  1

  0
ENDBLK
  5
E
330
A
100
AcDbEntity
  8
0
100
AcDbBlockEnd
  0
BLOCK
  5
F
330
B
100
AcDbEntity
 67
     1
  8
0
100
AcDbBlockBegin
  2
*PAPER_SPACE
 70
     0
 10
0.0
 20
0.0
 30
0.0
  3
*PAPER_SPACE
  1

  0
ENDBLK
  5
10
330
B
100
AcDbEntity
 67
     1
  8
0
100
AcDbBlockEnd
  0
ENDSEC
  0
SECTION
  2
ENTITIES
  0
LWPOLYLINE
  5
D64
330
A
100
AcDbEntity
  8
TOPOVERLAY
100
AcDbPolyline
 90
        2
 70
     0
 43
0.127
 10
107.904001
 20
74.295
 10
107.904001
 20
75.31100000000001
  0
LWPOLYLINE
  5
D68
330
A
100
AcDbEntity
  8
TOPOVERLAY
100
AcDbPolyline
 90
        2
 70
     1
 43
0.0635
 10
107.872251
 20
74.295
 42
1.0
 10
107.935751
 20
74.295
 42
1.0
  0
LWPOLYLINE
  5
D6C
330
A
100
AcDbEntity
  8
TOPOVERLAY
100
AcDbPolyline
 90
        2
 70
     1
 43
0.0635
 10
107.872251
 20
75.31100000000001
 42
1.0
 10
107.935751
 20
75.31100000000001
 42
1.0
  0
TEXT
  5
1773
330
A
100
AcDbEntity
  8
TOPOVERLAY
100
AcDbText
 10
114.681
 20
51.68899999999999
 30
0.0
 40
1.399999999999999
  1
RF_IN
 50
90.0
100
AcDbText
  0
TEXT
  5
1774
330
A
100
AcDbEntity
  8
TOPOVERLAY
100
AcDbText
 10
100.076
 20
62.484
 30
0.0
 40
0.762
  1
C7
 50
360.0
100
AcDbText
  0
LWPOLYLINE
  5
190D
330
A
100
AcDbEntity
  8
TOPOVERLAY
100
AcDbPolyline
 90
        2
 70
     0
 43
0.15
 10
102.154002
 20
73.651999
 10
102.604001
 20
73.651999
  0
LWPOLYLINE
  5
1911
330
A
100
AcDbEntity
  8
TOPOVERLAY
100
AcDbPolyline
 90
        2
 70
     1
 43
0.074999
 10
102.116501
 20
73.651999
 42
1.0
 10
102.191502
 20
73.651999
 42
1.0
  0
LWPOLYLINE
  5
1915
330
A
100
AcDbEntity
  8
TOPOVERLAY
100
AcDbPolyline
 90
        2
 70
     1
 43
0.074999
 10
102.5665
 20
73.651999
 42
1.0
 10
102.641502
 20
73.651999
 42
1.0
  0
LWPOLYLINE
  5
1919
330
A
100
AcDbEntity
  8
TOPOVERLAY
100
AcDbPolyline
 90
        2
 70
     0
 43
0.15
 10
102.604001
 20
73.55199899999999
 10
102.604001
 20
73.651999
  0
LWPOLYLINE
  5
191D
330
A
100
AcDbEntity
  8
TOPOVERLAY
100
AcDbPolyline
 90
        2
 70
     1
 43
0.074999
 10
102.5665
 20
73.55199899999999
 42
1.0
 10
102.641502
 20
73.55199899999999
 42
1.0
  0
LWPOLYLINE
  5
1921
330
A
100
AcDbEntity
  8
TOPOVERLAY
100
AcDbPolyline
 90
        2
 70
     1
 43
0.074999
 10
102.5665
 20
73.651999
 42
1.0
 10
102.641502
 20
73.651999
 42
1.0
  0
LWPOLYLINE
  5
1925
330
A
100
AcDbEntity
  8
TOPOVERLAY
100
AcDbPolyline
 90
        2
 70
     0
 43
0.15
 10
100.804
 20
73.651999
 10
101.253999
 20
73.651999
  0
LWPOLYLINE
  5
1929
330
A
100
AcDbEntity
  8
TOPOVERLAY
100
AcDbPolyline
 90
        2
 70
     1
 43
0.074999
 10
100.766499
 20
73.651999
 42
1.0
 10
100.8415
 20
73.651999
 42
1.0
  0
LWPOLYLINE
  5
192D
330
A
100
AcDbEntity
  8
TOPOVERLAY
100
AcDbPolyline
 90
        2
 70
     1
 43
0.074999
 10
101.216498
 20
73.651999
 42
1.0
 10
101.291499
 20
73.651999
 42
1.0
  0
LWPOLYLINE
  5
1931
330
A
100
AcDbEntity
  8
TOPOVERLAY
100
AcDbPolyline
 90
        2
 70
     0
 43
0.15
 10
100.804
 20
72.652001
 10
100.804
 20
73.651999
  0
LWPOLYLINE
  5
1935
330
A
100
AcDbEntity
  8
TOPOVERLAY
100
AcDbPolyline
 90
        2
 70
     1
 43
0.074999
 10
100.766499
 20
72.652001
 42
1.0
 10
100.8415
 20
72.652001
 42
1.0
  0
LWPOLYLINE
  5
1939
330
A
100
AcDbEntity
  8
TOPOVERLAY
100
AcDbPolyline
 90
        2
 70
     1
 43
0.074999
 10
100.766499
 20
73.651999
 42
1.0
 10
100.8415
 20
73.651999
 42
1.0
  0
LWPOLYLINE
  5
193D
330
A
100
AcDbEntity
  8
TOPOVERLAY
100
AcDbPolyline
 90
        2
 70
     0
 43
0.15
 10
100.804
 20
72.652001
 10
101.204001
 20
72.652001
  0
LWPOLYLINE
  5
1941
330
A
100
AcDbEntity
  8
TOPOVERLAY
100
AcDbPolyline
 90
        2
 70
     1
 43
0.074999
 10
100.766499
 20
72.652001
 42
1.0
 10
100.8415
 20
72.652001
 42
1.0
  0
LWPOLYLINE
  5
1945
330
A
100
AcDbEntity
  8
TOPOVERLAY
100
AcDbPolyline
 90
        2
 70
     1
 43
0.074999
 10
101.166501
 20
72.652001
 42
1.0
 10
101.241502
 20
72.652001
 42
1.0
  0
LWPOLYLINE
  5
1949
330
A
100
AcDbEntity
  8
TOPOVERLAY
100
AcDbPolyline
 90
        2
 70
     0
 43
0.15
 10
102.604001
 20
72.652001
 10
102.604001
 20
73.60199899999999
  0
LWPOLYLINE
  5
194D
330
A
100
AcDbEntity
  8
TOPOVERLAY
100
AcDbPolyline
 90
        2
 70
     1
 43
0.074999
 10
102.5665
 20
72.652001
 42
1.0
 10
102.641502
 20
72.652001
 42
1.0
  0
LWPOLYLINE
  5
1951
330
A
100
AcDbEntity
  8
TOPOVERLAY
100
AcDbPolyline
 90
        2
 70
     1
 43
0.074999
 10
102.5665
 20
73.60199899999999
 42
1.0
 10
102.641502
 20
73.60199899999999
 42
1.0
  0
LWPOLYLINE
  5
1955
330
A
100
AcDbEntity
  8
TOPOVERLAY
100
AcDbPolyline
 90
        2
 70
     0
 43
0.15
 10
102.154002
 20
72.652001
 10
102.604001
 20
72.652001
  0
LWPOLYLINE
  5
1959
330
A
100
AcDbEntity
  8
TOPOVERLAY
100
AcDbPolyline
 90
        2
 70
     1
 43
0.074999
 10
102.116501
 20
72.652001
 42
1.0
 10
102.191502
 20
72.652001
 42
1.0
  0
LWPOLYLINE
  5
195D
330
A
100
AcDbEntity
  8
TOPOVERLAY
100
AcDbPolyline
 90
        2
 70
     1
 43
0.074999
 10
102.5665
 20
72.652001
 42
1.0
 10
102.641502
 20
72.652001
 42
1.0
  0
TEXT
  5
199C
330
A
100
AcDbEntity
  8
TOPOVERLAY
100
AcDbText
 10
98.55200000000001
 20
73.152
 30
0.0
 40
0.762
  1
C3
 50
360.0
100
AcDbText
  0
LWPOLYLINE
  5
199D
330
A
100
AcDbEntity
  8
TOPOVERLAY
100
AcDbPolyline
 90
        2
 70
     0
 43
0.15
 10
115.616002
 20
64.778001
 10
116.066001
 20
64.778001
  0
LWPOLYLINE
  5
19A1
330
A
100
AcDbEntity
  8
TOPOVERLAY
100
AcDbPolyline
 90
        2
 70
     1
 43
0.074999
 10
115.578501
 20
64.778001
 42
1.0
 10
115.653502
 20
64.778001
 42
1.0
  0
LWPOLYLINE
  5
19A5
330
A
100
AcDbEntity
  8
TOPOVERLAY
100
AcDbPolyline
 90
        2
 70
     1
 43
0.074999
 10
116.0285
 20
64.778001
 42
1.0
 10
116.103502
 20
64.778001
 42
1.0
  0
LWPOLYLINE
  5
19A9
330
A
100
AcDbEntity
  8
TOPOVERLAY
100
AcDbPolyline
 90
        2
 70
     0
 43
0.15
 10
116.066001
 20
64.778001
 10
116.066001
 20
65.77799899999999
  0
LWPOLYLINE
  5
19AD
330
A
100
AcDbEntity
  8
TOPOVERLAY
100
AcDbPolyline
 90
        2
 70
     1
 43
0.074999
 10
116.0285
 20
64.778001
 42
1.0
 10
116.103502
 20
64.778001
 42
1.0
  0
LWPOLYLINE
  5
19B1
330
A
100
AcDbEntity
  8
TOPOVERLAY
100
AcDbPolyline
 90
        2
 70
     1
 43
0.074999
 10
116.0285
 20
65.77799899999999
 42
1.0
 10
116.103502
 20
65.77799899999999
 42
1.0
  0
LWPOLYLINE
  5
19B5
330
A
100
AcDbEntity
  8
TOPOVERLAY
100
AcDbPolyline
 90
        2
 70
     0
 43
0.15
 10
115.616002
 20
65.77799899999999
 10
116.066001
 20
65.77799899999999
  0
LWPOLYLINE
  5
19B9
330
A
100
AcDbEntity
  8
TOPOVERLAY
100
AcDbPolyline
 90
        2
 70
     1
 43
0.074999
 10
115.578501
 20
65.77799899999999
 42
1.0
 10
115.653502
 20
65.77799899999999
 42
1.0
  0
LWPOLYLINE
  5
19BD
330
A
100
AcDbEntity
  8
TOPOVERLAY
100
AcDbPolyline
 90
        2
 70
     1
 43
0.074999
 10
116.0285
 20
65.77799899999999
 42
1.0
 10
116.103502
 20
65.77799899999999
 42
1.0
  0
LWPOLYLINE
  5
19C1
330
A
100
AcDbEntity
  8
TOPOVERLAY
100
AcDbPolyline
 90
        2
 70
     0
 43
0.15
 10
114.266
 20
64.778001
 10
114.666001
 20
64.778001
  0
LWPOLYLINE
  5
19C5
330
A
100
AcDbEntity
  8
TOPOVERLAY
100
AcDbPolyline
 90
        2
 70
     1
 43
0.074999
 10
114.228499
 20
64.778001
 42
1.0
 10
114.3035
 20
64.778001
 42
1.0
  0
LWPOLYLINE
  5
19C9
330
A
100
AcDbEntity
  8
TOPOVERLAY
100
AcDbPolyline
 90
        2
 70
     1
 43
0.074999
 10
114.628501
 20
64.778001
 42
1.0
 10
114.703502
 20
64.778001
 42
1.0
  0
LWPOLYLINE
  5
19CD
330
A
100
AcDbEntity
  8
TOPOVERLAY
100
AcDbPolyline
 90
        2
 70
     0
 43
0.15
 10
114.266
 20
64.778001
 10
114.266
 20
65.77799899999999
  0
LWPOLYLINE
  5
19D1
330
A
100
AcDbEntity
  8
TOPOVERLAY
100
AcDbPolyline
 90
        2
 70
     1
 43
0.074999
 10
114.228499
 20
64.778001
 42
1.0
 10
114.3035
 20
64.778001
 42
1.0
  0
LWPOLYLINE
  5
19D5
330
A
100
AcDbEntity
  8
TOPOVERLAY
100
AcDbPolyline
 90
        2
 70
     1
 43
0.074999
 10
114.228499
 20
65.77799899999999
 42
1.0
 10
114.3035
 20
65.77799899999999
 42
1.0
  0
LWPOLYLINE
  5
19D9
330
A
100
AcDbEntity
  8
TOPOVERLAY
100
AcDbPolyline
 90
        2
 70
     0
 43
0.15
 10
114.266
 20
65.77799899999999
 10
114.715999
 20
65.77799899999999
  0
LWPOLYLINE
  5
19DD
330
A
100
AcDbEntity
  8
TOPOVERLAY
100
AcDbPolyline
 90
        2
 70
     1
 43
0.074999
 10
114.228499
 20
65.77799899999999
 42
1.0
 10
114.3035
 20
65.77799899999999
 42
1.0
  0
LWPOLYLINE
  5
19E1
330
A
100
AcDbEntity
  8
TOPOVERLAY
100
AcDbPolyline
 90
        2
 70
     1
 43
0.074999
 10
114.678498
 20
65.77799899999999
 42
1.0
 10
114.753499
 20
65.77799899999999
 42
1.0
  0
TEXT
  5
1A20
330
A
100
AcDbEntity
  8
TOPOVERLAY
100
AcDbText
 10
114.808
 20
63.627
 30
0.0
 40
0.762
  1
R7
 50
360.0
100
AcDbText
  0
LWPOLYLINE
  5
1A21
330
A
100
AcDbEntity
  8
TOPOVERLAY
100
AcDbPolyline
 90
        2
 70
     0
 43
0.127
 10
100.067501
 20
70.246999
 10
100.067501
 20
72.24700099999999
  0
LWPOLYLINE
  5
1A25
330
A
100
AcDbEntity
  8
TOPOVERLAY
100
AcDbPolyline
 90
        2
 70
     1
 43
0.0635
 10
100.035751
 20
70.246999
 42
1.0
 10
100.099251
 20
70.246999
 42
1.0
  0
LWPOLYLINE
  5
1A29
330
A
100
AcDbEntity
  8
TOPOVERLAY
100
AcDbPolyline
 90
        2
 70
     1
 43
0.0635
 10
100.035751
 20
72.24700099999999
 42
1.0
 10
100.099251
 20
72.24700099999999
 42
1.0
  0
LWPOLYLINE
  5
1A2D
330
A
100
AcDbEntity
  8
TOPOVERLAY
100
AcDbPolyline
 90
        2
 70
     0
 43
0.127
 10
103.467499
 20
70.246999
 10
103.467499
 20
71.64699899999999
  0
LWPOLYLINE
  5
1A31
330
A
100
AcDbEntity
  8
TOPOVERLAY
100
AcDbPolyline
 90
        2
 70
     1
 43
0.0635
 10
103.435749
 20
70.246999
 42
1.0
 10
103.499249
 20
70.246999
 42
1.0
  0
LWPOLYLINE
  5
1A35
330
A
100
AcDbEntity
  8
TOPOVERLAY
100
AcDbPolyline
 90
        2
 70
     1
 43
0.0635
 10
103.435749
 20
71.64699899999999
 42
1.0
 10
103.499249
 20
71.64699899999999
 42
1.0
  0
LWPOLYLINE
  5
1A69
330
A
100
AcDbEntity
  8
TOPOVERLAY
100
AcDbPolyline
 90
        2
 70
     1
 43
0.399999
 10
103.917501
 20
72.047001
 42
1.0
 10
103.617502
 20
72.047001
 42
1.0
  0
LWPOLYLINE
  5
1A6D
330
A
100
AcDbEntity
  8
TOPOVERLAY
100
AcDbPolyline
 90
        2
 70
     1
 43
0.2
 10
103.817501
 20
72.047001
 42
1.0
 10
104.017501
 20
72.047001
 42
1.0
  0
LWPOLYLINE
  5
1A71
330
A
100
AcDbEntity
  8
TOPOVERLAY
100
AcDbPolyline
 90
        2
 70
     1
 43
0.2
 10
103.517502
 20
72.047001
 42
1.0
 10
103.717501
 20
72.047001
 42
1.0
  0
TEXT
  5
1A8E
330
A
100
AcDbEntity
  8
TOPOVERLAY
100
AcDbText
 10
98.42500000000001
 20
71.88200000000001
 30
0.0
 40
0.762
  1
X1
 50
360.0
100
AcDbText
  0
LWPOLYLINE
  5
1A8F
330
A
100
AcDbEntity
  8
TOPOVERLAY
100
AcDbPolyline
 90
        2
 70
     0
 43
0.15
 10
102.120004
 20
67.02000100000001
 10
102.120004
 20
67.47000200000001
  0
LWPOLYLINE
  5
1A93
330
A
100
AcDbEntity
  8
TOPOVERLAY
100
AcDbPolyline
 90
        2
 70
     1
 43
0.074999
 10
102.082503
 20
67.02000100000001
 42
1.0
 10
102.157505
 20
67.02000100000001
 42
1.0
  0
LWPOLYLINE
  5
1A97
330
A
100
AcDbEntity
  8
TOPOVERLAY
100
AcDbPolyline
 90
        2
 70
     1
 43
0.074999
 10
102.082503
 20
67.47000200000001
 42
1.0
 10
102.157505
 20
67.47000200000001
 42
1.0
  0
LWPOLYLINE
  5
1A9B
330
A
100
AcDbEntity
  8
TOPOVERLAY
100
AcDbPolyline
 90
        2
 70
     0
 43
0.15
 10
102.120004
 20
67.02000100000001
 10
103.120002
 20
67.02000100000001
  0
LWPOLYLINE
  5
1A9F
330
A
100
AcDbEntity
  8
TOPOVERLAY
100
AcDbPolyline
 90
        2
 70
     1
 43
0.074999
 10
102.082503
 20
67.02000100000001
 42
1.0
 10
102.157505
 20
67.02000100000001
 42
1.0
  0
LWPOLYLINE
  5
1AA3
330
A
100
AcDbEntity
  8
TOPOVERLAY
100
AcDbPolyline
 90
        2
 70
     1
 43
0.074999
 10
103.082501
 20
67.02000100000001
 42
1.0
 10
103.157503
 20
67.02000100000001
 42
1.0
  0
LWPOLYLINE
  5
1AA7
330
A
100
AcDbEntity
  8
TOPOVERLAY
100
AcDbPolyline
 90
        2
 70
     0
 43
0.15
 10
103.120002
 20
67.02000100000001
 10
103.120002
 20
67.47000200000001
  0
LWPOLYLINE
  5
1AAB
330
A
100
AcDbEntity
  8
TOPOVERLAY
100
AcDbPolyline
 90
        2
 70
     1
 43
0.074999
 10
103.082501
 20
67.02000100000001
 42
1.0
 10
103.157503
 20
67.02000100000001
 42
1.0
  0
LWPOLYLINE
  5
1AAF
330
A
100
AcDbEntity
  8
TOPOVERLAY
100
AcDbPolyline
 90
        2
 70
     1
 43
0.074999
 10
103.082501
 20
67.47000200000001
 42
1.0
 10
103.157503
 20
67.47000200000001
 42
1.0
  0
LWPOLYLINE
  5
1AB3
330
A
100
AcDbEntity
  8
TOPOVERLAY
100
AcDbPolyline
 90
        2
 70
     0
 43
0.15
 10
102.120004
 20
68.42
 10
102.120004
 20
68.820002
  0
LWPOLYLINE
  5
1AB7
330
A
100
AcDbEntity
  8
TOPOVERLAY
100
AcDbPolyline
 90
        2
 70
     1
 43
0.074999
 10
102.082503
 20
68.42
 42
1.0
 10
102.157505
 20
68.42
 42
1.0
  0
LWPOLYLINE
  5
1ABB
330
A
100
AcDbEntity
  8
TOPOVERLAY
100
AcDbPolyline
 90
        2
 70
     1
 43
0.074999
 10
102.082503
 20
68.820002
 42
1.0
 10
102.157505
 20
68.820002
 42
1.0
  0
LWPOLYLINE
  5
1ABF
330
A
100
AcDbEntity
  8
TOPOVERLAY
100
AcDbPolyline
 90
        2
 70
     0
 43
0.15
 10
102.120004
 20
68.820002
 10
103.120002
 20
68.820002
  0
LWPOLYLINE
  5
1AC3
330
A
100
AcDbEntity
  8
TOPOVERLAY
100
AcDbPolyline
 90
        2
 70
     1
 43
0.074999
 10
102.082503
 20
68.820002
 42
1.0
 10
102.157505
 20
68.820002
 42
1.0
  0
LWPOLYLINE
  5
1AC7
330
A
100
AcDbEntity
  8
TOPOVERLAY
100
AcDbPolyline
 90
        2
 70
     1
 43
0.074999
 10
103.082501
 20
68.820002
 42
1.0
 10
103.157503
 20
68.820002
 42
1.0
  0
LWPOLYLINE
  5
1ACB
330
A
100
AcDbEntity
  8
TOPOVERLAY
100
AcDbPolyline
 90
        2
 70
     0
 43
0.15
 10
103.120002
 20
68.37
 10
103.120002
 20
68.820002
  0
LWPOLYLINE
  5
1ACF
330
A
100
AcDbEntity
  8
TOPOVERLAY
100
AcDbPolyline
 90
        2
 70
     1
 43
0.074999
 10
103.082501
 20
68.37
 42
1.0
 10
103.157503
 20
68.37
 42
1.0
  0
LWPOLYLINE
  5
1AD3
330
A
100
AcDbEntity
  8
TOPOVERLAY
100
AcDbPolyline
 90
        2
 70
     1
 43
0.074999
 10
103.082501
 20
68.820002
 42
1.0
 10
103.157503
 20
68.820002
 42
1.0
  0
TEXT
  5
1B12
330
A
100
AcDbEntity
  8
TOPOVERLAY
100
AcDbText
 10
102.108
 20
68.961
 30
0.0
 40
0.762
  1
R4
 50
360.0
100
AcDbText
  0
LWPOLYLINE
  5
1B13
330
A
100
AcDbEntity
  8
TOPOVERLAY
100
AcDbPolyline
 90
        2
 70
     0
 43
0.15
 10
107.694999
 20
60.519998
 10
107.694999
 20
60.97
  0
LWPOLYLINE
  5
1B17
330
A
100
AcDbEntity
  8
TOPOVERLAY
100
AcDbPolyline
 90
        2
 70
     1
 43
0.074999
 10
107.657499
 20
60.519998
 42
1.0
 10
107.7325
 20
60.519998
 42
1.0
  0
LWPOLYLINE
  5
1B1B
330
A
100
AcDbEntity
  8
TOPOVERLAY
100
AcDbPolyline
 90
        2
 70
     1
 43
0.074999
 10
107.657499
 20
60.97
 42
1.0
 10
107.7325
 20
60.97
 42
1.0
  0
LWPOLYLINE
  5
1B1F
330
A
100
AcDbEntity
  8
TOPOVERLAY
100
AcDbPolyline
 90
        2
 70
     0
 43
0.15
 10
107.594999
 20
60.519998
 10
107.694999
 20
60.519998
  0
LWPOLYLINE
  5
1B23
330
A
100
AcDbEntity
  8
TOPOVERLAY
100
AcDbPolyline
 90
        2
 70
     1
 43
0.074999
 10
107.557499
 20
60.519998
 42
1.0
 10
107.6325
 20
60.519998
 42
1.0
  0
LWPOLYLINE
  5
1B27
330
A
100
AcDbEntity
  8
TOPOVERLAY
100
AcDbPolyline
 90
        2
 70
     1
 43
0.074999
 10
107.657499
 20
60.519998
 42
1.0
 10
107.7325
 20
60.519998
 42
1.0
  0
LWPOLYLINE
  5
1B2B
330
A
100
AcDbEntity
  8
TOPOVERLAY
100
AcDbPolyline
 90
        2
 70
     0
 43
0.15
 10
107.694999
 20
61.86999799999999
 10
107.694999
 20
62.32
  0
LWPOLYLINE
  5
1B2F
330
A
100
AcDbEntity
  8
TOPOVERLAY
100
AcDbPolyline
 90
        2
 70
     1
 43
0.074999
 10
107.657499
 20
61.86999799999999
 42
1.0
 10
107.7325
 20
61.86999799999999
 42
1.0
  0
LWPOLYLINE
  5
1B33
330
A
100
AcDbEntity
  8
TOPOVERLAY
100
AcDbPolyline
 90
        2
 70
     1
 43
0.074999
 10
107.657499
 20
62.32
 42
1.0
 10
107.7325
 20
62.32
 42
1.0
  0
LWPOLYLINE
  5
1B37
330
A
100
AcDbEntity
  8
TOPOVERLAY
100
AcDbPolyline
 90
        2
 70
     0
 43
0.15
 10
106.695001
 20
62.32
 10
107.694999
 20
62.32
  0
LWPOLYLINE
  5
1B3B
330
A
100
AcDbEntity
  8
TOPOVERLAY
100
AcDbPolyline
 90
        2
 70
     1
 43
0.074999
 10
106.657501
 20
62.32
 42
1.0
 10
106.732502
 20
62.32
 42
1.0
  0
LWPOLYLINE
  5
1B3F
330
A
100
AcDbEntity
  8
TOPOVERLAY
100
AcDbPolyline
 90
        2
 70
     1
 43
0.074999
 10
107.657499
 20
62.32
 42
1.0
 10
107.7325
 20
62.32
 42
1.0
  0
LWPOLYLINE
  5
1B43
330
A
100
AcDbEntity
  8
TOPOVERLAY
100
AcDbPolyline
 90
        2
 70
     0
 43
0.15
 10
106.695001
 20
61.919998
 10
106.695001
 20
62.32
  0
LWPOLYLINE
  5
1B47
330
A
100
AcDbEntity
  8
TOPOVERLAY
100
AcDbPolyline
 90
        2
 70
     1
 43
0.074999
 10
106.657501
 20
61.919998
 42
1.0
 10
106.732502
 20
61.919998
 42
1.0
  0
LWPOLYLINE
  5
1B4B
330
A
100
AcDbEntity
  8
TOPOVERLAY
100
AcDbPolyline
 90
        2
 70
     1
 43
0.074999
 10
106.657501
 20
62.32
 42
1.0
 10
106.732502
 20
62.32
 42
1.0
  0
LWPOLYLINE
  5
1B4F
330
A
100
AcDbEntity
  8
TOPOVERLAY
100
AcDbPolyline
 90
        2
 70
     0
 43
0.15
 10
106.695001
 20
60.519998
 10
107.644999
 20
60.519998
  0
LWPOLYLINE
  5
1B53
330
A
100
AcDbEntity
  8
TOPOVERLAY
100
AcDbPolyline
 90
        2
 70
     1
 43
0.074999
 10
106.657501
 20
60.519998
 42
1.0
 10
106.732502
 20
60.519998
 42
1.0
  0
LWPOLYLINE
  5
1B57
330
A
100
AcDbEntity
  8
TOPOVERLAY
100
AcDbPolyline
 90
        2
 70
     1
 43
0.074999
 10
107.607499
 20
60.519998
 42
1.0
 10
107.6825
 20
60.519998
 42
1.0
  0
LWPOLYLINE
  5
1B5B
330
A
100
AcDbEntity
  8
TOPOVERLAY
100
AcDbPolyline
 90
        2
 70
     0
 43
0.15
 10
106.695001
 20
60.519998
 10
106.695001
 20
60.97
  0
LWPOLYLINE
  5
1B5F
330
A
100
AcDbEntity
  8
TOPOVERLAY
100
AcDbPolyline
 90
        2
 70
     1
 43
0.074999
 10
106.657501
 20
60.519998
 42
1.0
 10
106.732502
 20
60.519998
 42
1.0
  0
LWPOLYLINE
  5
1B63
330
A
100
AcDbEntity
  8
TOPOVERLAY
100
AcDbPolyline
 90
        2
 70
     1
 43
0.074999
 10
106.657501
 20
60.97
 42
1.0
 10
106.732502
 20
60.97
 42
1.0
  0
TEXT
  5
1BA2
330
A
100
AcDbEntity
  8
TOPOVERLAY
100
AcDbText
 10
108.839
 20
59.94399999999999
 30
0.0
 40
0.762
  1
C10
 50
90.0
100
AcDbText
  0
LWPOLYLINE
  5
1BA3
330
A
100
AcDbEntity
  8
TOPOVERLAY
100
AcDbPolyline
 90
        2
 70
     0
 43
0.15
 10
112.945001
 20
62.22
 10
112.945001
 20
62.670002
  0
LWPOLYLINE
  5
1BA7
330
A
100
AcDbEntity
  8
TOPOVERLAY
100
AcDbPolyline
 90
        2
 70
     1
 43
0.074999
 10
112.907501
 20
62.22
 42
1.0
 10
112.982502
 20
62.22
 42
1.0
  0
LWPOLYLINE
  5
1BAB
330
A
100
AcDbEntity
  8
TOPOVERLAY
100
AcDbPolyline
 90
        2
 70
     1
 43
0.074999
 10
112.907501
 20
62.670002
 42
1.0
 10
112.982502
 20
62.670002
 42
1.0
  0
LWPOLYLINE
  5
1BAF
330
A
100
AcDbEntity
  8
TOPOVERLAY
100
AcDbPolyline
 90
        2
 70
     0
 43
0.15
 10
112.945001
 20
62.22
 10
113.944999
 20
62.22
  0
LWPOLYLINE
  5
1BB3
330
A
100
AcDbEntity
  8
TOPOVERLAY
100
AcDbPolyline
 90
        2
 70
     1
 43
0.074999
 10
112.907501
 20
62.22
 42
1.0
 10
112.982502
 20
62.22
 42
1.0
  0
LWPOLYLINE
  5
1BB7
330
A
100
AcDbEntity
  8
TOPOVERLAY
100
AcDbPolyline
 90
        2
 70
     1
 43
0.074999
 10
113.907499
 20
62.22
 42
1.0
 10
113.9825
 20
62.22
 42
1.0
  0
LWPOLYLINE
  5
1BBB
330
A
100
AcDbEntity
  8
TOPOVERLAY
100
AcDbPolyline
 90
        2
 70
     0
 43
0.15
 10
113.944999
 20
62.22
 10
113.944999
 20
62.670002
  0
LWPOLYLINE
  5
1BBF
330
A
100
AcDbEntity
  8
TOPOVERLAY
100
AcDbPolyline
 90
        2
 70
     1
 43
0.074999
 10
113.907499
 20
62.22
 42
1.0
 10
113.9825
 20
62.22
 42
1.0
  0
LWPOLYLINE
  5
1BC3
330
A
100
AcDbEntity
  8
TOPOVERLAY
100
AcDbPolyline
 90
        2
 70
     1
 43
0.074999
 10
113.907499
 20
62.670002
 42
1.0
 10
113.9825
 20
62.670002
 42
1.0
  0
LWPOLYLINE
  5
1BC7
330
A
100
AcDbEntity
  8
TOPOVERLAY
100
AcDbPolyline
 90
        2
 70
     0
 43
0.15
 10
112.945001
 20
63.62
 10
112.945001
 20
64.02000100000001
  0
LWPOLYLINE
  5
1BCB
330
A
100
AcDbEntity
  8
TOPOVERLAY
100
AcDbPolyline
 90
        2
 70
     1
 43
0.074999
 10
112.907501
 20
63.62
 42
1.0
 10
112.982502
 20
63.62
 42
1.0
  0
LWPOLYLINE
  5
1BCF
330
A
100
AcDbEntity
  8
TOPOVERLAY
100
AcDbPolyline
 90
        2
 70
     1
 43
0.074999
 10
112.907501
 20
64.02000100000001
 42
1.0
 10
112.982502
 20
64.02000100000001
 42
1.0
  0
LWPOLYLINE
  5
1BD3
330
A
100
AcDbEntity
  8
TOPOVERLAY
100
AcDbPolyline
 90
        2
 70
     0
 43
0.15
 10
112.945001
 20
64.02000100000001
 10
113.944999
 20
64.02000100000001
  0
LWPOLYLINE
  5
1BD7
330
A
100
AcDbEntity
  8
TOPOVERLAY
100
AcDbPolyline
 90
        2
 70
     1
 43
0.074999
 10
112.907501
 20
64.02000100000001
 42
1.0
 10
112.982502
 20
64.02000100000001
 42
1.0
  0
LWPOLYLINE
  5
1BDB
330
A
100
AcDbEntity
  8
TOPOVERLAY
100
AcDbPolyline
 90
        2
 70
     1
 43
0.074999
 10
113.907499
 20
64.02000100000001
 42
1.0
 10
113.9825
 20
64.02000100000001
 42
1.0
  0
LWPOLYLINE
  5
1BDF
330
A
100
AcDbEntity
  8
TOPOVERLAY
100
AcDbPolyline
 90
        2
 70
     0
 43
0.15
 10
113.944999
 20
63.57
 10
113.944999
 20
64.02000100000001
  0
LWPOLYLINE
  5
1BE3
330
A
100
AcDbEntity
  8
TOPOVERLAY
100
AcDbPolyline
 90
        2
 70
     1
 43
0.074999
 10
113.907499
 20
63.57
 42
1.0
 10
113.9825
 20
63.57
 42
1.0
  0
LWPOLYLINE
  5
1BE7
330
A
100
AcDbEntity
  8
TOPOVERLAY
100
AcDbPolyline
 90
        2
 70
     1
 43
0.074999
 10
113.907499
 20
64.02000100000001
 42
1.0
 10
113.9825
 20
64.02000100000001
 42
1.0
  0
TEXT
  5
1C26
330
A
100
AcDbEntity
  8
TOPOVERLAY
100
AcDbText
 10
115.062
 20
62.103
 30
0.0
 40
0.762
  1
R9
 50
90.0
100
AcDbText
  0
LWPOLYLINE
  5
1C27
330
A
100
AcDbEntity
  8
TOPOVERLAY
100
AcDbPolyline
 90
        2
 70
     0
 43
0.15
 10
106.594999
 20
60.519998
 10
106.594999
 20
60.97
  0
LWPOLYLINE
  5
1C2B
330
A
100
AcDbEntity
  8
TOPOVERLAY
100
AcDbPolyline
 90
        2
 70
     1
 43
0.074999
 10
106.557498
 20
60.519998
 42
1.0
 10
106.632499
 20
60.519998
 42
1.0
  0
LWPOLYLINE
  5
1C2F
330
A
100
AcDbEntity
  8
TOPOVERLAY
100
AcDbPolyline
 90
        2
 70
     1
 43
0.074999
 10
106.557498
 20
60.97
 42
1.0
 10
106.632499
 20
60.97
 42
1.0
  0
LWPOLYLINE
  5
1C33
330
A
100
AcDbEntity
  8
TOPOVERLAY
100
AcDbPolyline
 90
        2
 70
     0
 43
0.15
 10
106.494999
 20
60.519998
 10
106.594999
 20
60.519998
  0
LWPOLYLINE
  5
1C37
330
A
100
AcDbEntity
  8
TOPOVERLAY
100
AcDbPolyline
 90
        2
 70
     1
 43
0.074999
 10
106.457499
 20
60.519998
 42
1.0
 10
106.5325
 20
60.519998
 42
1.0
  0
LWPOLYLINE
  5
1C3B
330
A
100
AcDbEntity
  8
TOPOVERLAY
100
AcDbPolyline
 90
        2
 70
     1
 43
0.074999
 10
106.557498
 20
60.519998
 42
1.0
 10
106.632499
 20
60.519998
 42
1.0
  0
LWPOLYLINE
  5
1C3F
330
A
100
AcDbEntity
  8
TOPOVERLAY
100
AcDbPolyline
 90
        2
 70
     0
 43
0.15
 10
106.594999
 20
61.86999799999999
 10
106.594999
 20
62.32
  0
LWPOLYLINE
  5
1C43
330
A
100
AcDbEntity
  8
TOPOVERLAY
100
AcDbPolyline
 90
        2
 70
     1
 43
0.074999
 10
106.557498
 20
61.86999799999999
 42
1.0
 10
106.632499
 20
61.86999799999999
 42
1.0
  0
LWPOLYLINE
  5
1C47
330
A
100
AcDbEntity
  8
TOPOVERLAY
100
AcDbPolyline
 90
        2
 70
     1
 43
0.074999
 10
106.557498
 20
62.32
 42
1.0
 10
106.632499
 20
62.32
 42
1.0
  0
LWPOLYLINE
  5
1C4B
330
A
100
AcDbEntity
  8
TOPOVERLAY
100
AcDbPolyline
 90
        2
 70
     0
 43
0.15
 10
105.595001
 20
62.32
 10
106.594999
 20
62.32
  0
LWPOLYLINE
  5
1C4F
330
A
100
AcDbEntity
  8
TOPOVERLAY
100
AcDbPolyline
 90
        2
 70
     1
 43
0.074999
 10
105.5575
 20
62.32
 42
1.0
 10
105.632501
 20
62.32
 42
1.0
  0
LWPOLYLINE
  5
1C53
330
A
100
AcDbEntity
  8
TOPOVERLAY
100
AcDbPolyline
 90
        2
 70
     1
 43
0.074999
 10
106.557498
 20
62.32
 42
1.0
 10
106.632499
 20
62.32
 42
1.0
  0
LWPOLYLINE
  5
1C57
330
A
100
AcDbEntity
  8
TOPOVERLAY
100
AcDbPolyline
 90
        2
 70
     0
 43
0.15
 10
105.595001
 20
61.919998
 10
105.595001
 20
62.32
  0
LWPOLYLINE
  5
1C5B
330
A
100
AcDbEntity
  8
TOPOVERLAY
100
AcDbPolyline
 90
        2
 70
     1
 43
0.074999
 10
105.5575
 20
61.919998
 42
1.0
 10
105.632501
 20
61.919998
 42
1.0
  0
LWPOLYLINE
  5
1C5F
330
A
100
AcDbEntity
  8
TOPOVERLAY
100
AcDbPolyline
 90
        2
 70
     1
 43
0.074999
 10
105.5575
 20
62.32
 42
1.0
 10
105.632501
 20
62.32
 42
1.0
  0
LWPOLYLINE
  5
1C63
330
A
100
AcDbEntity
  8
TOPOVERLAY
100
AcDbPolyline
 90
        2
 70
     0
 43
0.15
 10
105.595001
 20
60.519998
 10
106.544999
 20
60.519998
  0
LWPOLYLINE
  5
1C67
330
A
100
AcDbEntity
  8
TOPOVERLAY
100
AcDbPolyline
 90
        2
 70
     1
 43
0.074999
 10
105.5575
 20
60.519998
 42
1.0
 10
105.632501
 20
60.519998
 42
1.0
  0
LWPOLYLINE
  5
1C6B
330
A
100
AcDbEntity
  8
TOPOVERLAY
100
AcDbPolyline
 90
        2
 70
     1
 43
0.074999
 10
106.507498
 20
60.519998
 42
1.0
 10
106.5825
 20
60.519998
 42
1.0
  0
LWPOLYLINE
  5
1C6F
330
A
100
AcDbEntity
  8
TOPOVERLAY
100
AcDbPolyline
 90
        2
 70
     0
 43
0.15
 10
105.595001
 20
60.519998
 10
105.595001
 20
60.97
  0
LWPOLYLINE
  5
1C73
330
A
100
AcDbEntity
  8
TOPOVERLAY
100
AcDbPolyline
 90
        2
 70
     1
 43
0.074999
 10
105.5575
 20
60.519998
 42
1.0
 10
105.632501
 20
60.519998
 42
1.0
  0
LWPOLYLINE
  5
1C77
330
A
100
AcDbEntity
  8
TOPOVERLAY
100
AcDbPolyline
 90
        2
 70
     1
 43
0.074999
 10
105.5575
 20
60.97
 42
1.0
 10
105.632501
 20
60.97
 42
1.0
  0
TEXT
  5
1CB6
330
A
100
AcDbEntity
  8
TOPOVERLAY
100
AcDbText
 10
105.283
 20
60.579
 30
0.0
 40
0.762
  1
C9
 50
90.0
100
AcDbText
  0
LWPOLYLINE
  5
1CB7
330
A
100
AcDbEntity
  8
TOPOVERLAY
100
AcDbPolyline
 90
        2
 70
     0
 43
0.15
 10
105.845
 20
62.81999899999999
 10
105.845
 20
63.27
  0
LWPOLYLINE
  5
1CBB
330
A
100
AcDbEntity
  8
TOPOVERLAY
100
AcDbPolyline
 90
        2
 70
     1
 43
0.074999
 10
105.8075
 20
62.81999899999999
 42
1.0
 10
105.882501
 20
62.81999899999999
 42
1.0
  0
LWPOLYLINE
  5
1CBF
330
A
100
AcDbEntity
  8
TOPOVERLAY
100
AcDbPolyline
 90
        2
 70
     1
 43
0.074999
 10
105.8075
 20
63.27
 42
1.0
 10
105.882501
 20
63.27
 42
1.0
  0
LWPOLYLINE
  5
1CC3
330
A
100
AcDbEntity
  8
TOPOVERLAY
100
AcDbPolyline
 90
        2
 70
     0
 43
0.15
 10
105.745001
 20
62.81999899999999
 10
105.845
 20
62.81999899999999
  0
LWPOLYLINE
  5
1CC7
330
A
100
AcDbEntity
  8
TOPOVERLAY
100
AcDbPolyline
 90
        2
 70
     1
 43
0.074999
 10
105.7075
 20
62.81999899999999
 42
1.0
 10
105.782501
 20
62.81999899999999
 42
1.0
  0
LWPOLYLINE
  5
1CCB
330
A
100
AcDbEntity
  8
TOPOVERLAY
100
AcDbPolyline
 90
        2
 70
     1
 43
0.074999
 10
105.8075
 20
62.81999899999999
 42
1.0
 10
105.882501
 20
62.81999899999999
 42
1.0
  0
LWPOLYLINE
  5
1CCF
330
A
100
AcDbEntity
  8
TOPOVERLAY
100
AcDbPolyline
 90
        2
 70
     0
 43
0.15
 10
105.845
 20
64.169999
 10
105.845
 20
64.62
  0
LWPOLYLINE
  5
1CD3
330
A
100
AcDbEntity
  8
TOPOVERLAY
100
AcDbPolyline
 90
        2
 70
     1
 43
0.074999
 10
105.8075
 20
64.169999
 42
1.0
 10
105.882501
 20
64.169999
 42
1.0
  0
LWPOLYLINE
  5
1CD7
330
A
100
AcDbEntity
  8
TOPOVERLAY
100
AcDbPolyline
 90
        2
 70
     1
 43
0.074999
 10
105.8075
 20
64.62
 42
1.0
 10
105.882501
 20
64.62
 42
1.0
  0
LWPOLYLINE
  5
1CDB
330
A
100
AcDbEntity
  8
TOPOVERLAY
100
AcDbPolyline
 90
        2
 70
     0
 43
0.15
 10
104.845002
 20
64.62
 10
105.845
 20
64.62
  0
LWPOLYLINE
  5
1CDF
330
A
100
AcDbEntity
  8
TOPOVERLAY
100
AcDbPolyline
 90
        2
 70
     1
 43
0.074999
 10
104.807502
 20
64.62
 42
1.0
 10
104.882503
 20
64.62
 42
1.0
  0
LWPOLYLINE
  5
1CE3
330
A
100
AcDbEntity
  8
TOPOVERLAY
100
AcDbPolyline
 90
        2
 70
     1
 43
0.074999
 10
105.8075
 20
64.62
 42
1.0
 10
105.882501
 20
64.62
 42
1.0
  0
LWPOLYLINE
  5
1CE7
330
A
100
AcDbEntity
  8
TOPOVERLAY
100
AcDbPolyline
 90
        2
 70
     0
 43
0.15
 10
104.845002
 20
64.219999
 10
104.845002
 20
64.62
  0
LWPOLYLINE
  5
1CEB
330
A
100
AcDbEntity
  8
TOPOVERLAY
100
AcDbPolyline
 90
        2
 70
     1
 43
0.074999
 10
104.807502
 20
64.219999
 42
1.0
 10
104.882503
 20
64.219999
 42
1.0
  0
LWPOLYLINE
  5
1CEF
330
A
100
AcDbEntity
  8
TOPOVERLAY
100
AcDbPolyline
 90
        2
 70
     1
 43
0.074999
 10
104.807502
 20
64.62
 42
1.0
 10
104.882503
 20
64.62
 42
1.0
  0
LWPOLYLINE
  5
1CF3
330
A
100
AcDbEntity
  8
TOPOVERLAY
100
AcDbPolyline
 90
        2
 70
     0
 43
0.15
 10
104.845002
 20
62.81999899999999
 10
105.795001
 20
62.81999899999999
  0
LWPOLYLINE
  5
1CF7
330
A
100
AcDbEntity
  8
TOPOVERLAY
100
AcDbPolyline
 90
        2
 70
     1
 43
0.074999
 10
104.807502
 20
62.81999899999999
 42
1.0
 10
104.882503
 20
62.81999899999999
 42
1.0
  0
LWPOLYLINE
  5
1CFB
330
A
100
AcDbEntity
  8
TOPOVERLAY
100
AcDbPolyline
 90
        2
 70
     1
 43
0.074999
 10
105.7575
 20
62.81999899999999
 42
1.0
 10
105.832501
 20
62.81999899999999
 42
1.0
  0
LWPOLYLINE
  5
1CFF
330
A
100
AcDbEntity
  8
TOPOVERLAY
100
AcDbPolyline
 90
        2
 70
     0
 43
0.15
 10
104.845002
 20
62.81999899999999
 10
104.845002
 20
63.27
  0
LWPOLYLINE
  5
1D03
330
A
100
AcDbEntity
  8
TOPOVERLAY
100
AcDbPolyline
 90
        2
 70
     1
 43
0.074999
 10
104.807502
 20
62.81999899999999
 42
1.0
 10
104.882503
 20
62.81999899999999
 42
1.0
  0
LWPOLYLINE
  5
1D07
330
A
100
AcDbEntity
  8
TOPOVERLAY
100
AcDbPolyline
 90
        2
 70
     1
 43
0.074999
 10
104.807502
 20
63.27
 42
1.0
 10
104.882503
 20
63.27
 42
1.0
  0
TEXT
  5
1D46
330
A
100
AcDbEntity
  8
TOPOVERLAY
100
AcDbText
 10
104.14
 20
60.325
 30
0.0
 40
0.762
  1
C22
 50
90.0
100
AcDbText
  0
LWPOLYLINE
  5
1D47
330
A
100
AcDbEntity
  8
TOPOVERLAY
100
AcDbPolyline
 90
        2
 70
     0
 43
0.15
 10
113.245003
 20
70.420001
 10
113.695005
 20
70.420001
  0
LWPOLYLINE
  5
1D4B
330
A
100
AcDbEntity
  8
TOPOVERLAY
100
AcDbPolyline
 90
        2
 70
     1
 43
0.074999
 10
113.207503
 20
70.420001
 42
1.0
 10
113.282504
 20
70.420001
 42
1.0
  0
LWPOLYLINE
  5
1D4F
330
A
100
AcDbEntity
  8
TOPOVERLAY
100
AcDbPolyline
 90
        2
 70
     1
 43
0.074999
 10
113.657504
 20
70.420001
 42
1.0
 10
113.732506
 20
70.420001
 42
1.0
  0
LWPOLYLINE
  5
1D53
330
A
100
AcDbEntity
  8
TOPOVERLAY
100
AcDbPolyline
 90
        2
 70
     0
 43
0.15
 10
113.695005
 20
70.420001
 10
113.695005
 20
71.419999
  0
LWPOLYLINE
  5
1D57
330
A
100
AcDbEntity
  8
TOPOVERLAY
100
AcDbPolyline
 90
        2
 70
     1
 43
0.074999
 10
113.657504
 20
70.420001
 42
1.0
 10
113.732506
 20
70.420001
 42
1.0
  0
LWPOLYLINE
  5
1D5B
330
A
100
AcDbEntity
  8
TOPOVERLAY
100
AcDbPolyline
 90
        2
 70
     1
 43
0.074999
 10
113.657504
 20
71.419999
 42
1.0
 10
113.732506
 20
71.419999
 42
1.0
  0
LWPOLYLINE
  5
1D5F
330
A
100
AcDbEntity
  8
TOPOVERLAY
100
AcDbPolyline
 90
        2
 70
     0
 43
0.15
 10
113.245003
 20
71.419999
 10
113.695005
 20
71.419999
  0
LWPOLYLINE
  5
1D63
330
A
100
AcDbEntity
  8
TOPOVERLAY
100
AcDbPolyline
 90
        2
 70
     1
 43
0.074999
 10
113.207503
 20
71.419999
 42
1.0
 10
113.282504
 20
71.419999
 42
1.0
  0
LWPOLYLINE
  5
1D67
330
A
100
AcDbEntity
  8
TOPOVERLAY
100
AcDbPolyline
 90
        2
 70
     1
 43
0.074999
 10
113.657504
 20
71.419999
 42
1.0
 10
113.732506
 20
71.419999
 42
1.0
  0
LWPOLYLINE
  5
1D6B
330
A
100
AcDbEntity
  8
TOPOVERLAY
100
AcDbPolyline
 90
        2
 70
     0
 43
0.15
 10
111.895004
 20
70.420001
 10
112.295005
 20
70.420001
  0
LWPOLYLINE
  5
1D6F
330
A
100
AcDbEntity
  8
TOPOVERLAY
100
AcDbPolyline
 90
        2
 70
     1
 43
0.074999
 10
111.857503
 20
70.420001
 42
1.0
 10
111.932504
 20
70.420001
 42
1.0
  0
LWPOLYLINE
  5
1D73
330
A
100
AcDbEntity
  8
TOPOVERLAY
100
AcDbPolyline
 90
        2
 70
     1
 43
0.074999
 10
112.257505
 20
70.420001
 42
1.0
 10
112.332506
 20
70.420001
 42
1.0
  0
LWPOLYLINE
  5
1D77
330
A
100
AcDbEntity
  8
TOPOVERLAY
100
AcDbPolyline
 90
        2
 70
     0
 43
0.15
 10
111.895004
 20
70.420001
 10
111.895004
 20
71.419999
  0
LWPOLYLINE
  5
1D7B
330
A
100
AcDbEntity
  8
TOPOVERLAY
100
AcDbPolyline
 90
        2
 70
     1
 43
0.074999
 10
111.857503
 20
70.420001
 42
1.0
 10
111.932504
 20
70.420001
 42
1.0
  0
LWPOLYLINE
  5
1D7F
330
A
100
AcDbEntity
  8
TOPOVERLAY
100
AcDbPolyline
 90
        2
 70
     1
 43
0.074999
 10
111.857503
 20
71.419999
 42
1.0
 10
111.932504
 20
71.419999
 42
1.0
  0
LWPOLYLINE
  5
1D83
330
A
100
AcDbEntity
  8
TOPOVERLAY
100
AcDbPolyline
 90
        2
 70
     0
 43
0.15
 10
111.895004
 20
71.419999
 10
112.345005
 20
71.419999
  0
LWPOLYLINE
  5
1D87
330
A
100
AcDbEntity
  8
TOPOVERLAY
100
AcDbPolyline
 90
        2
 70
     1
 43
0.074999
 10
111.857503
 20
71.419999
 42
1.0
 10
111.932504
 20
71.419999
 42
1.0
  0
LWPOLYLINE
  5
1D8B
330
A
100
AcDbEntity
  8
TOPOVERLAY
100
AcDbPolyline
 90
        2
 70
     1
 43
0.074999
 10
112.307505
 20
71.419999
 42
1.0
 10
112.382506
 20
71.419999
 42
1.0
  0
TEXT
  5
1DCA
330
A
100
AcDbEntity
  8
TOPOVERLAY
100
AcDbText
 10
114.046
 20
70.485
 30
0.0
 40
0.762
  1
R36
 50
360.0
100
AcDbText
  0
LWPOLYLINE
  5
1DCB
330
A
100
AcDbEntity
  8
TOPOVERLAY
100
AcDbPolyline
 90
        2
 70
     0
 43
0.15
 10
113.245003
 20
71.620002
 10
113.695005
 20
71.620002
  0
LWPOLYLINE
  5
1DCF
330
A
100
AcDbEntity
  8
TOPOVERLAY
100
AcDbPolyline
 90
        2
 70
     1
 43
0.074999
 10
113.207503
 20
71.620002
 42
1.0
 10
113.282504
 20
71.620002
 42
1.0
  0
LWPOLYLINE
  5
1DD3
330
A
100
AcDbEntity
  8
TOPOVERLAY
100
AcDbPolyline
 90
        2
 70
     1
 43
0.074999
 10
113.657504
 20
71.620002
 42
1.0
 10
113.732506
 20
71.620002
 42
1.0
  0
LWPOLYLINE
  5
1DD7
330
A
100
AcDbEntity
  8
TOPOVERLAY
100
AcDbPolyline
 90
        2
 70
     0
 43
0.15
 10
113.695005
 20
71.620002
 10
113.695005
 20
72.62
  0
LWPOLYLINE
  5
1DDB
330
A
100
AcDbEntity
  8
TOPOVERLAY
100
AcDbPolyline
 90
        2
 70
     1
 43
0.074999
 10
113.657504
 20
71.620002
 42
1.0
 10
113.732506
 20
71.620002
 42
1.0
  0
LWPOLYLINE
  5
1DDF
330
A
100
AcDbEntity
  8
TOPOVERLAY
100
AcDbPolyline
 90
        2
 70
     1
 43
0.074999
 10
113.657504
 20
72.62
 42
1.0
 10
113.732506
 20
72.62
 42
1.0
  0
LWPOLYLINE
  5
1DE3
330
A
100
AcDbEntity
  8
TOPOVERLAY
100
AcDbPolyline
 90
        2
 70
     0
 43
0.15
 10
113.245003
 20
72.62
 10
113.695005
 20
72.62
  0
LWPOLYLINE
  5
1DE7
330
A
100
AcDbEntity
  8
TOPOVERLAY
100
AcDbPolyline
 90
        2
 70
     1
 43
0.074999
 10
113.207503
 20
72.62
 42
1.0
 10
113.282504
 20
72.62
 42
1.0
  0
LWPOLYLINE
  5
1DEB
330
A
100
AcDbEntity
  8
TOPOVERLAY
100
AcDbPolyline
 90
        2
 70
     1
 43
0.074999
 10
113.657504
 20
72.62
 42
1.0
 10
113.732506
 20
72.62
 42
1.0
  0
LWPOLYLINE
  5
1DEF
330
A
100
AcDbEntity
  8
TOPOVERLAY
100
AcDbPolyline
 90
        2
 70
     0
 43
0.15
 10
111.895004
 20
71.620002
 10
112.295005
 20
71.620002
  0
LWPOLYLINE
  5
1DF3
330
A
100
AcDbEntity
  8
TOPOVERLAY
100
AcDbPolyline
 90
        2
 70
     1
 43
0.074999
 10
111.857503
 20
71.620002
 42
1.0
 10
111.932504
 20
71.620002
 42
1.0
  0
LWPOLYLINE
  5
1DF7
330
A
100
AcDbEntity
  8
TOPOVERLAY
100
AcDbPolyline
 90
        2
 70
     1
 43
0.074999
 10
112.257505
 20
71.620002
 42
1.0
 10
112.332506
 20
71.620002
 42
1.0
  0
LWPOLYLINE
  5
1DFB
330
A
100
AcDbEntity
  8
TOPOVERLAY
100
AcDbPolyline
 90
        2
 70
     0
 43
0.15
 10
111.895004
 20
71.620002
 10
111.895004
 20
72.62
  0
LWPOLYLINE
  5
1DFF
330
A
100
AcDbEntity
  8
TOPOVERLAY
100
AcDbPolyline
 90
        2
 70
     1
 43
0.074999
 10
111.857503
 20
71.620002
 42
1.0
 10
111.932504
 20
71.620002
 42
1.0
  0
LWPOLYLINE
  5
1E03
330
A
100
AcDbEntity
  8
TOPOVERLAY
100
AcDbPolyline
 90
        2
 70
     1
 43
0.074999
 10
111.857503
 20
72.62
 42
1.0
 10
111.932504
 20
72.62
 42
1.0
  0
LWPOLYLINE
  5
1E07
330
A
100
AcDbEntity
  8
TOPOVERLAY
100
AcDbPolyline
 90
        2
 70
     0
 43
0.15
 10
111.895004
 20
72.62
 10
112.345005
 20
72.62
  0
LWPOLYLINE
  5
1E0B
330
A
100
AcDbEntity
  8
TOPOVERLAY
100
AcDbPolyline
 90
        2
 70
     1
 43
0.074999
 10
111.857503
 20
72.62
 42
1.0
 10
111.932504
 20
72.62
 42
1.0
  0
LWPOLYLINE
  5
1E0F
330
A
100
AcDbEntity
  8
TOPOVERLAY
100
AcDbPolyline
 90
        2
 70
     1
 43
0.074999
 10
112.307505
 20
72.62
 42
1.0
 10
112.382506
 20
72.62
 42
1.0
  0
TEXT
  5
1E4E
330
A
100
AcDbEntity
  8
TOPOVERLAY
100
AcDbText
 10
114.173
 20
71.75499999999999
 30
0.0
 40
0.762
  1
R35
 50
360.0
100
AcDbText
  0
LWPOLYLINE
  5
1E4F
330
A
100
AcDbEntity
  8
TOPOVERLAY
100
AcDbPolyline
 90
        2
 70
     0
 43
0.15
 10
106.395004
 20
74.269999
 10
106.395004
 20
74.72
  0
LWPOLYLINE
  5
1E53
330
A
100
AcDbEntity
  8
TOPOVERLAY
100
AcDbPolyline
 90
        2
 70
     1
 43
0.074999
 10
106.357504
 20
74.269999
 42
1.0
 10
106.432505
 20
74.269999
 42
1.0
  0
LWPOLYLINE
  5
1E57
330
A
100
AcDbEntity
  8
TOPOVERLAY
100
AcDbPolyline
 90
        2
 70
     1
 43
0.074999
 10
106.357504
 20
74.72
 42
1.0
 10
106.432505
 20
74.72
 42
1.0
  0
LWPOLYLINE
  5
1E5B
330
A
100
AcDbEntity
  8
TOPOVERLAY
100
AcDbPolyline
 90
        2
 70
     0
 43
0.15
 10
106.395004
 20
74.72
 10
106.495004
 20
74.72
  0
LWPOLYLINE
  5
1E5F
330
A
100
AcDbEntity
  8
TOPOVERLAY
100
AcDbPolyline
 90
        2
 70
     1
 43
0.074999
 10
106.357504
 20
74.72
 42
1.0
 10
106.432505
 20
74.72
 42
1.0
  0
LWPOLYLINE
  5
1E63
330
A
100
AcDbEntity
  8
TOPOVERLAY
100
AcDbPolyline
 90
        2
 70
     1
 43
0.074999
 10
106.457504
 20
74.72
 42
1.0
 10
106.532505
 20
74.72
 42
1.0
  0
LWPOLYLINE
  5
1E67
330
A
100
AcDbEntity
  8
TOPOVERLAY
100
AcDbPolyline
 90
        2
 70
     0
 43
0.15
 10
106.395004
 20
72.919999
 10
106.395004
 20
73.370001
  0
LWPOLYLINE
  5
1E6B
330
A
100
AcDbEntity
  8
TOPOVERLAY
100
AcDbPolyline
 90
        2
 70
     1
 43
0.074999
 10
106.357504
 20
72.919999
 42
1.0
 10
106.432505
 20
72.919999
 42
1.0
  0
LWPOLYLINE
  5
1E6F
330
A
100
AcDbEntity
  8
TOPOVERLAY
100
AcDbPolyline
 90
        2
 70
     1
 43
0.074999
 10
106.357504
 20
73.370001
 42
1.0
 10
106.432505
 20
73.370001
 42
1.0
  0
LWPOLYLINE
  5
1E73
330
A
100
AcDbEntity
  8
TOPOVERLAY
100
AcDbPolyline
 90
        2
 70
     0
 43
0.15
 10
106.395004
 20
72.919999
 10
107.395002
 20
72.919999
  0
LWPOLYLINE
  5
1E77
330
A
100
AcDbEntity
  8
TOPOVERLAY
100
AcDbPolyline
 90
        2
 70
     1
 43
0.074999
 10
106.357504
 20
72.919999
 42
1.0
 10
106.432505
 20
72.919999
 42
1.0
  0
LWPOLYLINE
  5
1E7B
330
A
100
AcDbEntity
  8
TOPOVERLAY
100
AcDbPolyline
 90
        2
 70
     1
 43
0.074999
 10
107.357502
 20
72.919999
 42
1.0
 10
107.432503
 20
72.919999
 42
1.0
  0
LWPOLYLINE
  5
1E7F
330
A
100
AcDbEntity
  8
TOPOVERLAY
100
AcDbPolyline
 90
        2
 70
     0
 43
0.15
 10
107.395002
 20
72.919999
 10
107.395002
 20
73.32000100000001
  0
LWPOLYLINE
  5
1E83
330
A
100
AcDbEntity
  8
TOPOVERLAY
100
AcDbPolyline
 90
        2
 70
     1
 43
0.074999
 10
107.357502
 20
72.919999
 42
1.0
 10
107.432503
 20
72.919999
 42
1.0
  0
LWPOLYLINE
  5
1E87
330
A
100
AcDbEntity
  8
TOPOVERLAY
100
AcDbPolyline
 90
        2
 70
     1
 43
0.074999
 10
107.357502
 20
73.32000100000001
 42
1.0
 10
107.432503
 20
73.32000100000001
 42
1.0
  0
LWPOLYLINE
  5
1E8B
330
A
100
AcDbEntity
  8
TOPOVERLAY
100
AcDbPolyline
 90
        2
 70
     0
 43
0.15
 10
106.445004
 20
74.72
 10
107.395002
 20
74.72
  0
LWPOLYLINE
  5
1E8F
330
A
100
AcDbEntity
  8
TOPOVERLAY
100
AcDbPolyline
 90
        2
 70
     1
 43
0.074999
 10
106.407504
 20
74.72
 42
1.0
 10
106.482505
 20
74.72
 42
1.0
  0
LWPOLYLINE
  5
1E93
330
A
100
AcDbEntity
  8
TOPOVERLAY
100
AcDbPolyline
 90
        2
 70
     1
 43
0.074999
 10
107.357502
 20
74.72
 42
1.0
 10
107.432503
 20
74.72
 42
1.0
  0
LWPOLYLINE
  5
1E97
330
A
100
AcDbEntity
  8
TOPOVERLAY
100
AcDbPolyline
 90
        2
 70
     0
 43
0.15
 10
107.395002
 20
74.269999
 10
107.395002
 20
74.72
  0
LWPOLYLINE
  5
1E9B
330
A
100
AcDbEntity
  8
TOPOVERLAY
100
AcDbPolyline
 90
        2
 70
     1
 43
0.074999
 10
107.357502
 20
74.269999
 42
1.0
 10
107.432503
 20
74.269999
 42
1.0
  0
LWPOLYLINE
  5
1E9F
330
A
100
AcDbEntity
  8
TOPOVERLAY
100
AcDbPolyline
 90
        2
 70
     1
 43
0.074999
 10
107.357502
 20
74.72
 42
1.0
 10
107.432503
 20
74.72
 42
1.0
  0
TEXT
  5
1EDE
330
A
100
AcDbEntity
  8
TOPOVERLAY
100
AcDbText
 10
107.188
 20
75.31100000000001
 30
0.0
 40
0.762
  1
C12
 50
90.0
100
AcDbText
  0
LWPOLYLINE
  5
1EDF
330
A
100
AcDbEntity
  8
TOPOVERLAY
100
AcDbPolyline
 90
        2
 70
     0
 43
0.15
 10
100.945
 20
65.019999
 10
100.945
 20
65.47000099999999
  0
LWPOLYLINE
  5
1EE3
330
A
100
AcDbEntity
  8
TOPOVERLAY
100
AcDbPolyline
 90
        2
 70
     1
 43
0.074999
 10
100.907499
 20
65.019999
 42
1.0
 10
100.982501
 20
65.019999
 42
1.0
  0
LWPOLYLINE
  5
1EE7
330
A
100
AcDbEntity
  8
TOPOVERLAY
100
AcDbPolyline
 90
        2
 70
     1
 43
0.074999
 10
100.907499
 20
65.47000099999999
 42
1.0
 10
100.982501
 20
65.47000099999999
 42
1.0
  0
LWPOLYLINE
  5
1EEB
330
A
100
AcDbEntity
  8
TOPOVERLAY
100
AcDbPolyline
 90
        2
 70
     0
 43
0.15
 10
100.845
 20
65.019999
 10
100.945
 20
65.019999
  0
LWPOLYLINE
  5
1EEF
330
A
100
AcDbEntity
  8
TOPOVERLAY
100
AcDbPolyline
 90
        2
 70
     1
 43
0.074999
 10
100.8075
 20
65.019999
 42
1.0
 10
100.882501
 20
65.019999
 42
1.0
  0
LWPOLYLINE
  5
1EF3
330
A
100
AcDbEntity
  8
TOPOVERLAY
100
AcDbPolyline
 90
        2
 70
     1
 43
0.074999
 10
100.907499
 20
65.019999
 42
1.0
 10
100.982501
 20
65.019999
 42
1.0
  0
LWPOLYLINE
  5
1EF7
330
A
100
AcDbEntity
  8
TOPOVERLAY
100
AcDbPolyline
 90
        2
 70
     0
 43
0.15
 10
100.945
 20
66.36999899999999
 10
100.945
 20
66.820001
  0
LWPOLYLINE
  5
1EFB
330
A
100
AcDbEntity
  8
TOPOVERLAY
100
AcDbPolyline
 90
        2
 70
     1
 43
0.074999
 10
100.907499
 20
66.36999899999999
 42
1.0
 10
100.982501
 20
66.36999899999999
 42
1.0
  0
LWPOLYLINE
  5
1EFF
330
A
100
AcDbEntity
  8
TOPOVERLAY
100
AcDbPolyline
 90
        2
 70
     1
 43
0.074999
 10
100.907499
 20
66.820001
 42
1.0
 10
100.982501
 20
66.820001
 42
1.0
  0
LWPOLYLINE
  5
1F03
330
A
100
AcDbEntity
  8
TOPOVERLAY
100
AcDbPolyline
 90
        2
 70
     0
 43
0.15
 10
99.945002
 20
66.820001
 10
100.945
 20
66.820001
  0
LWPOLYLINE
  5
1F07
330
A
100
AcDbEntity
  8
TOPOVERLAY
100
AcDbPolyline
 90
        2
 70
     1
 43
0.074999
 10
99.90750099999999
 20
66.820001
 42
1.0
 10
99.98250300000002
 20
66.820001
 42
1.0
  0
LWPOLYLINE
  5
1F0B
330
A
100
AcDbEntity
  8
TOPOVERLAY
100
AcDbPolyline
 90
        2
 70
     1
 43
0.074999
 10
100.907499
 20
66.820001
 42
1.0
 10
100.982501
 20
66.820001
 42
1.0
  0
LWPOLYLINE
  5
1F0F
330
A
100
AcDbEntity
  8
TOPOVERLAY
100
AcDbPolyline
 90
        2
 70
     0
 43
0.15
 10
99.945002
 20
66.419999
 10
99.945002
 20
66.820001
  0
LWPOLYLINE
  5
1F13
330
A
100
AcDbEntity
  8
TOPOVERLAY
100
AcDbPolyline
 90
        2
 70
     1
 43
0.074999
 10
99.90750099999999
 20
66.419999
 42
1.0
 10
99.98250300000002
 20
66.419999
 42
1.0
  0
LWPOLYLINE
  5
1F17
330
A
100
AcDbEntity
  8
TOPOVERLAY
100
AcDbPolyline
 90
        2
 70
     1
 43
0.074999
 10
99.90750099999999
 20
66.820001
 42
1.0
 10
99.98250300000002
 20
66.820001
 42
1.0
  0
LWPOLYLINE
  5
1F1B
330
A
100
AcDbEntity
  8
TOPOVERLAY
100
AcDbPolyline
 90
        2
 70
     0
 43
0.15
 10
99.945002
 20
65.019999
 10
100.895
 20
65.019999
  0
LWPOLYLINE
  5
1F1F
330
A
100
AcDbEntity
  8
TOPOVERLAY
100
AcDbPolyline
 90
        2
 70
     1
 43
0.074999
 10
99.90750099999999
 20
65.019999
 42
1.0
 10
99.98250300000002
 20
65.019999
 42
1.0
  0
LWPOLYLINE
  5
1F23
330
A
100
AcDbEntity
  8
TOPOVERLAY
100
AcDbPolyline
 90
        2
 70
     1
 43
0.074999
 10
100.8575
 20
65.019999
 42
1.0
 10
100.932501
 20
65.019999
 42
1.0
  0
LWPOLYLINE
  5
1F27
330
A
100
AcDbEntity
  8
TOPOVERLAY
100
AcDbPolyline
 90
        2
 70
     0
 43
0.15
 10
99.945002
 20
65.019999
 10
99.945002
 20
65.47000099999999
  0
LWPOLYLINE
  5
1F2B
330
A
100
AcDbEntity
  8
TOPOVERLAY
100
AcDbPolyline
 90
        2
 70
     1
 43
0.074999
 10
99.90750099999999
 20
65.019999
 42
1.0
 10
99.98250300000002
 20
65.019999
 42
1.0
  0
LWPOLYLINE
  5
1F2F
330
A
100
AcDbEntity
  8
TOPOVERLAY
100
AcDbPolyline
 90
        2
 70
     1
 43
0.074999
 10
99.90750099999999
 20
65.47000099999999
 42
1.0
 10
99.98250300000002
 20
65.47000099999999
 42
1.0
  0
TEXT
  5
1F6E
330
A
100
AcDbEntity
  8
TOPOVERLAY
100
AcDbText
 10
99.695
 20
62.99199999999999
 30
0.0
 40
0.762
  1
C13
 50
90.0
100
AcDbText
  0
LWPOLYLINE
  5
1F6F
330
A
100
AcDbEntity
  8
TOPOVERLAY
100
AcDbPolyline
 90
        2
 70
     0
 43
0.15
 10
100.044999
 20
68.72000200000001
 10
100.495001
 20
68.72000200000001
  0
LWPOLYLINE
  5
1F73
330
A
100
AcDbEntity
  8
TOPOVERLAY
100
AcDbPolyline
 90
        2
 70
     1
 43
0.074999
 10
100.007499
 20
68.72000200000001
 42
1.0
 10
100.0825
 20
68.72000200000001
 42
1.0
  0
LWPOLYLINE
  5
1F77
330
A
100
AcDbEntity
  8
TOPOVERLAY
100
AcDbPolyline
 90
        2
 70
     1
 43
0.074999
 10
100.4575
 20
68.72000200000001
 42
1.0
 10
100.532501
 20
68.72000200000001
 42
1.0
  0
LWPOLYLINE
  5
1F7B
330
A
100
AcDbEntity
  8
TOPOVERLAY
100
AcDbPolyline
 90
        2
 70
     0
 43
0.15
 10
100.044999
 20
68.72000200000001
 10
100.044999
 20
68.820002
  0
LWPOLYLINE
  5
1F7F
330
A
100
AcDbEntity
  8
TOPOVERLAY
100
AcDbPolyline
 90
        2
 70
     1
 43
0.074999
 10
100.007499
 20
68.72000200000001
 42
1.0
 10
100.0825
 20
68.72000200000001
 42
1.0
  0
LWPOLYLINE
  5
1F83
330
A
100
AcDbEntity
  8
TOPOVERLAY
100
AcDbPolyline
 90
        2
 70
     1
 43
0.074999
 10
100.007499
 20
68.820002
 42
1.0
 10
100.0825
 20
68.820002
 42
1.0
  0
LWPOLYLINE
  5
1F87
330
A
100
AcDbEntity
  8
TOPOVERLAY
100
AcDbPolyline
 90
        2
 70
     0
 43
0.15
 10
101.394999
 20
68.72000200000001
 10
101.845001
 20
68.72000200000001
  0
LWPOLYLINE
  5
1F8B
330
A
100
AcDbEntity
  8
TOPOVERLAY
100
AcDbPolyline
 90
        2
 70
     1
 43
0.074999
 10
101.357499
 20
68.72000200000001
 42
1.0
 10
101.4325
 20
68.72000200000001
 42
1.0
  0
LWPOLYLINE
  5
1F8F
330
A
100
AcDbEntity
  8
TOPOVERLAY
100
AcDbPolyline
 90
        2
 70
     1
 43
0.074999
 10
101.8075
 20
68.72000200000001
 42
1.0
 10
101.882501
 20
68.72000200000001
 42
1.0
  0
LWPOLYLINE
  5
1F93
330
A
100
AcDbEntity
  8
TOPOVERLAY
100
AcDbPolyline
 90
        2
 70
     0
 43
0.15
 10
101.845001
 20
68.72000200000001
 10
101.845001
 20
69.72
  0
LWPOLYLINE
  5
1F97
330
A
100
AcDbEntity
  8
TOPOVERLAY
100
AcDbPolyline
 90
        2
 70
     1
 43
0.074999
 10
101.8075
 20
68.72000200000001
 42
1.0
 10
101.882501
 20
68.72000200000001
 42
1.0
  0
LWPOLYLINE
  5
1F9B
330
A
100
AcDbEntity
  8
TOPOVERLAY
100
AcDbPolyline
 90
        2
 70
     1
 43
0.074999
 10
101.8075
 20
69.72
 42
1.0
 10
101.882501
 20
69.72
 42
1.0
  0
LWPOLYLINE
  5
1F9F
330
A
100
AcDbEntity
  8
TOPOVERLAY
100
AcDbPolyline
 90
        2
 70
     0
 43
0.15
 10
101.444999
 20
69.72
 10
101.845001
 20
69.72
  0
LWPOLYLINE
  5
1FA3
330
A
100
AcDbEntity
  8
TOPOVERLAY
100
AcDbPolyline
 90
        2
 70
     1
 43
0.074999
 10
101.407498
 20
69.72
 42
1.0
 10
101.4825
 20
69.72
 42
1.0
  0
LWPOLYLINE
  5
1FA7
330
A
100
AcDbEntity
  8
TOPOVERLAY
100
AcDbPolyline
 90
        2
 70
     1
 43
0.074999
 10
101.8075
 20
69.72
 42
1.0
 10
101.882501
 20
69.72
 42
1.0
  0
LWPOLYLINE
  5
1FAB
330
A
100
AcDbEntity
  8
TOPOVERLAY
100
AcDbPolyline
 90
        2
 70
     0
 43
0.15
 10
100.044999
 20
68.77000200000001
 10
100.044999
 20
69.72
  0
LWPOLYLINE
  5
1FAF
330
A
100
AcDbEntity
  8
TOPOVERLAY
100
AcDbPolyline
 90
        2
 70
     1
 43
0.074999
 10
100.007499
 20
68.77000200000001
 42
1.0
 10
100.0825
 20
68.77000200000001
 42
1.0
  0
LWPOLYLINE
  5
1FB3
330
A
100
AcDbEntity
  8
TOPOVERLAY
100
AcDbPolyline
 90
        2
 70
     1
 43
0.074999
 10
100.007499
 20
69.72
 42
1.0
 10
100.0825
 20
69.72
 42
1.0
  0
LWPOLYLINE
  5
1FB7
330
A
100
AcDbEntity
  8
TOPOVERLAY
100
AcDbPolyline
 90
        2
 70
     0
 43
0.15
 10
100.044999
 20
69.72
 10
100.495001
 20
69.72
  0
LWPOLYLINE
  5
1FBB
330
A
100
AcDbEntity
  8
TOPOVERLAY
100
AcDbPolyline
 90
        2
 70
     1
 43
0.074999
 10
100.007499
 20
69.72
 42
1.0
 10
100.0825
 20
69.72
 42
1.0
  0
LWPOLYLINE
  5
1FBF
330
A
100
AcDbEntity
  8
TOPOVERLAY
100
AcDbPolyline
 90
        2
 70
     1
 43
0.074999
 10
100.4575
 20
69.72
 42
1.0
 10
100.532501
 20
69.72
 42
1.0
  0
TEXT
  5
1FFE
330
A
100
AcDbEntity
  8
TOPOVERLAY
100
AcDbText
 10
97.79000000000001
 20
68.32600000000001
 30
0.0
 40
0.762
  1
C15
 50
360.0
100
AcDbText
  0
LWPOLYLINE
  5
1FFF
330
A
100
AcDbEntity
  8
TOPOVERLAY
100
AcDbPolyline
 90
        2
 70
     0
 43
0.15
 10
108.189001
 20
74.490999
 10
108.189001
 20
74.941001
  0
LWPOLYLINE
  5
2003
330
A
100
AcDbEntity
  8
TOPOVERLAY
100
AcDbPolyline
 90
        2
 70
     1
 43
0.074999
 10
108.151501
 20
74.490999
 42
1.0
 10
108.226502
 20
74.490999
 42
1.0
  0
LWPOLYLINE
  5
2007
330
A
100
AcDbEntity
  8
TOPOVERLAY
100
AcDbPolyline
 90
        2
 70
     1
 43
0.074999
 10
108.151501
 20
74.941001
 42
1.0
 10
108.226502
 20
74.941001
 42
1.0
  0
LWPOLYLINE
  5
200B
330
A
100
AcDbEntity
  8
TOPOVERLAY
100
AcDbPolyline
 90
        2
 70
     0
 43
0.15
 10
108.189001
 20
74.941001
 10
108.289001
 20
74.941001
  0
LWPOLYLINE
  5
200F
330
A
100
AcDbEntity
  8
TOPOVERLAY
100
AcDbPolyline
 90
        2
 70
     1
 43
0.074999
 10
108.151501
 20
74.941001
 42
1.0
 10
108.226502
 20
74.941001
 42
1.0
  0
LWPOLYLINE
  5
2013
330
A
100
AcDbEntity
  8
TOPOVERLAY
100
AcDbPolyline
 90
        2
 70
     1
 43
0.074999
 10
108.251501
 20
74.941001
 42
1.0
 10
108.326502
 20
74.941001
 42
1.0
  0
LWPOLYLINE
  5
2017
330
A
100
AcDbEntity
  8
TOPOVERLAY
100
AcDbPolyline
 90
        2
 70
     0
 43
0.15
 10
108.189001
 20
73.14099899999999
 10
108.189001
 20
73.591001
  0
LWPOLYLINE
  5
201B
330
A
100
AcDbEntity
  8
TOPOVERLAY
100
AcDbPolyline
 90
        2
 70
     1
 43
0.074999
 10
108.151501
 20
73.14099899999999
 42
1.0
 10
108.226502
 20
73.14099899999999
 42
1.0
  0
LWPOLYLINE
  5
201F
330
A
100
AcDbEntity
  8
TOPOVERLAY
100
AcDbPolyline
 90
        2
 70
     1
 43
0.074999
 10
108.151501
 20
73.591001
 42
1.0
 10
108.226502
 20
73.591001
 42
1.0
  0
LWPOLYLINE
  5
2023
330
A
100
AcDbEntity
  8
TOPOVERLAY
100
AcDbPolyline
 90
        2
 70
     0
 43
0.15
 10
108.189001
 20
73.14099899999999
 10
109.188999
 20
73.14099899999999
  0
LWPOLYLINE
  5
2027
330
A
100
AcDbEntity
  8
TOPOVERLAY
100
AcDbPolyline
 90
        2
 70
     1
 43
0.074999
 10
108.151501
 20
73.14099899999999
 42
1.0
 10
108.226502
 20
73.14099899999999
 42
1.0
  0
LWPOLYLINE
  5
202B
330
A
100
AcDbEntity
  8
TOPOVERLAY
100
AcDbPolyline
 90
        2
 70
     1
 43
0.074999
 10
109.151499
 20
73.14099899999999
 42
1.0
 10
109.2265
 20
73.14099899999999
 42
1.0
  0
LWPOLYLINE
  5
202F
330
A
100
AcDbEntity
  8
TOPOVERLAY
100
AcDbPolyline
 90
        2
 70
     0
 43
0.15
 10
109.188999
 20
73.14099899999999
 10
109.188999
 20
73.541001
  0
LWPOLYLINE
  5
2033
330
A
100
AcDbEntity
  8
TOPOVERLAY
100
AcDbPolyline
 90
        2
 70
     1
 43
0.074999
 10
109.151499
 20
73.14099899999999
 42
1.0
 10
109.2265
 20
73.14099899999999
 42
1.0
  0
LWPOLYLINE
  5
2037
330
A
100
AcDbEntity
  8
TOPOVERLAY
100
AcDbPolyline
 90
        2
 70
     1
 43
0.074999
 10
109.151499
 20
73.541001
 42
1.0
 10
109.2265
 20
73.541001
 42
1.0
  0
LWPOLYLINE
  5
203B
330
A
100
AcDbEntity
  8
TOPOVERLAY
100
AcDbPolyline
 90
        2
 70
     0
 43
0.15
 10
108.239001
 20
74.941001
 10
109.188999
 20
74.941001
  0
LWPOLYLINE
  5
203F
330
A
100
AcDbEntity
  8
TOPOVERLAY
100
AcDbPolyline
 90
        2
 70
     1
 43
0.074999
 10
108.201501
 20
74.941001
 42
1.0
 10
108.276502
 20
74.941001
 42
1.0
  0
LWPOLYLINE
  5
2043
330
A
100
AcDbEntity
  8
TOPOVERLAY
100
AcDbPolyline
 90
        2
 70
     1
 43
0.074999
 10
109.151499
 20
74.941001
 42
1.0
 10
109.2265
 20
74.941001
 42
1.0
  0
LWPOLYLINE
  5
2047
330
A
100
AcDbEntity
  8
TOPOVERLAY
100
AcDbPolyline
 90
        2
 70
     0
 43
0.15
 10
109.188999
 20
74.490999
 10
109.188999
 20
74.941001
  0
LWPOLYLINE
  5
204B
330
A
100
AcDbEntity
  8
TOPOVERLAY
100
AcDbPolyline
 90
        2
 70
     1
 43
0.074999
 10
109.151499
 20
74.490999
 42
1.0
 10
109.2265
 20
74.490999
 42
1.0
  0
LWPOLYLINE
  5
204F
330
A
100
AcDbEntity
  8
TOPOVERLAY
100
AcDbPolyline
 90
        2
 70
     1
 43
0.074999
 10
109.151499
 20
74.941001
 42
1.0
 10
109.2265
 20
74.941001
 42
1.0
  0
TEXT
  5
208E
330
A
100
AcDbEntity
  8
TOPOVERLAY
100
AcDbText
 10
109.601
 20
75.69199999999999
 30
0.0
 40
0.762
  1
C16
 50
90.0
100
AcDbText
  0
LWPOLYLINE
  5
208F
330
A
100
AcDbEntity
  8
TOPOVERLAY
100
AcDbPolyline
 90
        2
 70
     0
 43
0.15
 10
101.744998
 20
65.520001
 10
102.195
 20
65.520001
  0
LWPOLYLINE
  5
2093
330
A
100
AcDbEntity
  8
TOPOVERLAY
100
AcDbPolyline
 90
        2
 70
     1
 43
0.074999
 10
101.707498
 20
65.520001
 42
1.0
 10
101.782499
 20
65.520001
 42
1.0
  0
LWPOLYLINE
  5
2097
330
A
100
AcDbEntity
  8
TOPOVERLAY
100
AcDbPolyline
 90
        2
 70
     1
 43
0.074999
 10
102.1575
 20
65.520001
 42
1.0
 10
102.232501
 20
65.520001
 42
1.0
  0
LWPOLYLINE
  5
209B
330
A
100
AcDbEntity
  8
TOPOVERLAY
100
AcDbPolyline
 90
        2
 70
     0
 43
0.15
 10
101.744998
 20
65.520001
 10
101.744998
 20
65.620001
  0
LWPOLYLINE
  5
209F
330
A
100
AcDbEntity
  8
TOPOVERLAY
100
AcDbPolyline
 90
        2
 70
     1
 43
0.074999
 10
101.707498
 20
65.520001
 42
1.0
 10
101.782499
 20
65.520001
 42
1.0
  0
LWPOLYLINE
  5
20A3
330
A
100
AcDbEntity
  8
TOPOVERLAY
100
AcDbPolyline
 90
        2
 70
     1
 43
0.074999
 10
101.707498
 20
65.620001
 42
1.0
 10
101.782499
 20
65.620001
 42
1.0
  0
LWPOLYLINE
  5
20A7
330
A
100
AcDbEntity
  8
TOPOVERLAY
100
AcDbPolyline
 90
        2
 70
     0
 43
0.15
 10
103.094998
 20
65.520001
 10
103.545
 20
65.520001
  0
LWPOLYLINE
  5
20AB
330
A
100
AcDbEntity
  8
TOPOVERLAY
100
AcDbPolyline
 90
        2
 70
     1
 43
0.074999
 10
103.057498
 20
65.520001
 42
1.0
 10
103.132499
 20
65.520001
 42
1.0
  0
LWPOLYLINE
  5
20AF
330
A
100
AcDbEntity
  8
TOPOVERLAY
100
AcDbPolyline
 90
        2
 70
     1
 43
0.074999
 10
103.507499
 20
65.520001
 42
1.0
 10
103.5825
 20
65.520001
 42
1.0
  0
LWPOLYLINE
  5
20B3
330
A
100
AcDbEntity
  8
TOPOVERLAY
100
AcDbPolyline
 90
        2
 70
     0
 43
0.15
 10
103.545
 20
65.520001
 10
103.545
 20
66.51999899999999
  0
LWPOLYLINE
  5
20B7
330
A
100
AcDbEntity
  8
TOPOVERLAY
100
AcDbPolyline
 90
        2
 70
     1
 43
0.074999
 10
103.507499
 20
65.520001
 42
1.0
 10
103.5825
 20
65.520001
 42
1.0
  0
LWPOLYLINE
  5
20BB
330
A
100
AcDbEntity
  8
TOPOVERLAY
100
AcDbPolyline
 90
        2
 70
     1
 43
0.074999
 10
103.507499
 20
66.51999899999999
 42
1.0
 10
103.5825
 20
66.51999899999999
 42
1.0
  0
LWPOLYLINE
  5
20BF
330
A
100
AcDbEntity
  8
TOPOVERLAY
100
AcDbPolyline
 90
        2
 70
     0
 43
0.15
 10
103.144998
 20
66.51999899999999
 10
103.545
 20
66.51999899999999
  0
LWPOLYLINE
  5
20C3
330
A
100
AcDbEntity
  8
TOPOVERLAY
100
AcDbPolyline
 90
        2
 70
     1
 43
0.074999
 10
103.107498
 20
66.51999899999999
 42
1.0
 10
103.182499
 20
66.51999899999999
 42
1.0
  0
LWPOLYLINE
  5
20C7
330
A
100
AcDbEntity
  8
TOPOVERLAY
100
AcDbPolyline
 90
        2
 70
     1
 43
0.074999
 10
103.507499
 20
66.51999899999999
 42
1.0
 10
103.5825
 20
66.51999899999999
 42
1.0
  0
LWPOLYLINE
  5
20CB
330
A
100
AcDbEntity
  8
TOPOVERLAY
100
AcDbPolyline
 90
        2
 70
     0
 43
0.15
 10
101.744998
 20
65.570001
 10
101.744998
 20
66.51999899999999
  0
LWPOLYLINE
  5
20CF
330
A
100
AcDbEntity
  8
TOPOVERLAY
100
AcDbPolyline
 90
        2
 70
     1
 43
0.074999
 10
101.707498
 20
65.570001
 42
1.0
 10
101.782499
 20
65.570001
 42
1.0
  0
LWPOLYLINE
  5
20D3
330
A
100
AcDbEntity
  8
TOPOVERLAY
100
AcDbPolyline
 90
        2
 70
     1
 43
0.074999
 10
101.707498
 20
66.51999899999999
 42
1.0
 10
101.782499
 20
66.51999899999999
 42
1.0
  0
LWPOLYLINE
  5
20D7
330
A
100
AcDbEntity
  8
TOPOVERLAY
100
AcDbPolyline
 90
        2
 70
     0
 43
0.15
 10
101.744998
 20
66.51999899999999
 10
102.195
 20
66.51999899999999
  0
LWPOLYLINE
  5
20DB
330
A
100
AcDbEntity
  8
TOPOVERLAY
100
AcDbPolyline
 90
        2
 70
     1
 43
0.074999
 10
101.707498
 20
66.51999899999999
 42
1.0
 10
101.782499
 20
66.51999899999999
 42
1.0
  0
LWPOLYLINE
  5
20DF
330
A
100
AcDbEntity
  8
TOPOVERLAY
100
AcDbPolyline
 90
        2
 70
     1
 43
0.074999
 10
102.1575
 20
66.51999899999999
 42
1.0
 10
102.232501
 20
66.51999899999999
 42
1.0
  0
TEXT
  5
211E
330
A
100
AcDbEntity
  8
TOPOVERLAY
100
AcDbText
 10
97.917
 20
65.278
 30
0.0
 40
0.762
  1
C19
 50
360.0
100
AcDbText
  0
LWPOLYLINE
  5
211F
330
A
100
AcDbEntity
  8
TOPOVERLAY
100
AcDbPolyline
 90
        2
 70
     0
 43
0.15
 10
112.445002
 20
66.319999
 10
112.895004
 20
66.319999
  0
LWPOLYLINE
  5
2123
330
A
100
AcDbEntity
  8
TOPOVERLAY
100
AcDbPolyline
 90
        2
 70
     1
 43
0.074999
 10
112.407502
 20
66.319999
 42
1.0
 10
112.482503
 20
66.319999
 42
1.0
  0
LWPOLYLINE
  5
2127
330
A
100
AcDbEntity
  8
TOPOVERLAY
100
AcDbPolyline
 90
        2
 70
     1
 43
0.074999
 10
112.857504
 20
66.319999
 42
1.0
 10
112.932505
 20
66.319999
 42
1.0
  0
LWPOLYLINE
  5
212B
330
A
100
AcDbEntity
  8
TOPOVERLAY
100
AcDbPolyline
 90
        2
 70
     0
 43
0.15
 10
112.895004
 20
66.21999999999999
 10
112.895004
 20
66.319999
  0
LWPOLYLINE
  5
212F
330
A
100
AcDbEntity
  8
TOPOVERLAY
100
AcDbPolyline
 90
        2
 70
     1
 43
0.074999
 10
112.857504
 20
66.21999999999999
 42
1.0
 10
112.932505
 20
66.21999999999999
 42
1.0
  0
LWPOLYLINE
  5
2133
330
A
100
AcDbEntity
  8
TOPOVERLAY
100
AcDbPolyline
 90
        2
 70
     1
 43
0.074999
 10
112.857504
 20
66.319999
 42
1.0
 10
112.932505
 20
66.319999
 42
1.0
  0
LWPOLYLINE
  5
2137
330
A
100
AcDbEntity
  8
TOPOVERLAY
100
AcDbPolyline
 90
        2
 70
     0
 43
0.15
 10
111.095003
 20
66.319999
 10
111.545004
 20
66.319999
  0
LWPOLYLINE
  5
213B
330
A
100
AcDbEntity
  8
TOPOVERLAY
100
AcDbPolyline
 90
        2
 70
     1
 43
0.074999
 10
111.057502
 20
66.319999
 42
1.0
 10
111.132503
 20
66.319999
 42
1.0
  0
LWPOLYLINE
  5
213F
330
A
100
AcDbEntity
  8
TOPOVERLAY
100
AcDbPolyline
 90
        2
 70
     1
 43
0.074999
 10
111.507504
 20
66.319999
 42
1.0
 10
111.582505
 20
66.319999
 42
1.0
  0
LWPOLYLINE
  5
2143
330
A
100
AcDbEntity
  8
TOPOVERLAY
100
AcDbPolyline
 90
        2
 70
     0
 43
0.15
 10
111.095003
 20
65.32000100000001
 10
111.095003
 20
66.319999
  0
LWPOLYLINE
  5
2147
330
A
100
AcDbEntity
  8
TOPOVERLAY
100
AcDbPolyline
 90
        2
 70
     1
 43
0.074999
 10
111.057502
 20
65.32000100000001
 42
1.0
 10
111.132503
 20
65.32000100000001
 42
1.0
  0
LWPOLYLINE
  5
214B
330
A
100
AcDbEntity
  8
TOPOVERLAY
100
AcDbPolyline
 90
        2
 70
     1
 43
0.074999
 10
111.057502
 20
66.319999
 42
1.0
 10
111.132503
 20
66.319999
 42
1.0
  0
LWPOLYLINE
  5
214F
330
A
100
AcDbEntity
  8
TOPOVERLAY
100
AcDbPolyline
 90
        2
 70
     0
 43
0.15
 10
111.095003
 20
65.32000100000001
 10
111.495004
 20
65.32000100000001
  0
LWPOLYLINE
  5
2153
330
A
100
AcDbEntity
  8
TOPOVERLAY
100
AcDbPolyline
 90
        2
 70
     1
 43
0.074999
 10
111.057502
 20
65.32000100000001
 42
1.0
 10
111.132503
 20
65.32000100000001
 42
1.0
  0
LWPOLYLINE
  5
2157
330
A
100
AcDbEntity
  8
TOPOVERLAY
100
AcDbPolyline
 90
        2
 70
     1
 43
0.074999
 10
111.457504
 20
65.32000100000001
 42
1.0
 10
111.532505
 20
65.32000100000001
 42
1.0
  0
LWPOLYLINE
  5
215B
330
A
100
AcDbEntity
  8
TOPOVERLAY
100
AcDbPolyline
 90
        2
 70
     0
 43
0.15
 10
112.895004
 20
65.32000100000001
 10
112.895004
 20
66.26999999999999
  0
LWPOLYLINE
  5
215F
330
A
100
AcDbEntity
  8
TOPOVERLAY
100
AcDbPolyline
 90
        2
 70
     1
 43
0.074999
 10
112.857504
 20
65.32000100000001
 42
1.0
 10
112.932505
 20
65.32000100000001
 42
1.0
  0
LWPOLYLINE
  5
2163
330
A
100
AcDbEntity
  8
TOPOVERLAY
100
AcDbPolyline
 90
        2
 70
     1
 43
0.074999
 10
112.857504
 20
66.26999999999999
 42
1.0
 10
112.932505
 20
66.26999999999999
 42
1.0
  0
LWPOLYLINE
  5
2167
330
A
100
AcDbEntity
  8
TOPOVERLAY
100
AcDbPolyline
 90
        2
 70
     0
 43
0.15
 10
112.445002
 20
65.32000100000001
 10
112.895004
 20
65.32000100000001
  0
LWPOLYLINE
  5
216B
330
A
100
AcDbEntity
  8
TOPOVERLAY
100
AcDbPolyline
 90
        2
 70
     1
 43
0.074999
 10
112.407502
 20
65.32000100000001
 42
1.0
 10
112.482503
 20
65.32000100000001
 42
1.0
  0
LWPOLYLINE
  5
216F
330
A
100
AcDbEntity
  8
TOPOVERLAY
100
AcDbPolyline
 90
        2
 70
     1
 43
0.074999
 10
112.857504
 20
65.32000100000001
 42
1.0
 10
112.932505
 20
65.32000100000001
 42
1.0
  0
TEXT
  5
21AE
330
A
100
AcDbEntity
  8
TOPOVERLAY
100
AcDbText
 10
110.998
 20
64.389
 30
0.0
 40
0.762
  1
C25
 50
360.0
100
AcDbText
  0
LWPOLYLINE
  5
21AF
330
A
100
AcDbEntity
  8
TOPOVERLAY
100
AcDbPolyline
 90
        2
 70
     0
 43
0.2
 10
104.133
 20
74.831001
 10
106.133001
 20
74.831001
  0
LWPOLYLINE
  5
21B3
330
A
100
AcDbEntity
  8
TOPOVERLAY
100
AcDbPolyline
 90
        2
 70
     1
 43
0.1
 10
104.083
 20
74.831001
 42
1.0
 10
104.183
 20
74.831001
 42
1.0
  0
LWPOLYLINE
  5
21B7
330
A
100
AcDbEntity
  8
TOPOVERLAY
100
AcDbPolyline
 90
        2
 70
     1
 43
0.1
 10
106.083001
 20
74.831001
 42
1.0
 10
106.183001
 20
74.831001
 42
1.0
  0
LWPOLYLINE
  5
21BB
330
A
100
AcDbEntity
  8
TOPOVERLAY
100
AcDbPolyline
 90
        2
 70
     0
 43
0.2
 10
104.133
 20
74.831001
 10
104.133
 20
75.73099899999999
  0
LWPOLYLINE
  5
21BF
330
A
100
AcDbEntity
  8
TOPOVERLAY
100
AcDbPolyline
 90
        2
 70
     1
 43
0.1
 10
104.083
 20
74.831001
 42
1.0
 10
104.183
 20
74.831001
 42
1.0
  0
LWPOLYLINE
  5
21C3
330
A
100
AcDbEntity
  8
TOPOVERLAY
100
AcDbPolyline
 90
        2
 70
     1
 43
0.1
 10
104.083
 20
75.73099899999999
 42
1.0
 10
104.183
 20
75.73099899999999
 42
1.0
  0
LWPOLYLINE
  5
21C7
330
A
100
AcDbEntity
  8
TOPOVERLAY
100
AcDbPolyline
 90
        2
 70
     0
 43
0.2
 10
106.133001
 20
74.831001
 10
106.133001
 20
75.73099899999999
  0
LWPOLYLINE
  5
21CB
330
A
100
AcDbEntity
  8
TOPOVERLAY
100
AcDbPolyline
 90
        2
 70
     1
 43
0.1
 10
106.083001
 20
74.831001
 42
1.0
 10
106.183001
 20
74.831001
 42
1.0
  0
LWPOLYLINE
  5
21CF
330
A
100
AcDbEntity
  8
TOPOVERLAY
100
AcDbPolyline
 90
        2
 70
     1
 43
0.1
 10
106.083001
 20
75.73099899999999
 42
1.0
 10
106.183001
 20
75.73099899999999
 42
1.0
  0
LWPOLYLINE
  5
21D3
330
A
100
AcDbEntity
  8
TOPOVERLAY
100
AcDbPolyline
 90
        2
 70
     0
 43
0.2
 10
104.133
 20
77.43100099999999
 10
104.133
 20
78.330999
  0
LWPOLYLINE
  5
21D7
330
A
100
AcDbEntity
  8
TOPOVERLAY
100
AcDbPolyline
 90
        2
 70
     1
 43
0.1
 10
104.083
 20
77.43100099999999
 42
1.0
 10
104.183
 20
77.43100099999999
 42
1.0
  0
LWPOLYLINE
  5
21DB
330
A
100
AcDbEntity
  8
TOPOVERLAY
100
AcDbPolyline
 90
        2
 70
     1
 43
0.1
 10
104.083
 20
78.330999
 42
1.0
 10
104.183
 20
78.330999
 42
1.0
  0
LWPOLYLINE
  5
21DF
330
A
100
AcDbEntity
  8
TOPOVERLAY
100
AcDbPolyline
 90
        2
 70
     0
 43
0.2
 10
106.133001
 20
77.43100099999999
 10
106.133001
 20
78.330999
  0
LWPOLYLINE
  5
21E3
330
A
100
AcDbEntity
  8
TOPOVERLAY
100
AcDbPolyline
 90
        2
 70
     1
 43
0.1
 10
106.083001
 20
77.43100099999999
 42
1.0
 10
106.183001
 20
77.43100099999999
 42
1.0
  0
LWPOLYLINE
  5
21E7
330
A
100
AcDbEntity
  8
TOPOVERLAY
100
AcDbPolyline
 90
        2
 70
     1
 43
0.1
 10
106.083001
 20
78.330999
 42
1.0
 10
106.183001
 20
78.330999
 42
1.0
  0
LWPOLYLINE
  5
21EB
330
A
100
AcDbEntity
  8
TOPOVERLAY
100
AcDbPolyline
 90
        2
 70
     0
 43
0.2
 10
104.133
 20
78.330999
 10
106.133001
 20
78.330999
  0
LWPOLYLINE
  5
21EF
330
A
100
AcDbEntity
  8
TOPOVERLAY
100
AcDbPolyline
 90
        2
 70
     1
 43
0.1
 10
104.083
 20
78.330999
 42
1.0
 10
104.183
 20
78.330999
 42
1.0
  0
LWPOLYLINE
  5
21F3
330
A
100
AcDbEntity
  8
TOPOVERLAY
100
AcDbPolyline
 90
        2
 70
     1
 43
0.1
 10
106.083001
 20
78.330999
 42
1.0
 10
106.183001
 20
78.330999
 42
1.0
  0
TEXT
  5
2232
330
A
100
AcDbEntity
  8
TOPOVERLAY
100
AcDbText
 10
104.394
 20
78.61299999999999
 30
0.0
 40
0.762
  1
C21
 50
360.0
100
AcDbText
  0
LWPOLYLINE
  5
2233
330
A
100
AcDbEntity
  8
TOPOVERLAY
100
AcDbPolyline
 90
        2
 70
     0
 43
0.15
 10
104.887001
 20
73.98299899999999
 10
104.887001
 20
74.433001
  0
LWPOLYLINE
  5
2237
330
A
100
AcDbEntity
  8
TOPOVERLAY
100
AcDbPolyline
 90
        2
 70
     1
 43
0.074999
 10
104.849501
 20
73.98299899999999
 42
1.0
 10
104.924502
 20
73.98299899999999
 42
1.0
  0
LWPOLYLINE
  5
223B
330
A
100
AcDbEntity
  8
TOPOVERLAY
100
AcDbPolyline
 90
        2
 70
     1
 43
0.074999
 10
104.849501
 20
74.433001
 42
1.0
 10
104.924502
 20
74.433001
 42
1.0
  0
LWPOLYLINE
  5
223F
330
A
100
AcDbEntity
  8
TOPOVERLAY
100
AcDbPolyline
 90
        2
 70
     0
 43
0.15
 10
104.887001
 20
74.433001
 10
104.987001
 20
74.433001
  0
LWPOLYLINE
  5
2243
330
A
100
AcDbEntity
  8
TOPOVERLAY
100
AcDbPolyline
 90
        2
 70
     1
 43
0.074999
 10
104.849501
 20
74.433001
 42
1.0
 10
104.924502
 20
74.433001
 42
1.0
  0
LWPOLYLINE
  5
2247
330
A
100
AcDbEntity
  8
TOPOVERLAY
100
AcDbPolyline
 90
        2
 70
     1
 43
0.074999
 10
104.949501
 20
74.433001
 42
1.0
 10
105.024502
 20
74.433001
 42
1.0
  0
LWPOLYLINE
  5
224B
330
A
100
AcDbEntity
  8
TOPOVERLAY
100
AcDbPolyline
 90
        2
 70
     0
 43
0.15
 10
104.887001
 20
72.63299899999999
 10
104.887001
 20
73.083001
  0
LWPOLYLINE
  5
224F
330
A
100
AcDbEntity
  8
TOPOVERLAY
100
AcDbPolyline
 90
        2
 70
     1
 43
0.074999
 10
104.849501
 20
72.63299899999999
 42
1.0
 10
104.924502
 20
72.63299899999999
 42
1.0
  0
LWPOLYLINE
  5
2253
330
A
100
AcDbEntity
  8
TOPOVERLAY
100
AcDbPolyline
 90
        2
 70
     1
 43
0.074999
 10
104.849501
 20
73.083001
 42
1.0
 10
104.924502
 20
73.083001
 42
1.0
  0
LWPOLYLINE
  5
2257
330
A
100
AcDbEntity
  8
TOPOVERLAY
100
AcDbPolyline
 90
        2
 70
     0
 43
0.15
 10
104.887001
 20
72.63299899999999
 10
105.886999
 20
72.63299899999999
  0
LWPOLYLINE
  5
225B
330
A
100
AcDbEntity
  8
TOPOVERLAY
100
AcDbPolyline
 90
        2
 70
     1
 43
0.074999
 10
104.849501
 20
72.63299899999999
 42
1.0
 10
104.924502
 20
72.63299899999999
 42
1.0
  0
LWPOLYLINE
  5
225F
330
A
100
AcDbEntity
  8
TOPOVERLAY
100
AcDbPolyline
 90
        2
 70
     1
 43
0.074999
 10
105.849499
 20
72.63299899999999
 42
1.0
 10
105.9245
 20
72.63299899999999
 42
1.0
  0
LWPOLYLINE
  5
2263
330
A
100
AcDbEntity
  8
TOPOVERLAY
100
AcDbPolyline
 90
        2
 70
     0
 43
0.15
 10
105.886999
 20
72.63299899999999
 10
105.886999
 20
73.033001
  0
LWPOLYLINE
  5
2267
330
A
100
AcDbEntity
  8
TOPOVERLAY
100
AcDbPolyline
 90
        2
 70
     1
 43
0.074999
 10
105.849499
 20
72.63299899999999
 42
1.0
 10
105.9245
 20
72.63299899999999
 42
1.0
  0
LWPOLYLINE
  5
226B
330
A
100
AcDbEntity
  8
TOPOVERLAY
100
AcDbPolyline
 90
        2
 70
     1
 43
0.074999
 10
105.849499
 20
73.033001
 42
1.0
 10
105.9245
 20
73.033001
 42
1.0
  0
LWPOLYLINE
  5
226F
330
A
100
AcDbEntity
  8
TOPOVERLAY
100
AcDbPolyline
 90
        2
 70
     0
 43
0.15
 10
104.937001
 20
74.433001
 10
105.886999
 20
74.433001
  0
LWPOLYLINE
  5
2273
330
A
100
AcDbEntity
  8
TOPOVERLAY
100
AcDbPolyline
 90
        2
 70
     1
 43
0.074999
 10
104.899501
 20
74.433001
 42
1.0
 10
104.974502
 20
74.433001
 42
1.0
  0
LWPOLYLINE
  5
2277
330
A
100
AcDbEntity
  8
TOPOVERLAY
100
AcDbPolyline
 90
        2
 70
     1
 43
0.074999
 10
105.849499
 20
74.433001
 42
1.0
 10
105.9245
 20
74.433001
 42
1.0
  0
LWPOLYLINE
  5
227B
330
A
100
AcDbEntity
  8
TOPOVERLAY
100
AcDbPolyline
 90
        2
 70
     0
 43
0.15
 10
105.886999
 20
73.98299899999999
 10
105.886999
 20
74.433001
  0
LWPOLYLINE
  5
227F
330
A
100
AcDbEntity
  8
TOPOVERLAY
100
AcDbPolyline
 90
        2
 70
     1
 43
0.074999
 10
105.849499
 20
73.98299899999999
 42
1.0
 10
105.9245
 20
73.98299899999999
 42
1.0
  0
LWPOLYLINE
  5
2283
330
A
100
AcDbEntity
  8
TOPOVERLAY
100
AcDbPolyline
 90
        2
 70
     1
 43
0.074999
 10
105.849499
 20
74.433001
 42
1.0
 10
105.9245
 20
74.433001
 42
1.0
  0
TEXT
  5
22C2
330
A
100
AcDbEntity
  8
TOPOVERLAY
100
AcDbText
 10
102.593
 20
73.914
 30
0.0
 40
0.762
  1
C20
 50
90.0
100
AcDbText
  0
LWPOLYLINE
  5
22C3
330
A
100
AcDbEntity
  8
TOPOVERLAY
100
AcDbPolyline
 90
        2
 70
     0
 43
0.15
 10
103.363001
 20
73.85599899999999
 10
103.363001
 20
74.30600099999999
  0
LWPOLYLINE
  5
22C7
330
A
100
AcDbEntity
  8
TOPOVERLAY
100
AcDbPolyline
 90
        2
 70
     1
 43
0.074999
 10
103.325501
 20
73.85599899999999
 42
1.0
 10
103.400502
 20
73.85599899999999
 42
1.0
  0
LWPOLYLINE
  5
22CB
330
A
100
AcDbEntity
  8
TOPOVERLAY
100
AcDbPolyline
 90
        2
 70
     1
 43
0.074999
 10
103.325501
 20
74.30600099999999
 42
1.0
 10
103.400502
 20
74.30600099999999
 42
1.0
  0
LWPOLYLINE
  5
22CF
330
A
100
AcDbEntity
  8
TOPOVERLAY
100
AcDbPolyline
 90
        2
 70
     0
 43
0.15
 10
103.363001
 20
74.30600099999999
 10
103.463001
 20
74.30600099999999
  0
LWPOLYLINE
  5
22D3
330
A
100
AcDbEntity
  8
TOPOVERLAY
100
AcDbPolyline
 90
        2
 70
     1
 43
0.074999
 10
103.325501
 20
74.30600099999999
 42
1.0
 10
103.400502
 20
74.30600099999999
 42
1.0
  0
LWPOLYLINE
  5
22D7
330
A
100
AcDbEntity
  8
TOPOVERLAY
100
AcDbPolyline
 90
        2
 70
     1
 43
0.074999
 10
103.425501
 20
74.30600099999999
 42
1.0
 10
103.500502
 20
74.30600099999999
 42
1.0
  0
LWPOLYLINE
  5
22DB
330
A
100
AcDbEntity
  8
TOPOVERLAY
100
AcDbPolyline
 90
        2
 70
     0
 43
0.15
 10
103.363001
 20
72.505999
 10
103.363001
 20
72.956001
  0
LWPOLYLINE
  5
22DF
330
A
100
AcDbEntity
  8
TOPOVERLAY
100
AcDbPolyline
 90
        2
 70
     1
 43
0.074999
 10
103.325501
 20
72.505999
 42
1.0
 10
103.400502
 20
72.505999
 42
1.0
  0
LWPOLYLINE
  5
22E3
330
A
100
AcDbEntity
  8
TOPOVERLAY
100
AcDbPolyline
 90
        2
 70
     1
 43
0.074999
 10
103.325501
 20
72.956001
 42
1.0
 10
103.400502
 20
72.956001
 42
1.0
  0
LWPOLYLINE
  5
22E7
330
A
100
AcDbEntity
  8
TOPOVERLAY
100
AcDbPolyline
 90
        2
 70
     0
 43
0.15
 10
103.363001
 20
72.505999
 10
104.362999
 20
72.505999
  0
LWPOLYLINE
  5
22EB
330
A
100
AcDbEntity
  8
TOPOVERLAY
100
AcDbPolyline
 90
        2
 70
     1
 43
0.074999
 10
103.325501
 20
72.505999
 42
1.0
 10
103.400502
 20
72.505999
 42
1.0
  0
LWPOLYLINE
  5
22EF
330
A
100
AcDbEntity
  8
TOPOVERLAY
100
AcDbPolyline
 90
        2
 70
     1
 43
0.074999
 10
104.325499
 20
72.505999
 42
1.0
 10
104.4005
 20
72.505999
 42
1.0
  0
LWPOLYLINE
  5
22F3
330
A
100
AcDbEntity
  8
TOPOVERLAY
100
AcDbPolyline
 90
        2
 70
     0
 43
0.15
 10
104.362999
 20
72.505999
 10
104.362999
 20
72.906001
  0
LWPOLYLINE
  5
22F7
330
A
100
AcDbEntity
  8
TOPOVERLAY
100
AcDbPolyline
 90
        2
 70
     1
 43
0.074999
 10
104.325499
 20
72.505999
 42
1.0
 10
104.4005
 20
72.505999
 42
1.0
  0
LWPOLYLINE
  5
22FB
330
A
100
AcDbEntity
  8
TOPOVERLAY
100
AcDbPolyline
 90
        2
 70
     1
 43
0.074999
 10
104.325499
 20
72.906001
 42
1.0
 10
104.4005
 20
72.906001
 42
1.0
  0
LWPOLYLINE
  5
22FF
330
A
100
AcDbEntity
  8
TOPOVERLAY
100
AcDbPolyline
 90
        2
 70
     0
 43
0.15
 10
103.413001
 20
74.30600099999999
 10
104.362999
 20
74.30600099999999
  0
LWPOLYLINE
  5
2303
330
A
100
AcDbEntity
  8
TOPOVERLAY
100
AcDbPolyline
 90
        2
 70
     1
 43
0.074999
 10
103.375501
 20
74.30600099999999
 42
1.0
 10
103.450502
 20
74.30600099999999
 42
1.0
  0
LWPOLYLINE
  5
2307
330
A
100
AcDbEntity
  8
TOPOVERLAY
100
AcDbPolyline
 90
        2
 70
     1
 43
0.074999
 10
104.325499
 20
74.30600099999999
 42
1.0
 10
104.4005
 20
74.30600099999999
 42
1.0
  0
LWPOLYLINE
  5
230B
330
A
100
AcDbEntity
  8
TOPOVERLAY
100
AcDbPolyline
 90
        2
 70
     0
 43
0.15
 10
104.362999
 20
73.85599899999999
 10
104.362999
 20
74.30600099999999
  0
LWPOLYLINE
  5
230F
330
A
100
AcDbEntity
  8
TOPOVERLAY
100
AcDbPolyline
 90
        2
 70
     1
 43
0.074999
 10
104.325499
 20
73.85599899999999
 42
1.0
 10
104.4005
 20
73.85599899999999
 42
1.0
  0
LWPOLYLINE
  5
2313
330
A
100
AcDbEntity
  8
TOPOVERLAY
100
AcDbPolyline
 90
        2
 70
     1
 43
0.074999
 10
104.325499
 20
74.30600099999999
 42
1.0
 10
104.4005
 20
74.30600099999999
 42
1.0
  0
TEXT
  5
2352
330
A
100
AcDbEntity
  8
TOPOVERLAY
100
AcDbText
 10
101.6
 20
73.914
 30
0.0
 40
0.762
  1
C23
 50
90.0
100
AcDbText
  0
LWPOLYLINE
  5
2353
330
A
100
AcDbEntity
  8
TOPOVERLAY
100
AcDbPolyline
 90
        2
 70
     0
 43
0.15
 10
100.044999
 20
67.820002
 10
100.495001
 20
67.820002
  0
LWPOLYLINE
  5
2357
330
A
100
AcDbEntity
  8
TOPOVERLAY
100
AcDbPolyline
 90
        2
 70
     1
 43
0.074999
 10
100.007499
 20
67.820002
 42
1.0
 10
100.0825
 20
67.820002
 42
1.0
  0
LWPOLYLINE
  5
235B
330
A
100
AcDbEntity
  8
TOPOVERLAY
100
AcDbPolyline
 90
        2
 70
     1
 43
0.074999
 10
100.4575
 20
67.820002
 42
1.0
 10
100.532501
 20
67.820002
 42
1.0
  0
LWPOLYLINE
  5
235F
330
A
100
AcDbEntity
  8
TOPOVERLAY
100
AcDbPolyline
 90
        2
 70
     0
 43
0.15
 10
100.044999
 20
67.820002
 10
100.044999
 20
67.920001
  0
LWPOLYLINE
  5
2363
330
A
100
AcDbEntity
  8
TOPOVERLAY
100
AcDbPolyline
 90
        2
 70
     1
 43
0.074999
 10
100.007499
 20
67.820002
 42
1.0
 10
100.0825
 20
67.820002
 42
1.0
  0
LWPOLYLINE
  5
2367
330
A
100
AcDbEntity
  8
TOPOVERLAY
100
AcDbPolyline
 90
        2
 70
     1
 43
0.074999
 10
100.007499
 20
67.920001
 42
1.0
 10
100.0825
 20
67.920001
 42
1.0
  0
LWPOLYLINE
  5
236B
330
A
100
AcDbEntity
  8
TOPOVERLAY
100
AcDbPolyline
 90
        2
 70
     0
 43
0.15
 10
101.394999
 20
67.820002
 10
101.845001
 20
67.820002
  0
LWPOLYLINE
  5
236F
330
A
100
AcDbEntity
  8
TOPOVERLAY
100
AcDbPolyline
 90
        2
 70
     1
 43
0.074999
 10
101.357499
 20
67.820002
 42
1.0
 10
101.4325
 20
67.820002
 42
1.0
  0
LWPOLYLINE
  5
2373
330
A
100
AcDbEntity
  8
TOPOVERLAY
100
AcDbPolyline
 90
        2
 70
     1
 43
0.074999
 10
101.8075
 20
67.820002
 42
1.0
 10
101.882501
 20
67.820002
 42
1.0
  0
LWPOLYLINE
  5
2377
330
A
100
AcDbEntity
  8
TOPOVERLAY
100
AcDbPolyline
 90
        2
 70
     0
 43
0.15
 10
101.845001
 20
67.820002
 10
101.845001
 20
68.81999999999999
  0
LWPOLYLINE
  5
237B
330
A
100
AcDbEntity
  8
TOPOVERLAY
100
AcDbPolyline
 90
        2
 70
     1
 43
0.074999
 10
101.8075
 20
67.820002
 42
1.0
 10
101.882501
 20
67.820002
 42
1.0
  0
LWPOLYLINE
  5
237F
330
A
100
AcDbEntity
  8
TOPOVERLAY
100
AcDbPolyline
 90
        2
 70
     1
 43
0.074999
 10
101.8075
 20
68.81999999999999
 42
1.0
 10
101.882501
 20
68.81999999999999
 42
1.0
  0
LWPOLYLINE
  5
2383
330
A
100
AcDbEntity
  8
TOPOVERLAY
100
AcDbPolyline
 90
        2
 70
     0
 43
0.15
 10
101.444999
 20
68.81999999999999
 10
101.845001
 20
68.81999999999999
  0
LWPOLYLINE
  5
2387
330
A
100
AcDbEntity
  8
TOPOVERLAY
100
AcDbPolyline
 90
        2
 70
     1
 43
0.074999
 10
101.407498
 20
68.81999999999999
 42
1.0
 10
101.4825
 20
68.81999999999999
 42
1.0
  0
LWPOLYLINE
  5
238B
330
A
100
AcDbEntity
  8
TOPOVERLAY
100
AcDbPolyline
 90
        2
 70
     1
 43
0.074999
 10
101.8075
 20
68.81999999999999
 42
1.0
 10
101.882501
 20
68.81999999999999
 42
1.0
  0
LWPOLYLINE
  5
238F
330
A
100
AcDbEntity
  8
TOPOVERLAY
100
AcDbPolyline
 90
        2
 70
     0
 43
0.15
 10
100.044999
 20
67.870001
 10
100.044999
 20
68.81999999999999
  0
LWPOLYLINE
  5
2393
330
A
100
AcDbEntity
  8
TOPOVERLAY
100
AcDbPolyline
 90
        2
 70
     1
 43
0.074999
 10
100.007499
 20
67.870001
 42
1.0
 10
100.0825
 20
67.870001
 42
1.0
  0
LWPOLYLINE
  5
2397
330
A
100
AcDbEntity
  8
TOPOVERLAY
100
AcDbPolyline
 90
        2
 70
     1
 43
0.074999
 10
100.007499
 20
68.81999999999999
 42
1.0
 10
100.0825
 20
68.81999999999999
 42
1.0
  0
LWPOLYLINE
  5
239B
330
A
100
AcDbEntity
  8
TOPOVERLAY
100
AcDbPolyline
 90
        2
 70
     0
 43
0.15
 10
100.044999
 20
68.81999999999999
 10
100.495001
 20
68.81999999999999
  0
LWPOLYLINE
  5
239F
330
A
100
AcDbEntity
  8
TOPOVERLAY
100
AcDbPolyline
 90
        2
 70
     1
 43
0.074999
 10
100.007499
 20
68.81999999999999
 42
1.0
 10
100.0825
 20
68.81999999999999
 42
1.0
  0
LWPOLYLINE
  5
23A3
330
A
100
AcDbEntity
  8
TOPOVERLAY
100
AcDbPolyline
 90
        2
 70
     1
 43
0.074999
 10
100.4575
 20
68.81999999999999
 42
1.0
 10
100.532501
 20
68.81999999999999
 42
1.0
  0
TEXT
  5
23E2
330
A
100
AcDbEntity
  8
TOPOVERLAY
100
AcDbText
 10
98.17100000000001
 20
67.31
 30
0.0
 40
0.762
  1
C6
 50
360.0
100
AcDbText
  0
LWPOLYLINE
  5
23E3
330
A
100
AcDbEntity
  8
TOPOVERLAY
100
AcDbPolyline
 90
        2
 70
     0
 43
0.15
 10
101.744998
 20
64.02000100000001
 10
102.195
 20
64.02000100000001
  0
LWPOLYLINE
  5
23E7
330
A
100
AcDbEntity
  8
TOPOVERLAY
100
AcDbPolyline
 90
        2
 70
     1
 43
0.074999
 10
101.707498
 20
64.02000100000001
 42
1.0
 10
101.782499
 20
64.02000100000001
 42
1.0
  0
LWPOLYLINE
  5
23EB
330
A
100
AcDbEntity
  8
TOPOVERLAY
100
AcDbPolyline
 90
        2
 70
     1
 43
0.074999
 10
102.1575
 20
64.02000100000001
 42
1.0
 10
102.232501
 20
64.02000100000001
 42
1.0
  0
LWPOLYLINE
  5
23EF
330
A
100
AcDbEntity
  8
TOPOVERLAY
100
AcDbPolyline
 90
        2
 70
     0
 43
0.15
 10
101.744998
 20
64.02000100000001
 10
101.744998
 20
64.120001
  0
LWPOLYLINE
  5
23F3
330
A
100
AcDbEntity
  8
TOPOVERLAY
100
AcDbPolyline
 90
        2
 70
     1
 43
0.074999
 10
101.707498
 20
64.02000100000001
 42
1.0
 10
101.782499
 20
64.02000100000001
 42
1.0
  0
LWPOLYLINE
  5
23F7
330
A
100
AcDbEntity
  8
TOPOVERLAY
100
AcDbPolyline
 90
        2
 70
     1
 43
0.074999
 10
101.707498
 20
64.120001
 42
1.0
 10
101.782499
 20
64.120001
 42
1.0
  0
LWPOLYLINE
  5
23FB
330
A
100
AcDbEntity
  8
TOPOVERLAY
100
AcDbPolyline
 90
        2
 70
     0
 43
0.15
 10
103.094998
 20
64.02000100000001
 10
103.545
 20
64.02000100000001
  0
LWPOLYLINE
  5
23FF
330
A
100
AcDbEntity
  8
TOPOVERLAY
100
AcDbPolyline
 90
        2
 70
     1
 43
0.074999
 10
103.057498
 20
64.02000100000001
 42
1.0
 10
103.132499
 20
64.02000100000001
 42
1.0
  0
LWPOLYLINE
  5
2403
330
A
100
AcDbEntity
  8
TOPOVERLAY
100
AcDbPolyline
 90
        2
 70
     1
 43
0.074999
 10
103.507499
 20
64.02000100000001
 42
1.0
 10
103.5825
 20
64.02000100000001
 42
1.0
  0
LWPOLYLINE
  5
2407
330
A
100
AcDbEntity
  8
TOPOVERLAY
100
AcDbPolyline
 90
        2
 70
     0
 43
0.15
 10
103.545
 20
64.02000100000001
 10
103.545
 20
65.019999
  0
LWPOLYLINE
  5
240B
330
A
100
AcDbEntity
  8
TOPOVERLAY
100
AcDbPolyline
 90
        2
 70
     1
 43
0.074999
 10
103.507499
 20
64.02000100000001
 42
1.0
 10
103.5825
 20
64.02000100000001
 42
1.0
  0
LWPOLYLINE
  5
240F
330
A
100
AcDbEntity
  8
TOPOVERLAY
100
AcDbPolyline
 90
        2
 70
     1
 43
0.074999
 10
103.507499
 20
65.019999
 42
1.0
 10
103.5825
 20
65.019999
 42
1.0
  0
LWPOLYLINE
  5
2413
330
A
100
AcDbEntity
  8
TOPOVERLAY
100
AcDbPolyline
 90
        2
 70
     0
 43
0.15
 10
103.144998
 20
65.019999
 10
103.545
 20
65.019999
  0
LWPOLYLINE
  5
2417
330
A
100
AcDbEntity
  8
TOPOVERLAY
100
AcDbPolyline
 90
        2
 70
     1
 43
0.074999
 10
103.107498
 20
65.019999
 42
1.0
 10
103.182499
 20
65.019999
 42
1.0
  0
LWPOLYLINE
  5
241B
330
A
100
AcDbEntity
  8
TOPOVERLAY
100
AcDbPolyline
 90
        2
 70
     1
 43
0.074999
 10
103.507499
 20
65.019999
 42
1.0
 10
103.5825
 20
65.019999
 42
1.0
  0
LWPOLYLINE
  5
241F
330
A
100
AcDbEntity
  8
TOPOVERLAY
100
AcDbPolyline
 90
        2
 70
     0
 43
0.15
 10
101.744998
 20
64.07000100000001
 10
101.744998
 20
65.019999
  0
LWPOLYLINE
  5
2423
330
A
100
AcDbEntity
  8
TOPOVERLAY
100
AcDbPolyline
 90
        2
 70
     1
 43
0.074999
 10
101.707498
 20
64.07000100000001
 42
1.0
 10
101.782499
 20
64.07000100000001
 42
1.0
  0
LWPOLYLINE
  5
2427
330
A
100
AcDbEntity
  8
TOPOVERLAY
100
AcDbPolyline
 90
        2
 70
     1
 43
0.074999
 10
101.707498
 20
65.019999
 42
1.0
 10
101.782499
 20
65.019999
 42
1.0
  0
LWPOLYLINE
  5
242B
330
A
100
AcDbEntity
  8
TOPOVERLAY
100
AcDbPolyline
 90
        2
 70
     0
 43
0.15
 10
101.744998
 20
65.019999
 10
102.195
 20
65.019999
  0
LWPOLYLINE
  5
242F
330
A
100
AcDbEntity
  8
TOPOVERLAY
100
AcDbPolyline
 90
        2
 70
     1
 43
0.074999
 10
101.707498
 20
65.019999
 42
1.0
 10
101.782499
 20
65.019999
 42
1.0
  0
LWPOLYLINE
  5
2433
330
A
100
AcDbEntity
  8
TOPOVERLAY
100
AcDbPolyline
 90
        2
 70
     1
 43
0.074999
 10
102.1575
 20
65.019999
 42
1.0
 10
102.232501
 20
65.019999
 42
1.0
  0
TEXT
  5
2472
330
A
100
AcDbEntity
  8
TOPOVERLAY
100
AcDbText
 10
100.076
 20
63.627
 30
0.0
 40
0.762
  1
C8
 50
360.0
100
AcDbText
  0
LWPOLYLINE
  5
2473
330
A
100
AcDbEntity
  8
TOPOVERLAY
100
AcDbPolyline
 90
        2
 70
     0
 43
0.15
 10
111.995003
 20
62.32
 10
111.995003
 20
62.770001
  0
LWPOLYLINE
  5
2477
330
A
100
AcDbEntity
  8
TOPOVERLAY
100
AcDbPolyline
 90
        2
 70
     1
 43
0.074999
 10
111.957503
 20
62.32
 42
1.0
 10
112.032504
 20
62.32
 42
1.0
  0
LWPOLYLINE
  5
247B
330
A
100
AcDbEntity
  8
TOPOVERLAY
100
AcDbPolyline
 90
        2
 70
     1
 43
0.074999
 10
111.957503
 20
62.770001
 42
1.0
 10
112.032504
 20
62.770001
 42
1.0
  0
LWPOLYLINE
  5
247F
330
A
100
AcDbEntity
  8
TOPOVERLAY
100
AcDbPolyline
 90
        2
 70
     0
 43
0.15
 10
111.895004
 20
62.32
 10
111.995003
 20
62.32
  0
LWPOLYLINE
  5
2483
330
A
100
AcDbEntity
  8
TOPOVERLAY
100
AcDbPolyline
 90
        2
 70
     1
 43
0.074999
 10
111.857503
 20
62.32
 42
1.0
 10
111.932504
 20
62.32
 42
1.0
  0
LWPOLYLINE
  5
2487
330
A
100
AcDbEntity
  8
TOPOVERLAY
100
AcDbPolyline
 90
        2
 70
     1
 43
0.074999
 10
111.957503
 20
62.32
 42
1.0
 10
112.032504
 20
62.32
 42
1.0
  0
LWPOLYLINE
  5
248B
330
A
100
AcDbEntity
  8
TOPOVERLAY
100
AcDbPolyline
 90
        2
 70
     0
 43
0.15
 10
111.995003
 20
63.67
 10
111.995003
 20
64.120001
  0
LWPOLYLINE
  5
248F
330
A
100
AcDbEntity
  8
TOPOVERLAY
100
AcDbPolyline
 90
        2
 70
     1
 43
0.074999
 10
111.957503
 20
63.67
 42
1.0
 10
112.032504
 20
63.67
 42
1.0
  0
LWPOLYLINE
  5
2493
330
A
100
AcDbEntity
  8
TOPOVERLAY
100
AcDbPolyline
 90
        2
 70
     1
 43
0.074999
 10
111.957503
 20
64.120001
 42
1.0
 10
112.032504
 20
64.120001
 42
1.0
  0
LWPOLYLINE
  5
2497
330
A
100
AcDbEntity
  8
TOPOVERLAY
100
AcDbPolyline
 90
        2
 70
     0
 43
0.15
 10
110.995005
 20
64.120001
 10
111.995003
 20
64.120001
  0
LWPOLYLINE
  5
249B
330
A
100
AcDbEntity
  8
TOPOVERLAY
100
AcDbPolyline
 90
        2
 70
     1
 43
0.074999
 10
110.957505
 20
64.120001
 42
1.0
 10
111.032506
 20
64.120001
 42
1.0
  0
LWPOLYLINE
  5
249F
330
A
100
AcDbEntity
  8
TOPOVERLAY
100
AcDbPolyline
 90
        2
 70
     1
 43
0.074999
 10
111.957503
 20
64.120001
 42
1.0
 10
112.032504
 20
64.120001
 42
1.0
  0
LWPOLYLINE
  5
24A3
330
A
100
AcDbEntity
  8
TOPOVERLAY
100
AcDbPolyline
 90
        2
 70
     0
 43
0.15
 10
110.995005
 20
63.71999999999999
 10
110.995005
 20
64.120001
  0
LWPOLYLINE
  5
24A7
330
A
100
AcDbEntity
  8
TOPOVERLAY
100
AcDbPolyline
 90
        2
 70
     1
 43
0.074999
 10
110.957505
 20
63.71999999999999
 42
1.0
 10
111.032506
 20
63.71999999999999
 42
1.0
  0
LWPOLYLINE
  5
24AB
330
A
100
AcDbEntity
  8
TOPOVERLAY
100
AcDbPolyline
 90
        2
 70
     1
 43
0.074999
 10
110.957505
 20
64.120001
 42
1.0
 10
111.032506
 20
64.120001
 42
1.0
  0
LWPOLYLINE
  5
24AF
330
A
100
AcDbEntity
  8
TOPOVERLAY
100
AcDbPolyline
 90
        2
 70
     0
 43
0.15
 10
110.995005
 20
62.32
 10
111.945003
 20
62.32
  0
LWPOLYLINE
  5
24B3
330
A
100
AcDbEntity
  8
TOPOVERLAY
100
AcDbPolyline
 90
        2
 70
     1
 43
0.074999
 10
110.957505
 20
62.32
 42
1.0
 10
111.032506
 20
62.32
 42
1.0
  0
LWPOLYLINE
  5
24B7
330
A
100
AcDbEntity
  8
TOPOVERLAY
100
AcDbPolyline
 90
        2
 70
     1
 43
0.074999
 10
111.907503
 20
62.32
 42
1.0
 10
111.982504
 20
62.32
 42
1.0
  0
LWPOLYLINE
  5
24BB
330
A
100
AcDbEntity
  8
TOPOVERLAY
100
AcDbPolyline
 90
        2
 70
     0
 43
0.15
 10
110.995005
 20
62.32
 10
110.995005
 20
62.770001
  0
LWPOLYLINE
  5
24BF
330
A
100
AcDbEntity
  8
TOPOVERLAY
100
AcDbPolyline
 90
        2
 70
     1
 43
0.074999
 10
110.957505
 20
62.32
 42
1.0
 10
111.032506
 20
62.32
 42
1.0
  0
LWPOLYLINE
  5
24C3
330
A
100
AcDbEntity
  8
TOPOVERLAY
100
AcDbPolyline
 90
        2
 70
     1
 43
0.074999
 10
110.957505
 20
62.770001
 42
1.0
 10
111.032506
 20
62.770001
 42
1.0
  0
TEXT
  5
2502
330
A
100
AcDbEntity
  8
TOPOVERLAY
100
AcDbText
 10
112.903
 20
60.07100000000001
 30
0.0
 40
0.762
  1
C26
 50
90.0
100
AcDbText
  0
LWPOLYLINE
  5
2503
330
A
100
AcDbEntity
  8
TOPOVERLAY
100
AcDbPolyline
 90
        2
 70
     0
 43
0.15
 10
110.895003
 20
62.32
 10
110.895003
 20
62.770001
  0
LWPOLYLINE
  5
2507
330
A
100
AcDbEntity
  8
TOPOVERLAY
100
AcDbPolyline
 90
        2
 70
     1
 43
0.074999
 10
110.857502
 20
62.32
 42
1.0
 10
110.932504
 20
62.32
 42
1.0
  0
LWPOLYLINE
  5
250B
330
A
100
AcDbEntity
  8
TOPOVERLAY
100
AcDbPolyline
 90
        2
 70
     1
 43
0.074999
 10
110.857502
 20
62.770001
 42
1.0
 10
110.932504
 20
62.770001
 42
1.0
  0
LWPOLYLINE
  5
250F
330
A
100
AcDbEntity
  8
TOPOVERLAY
100
AcDbPolyline
 90
        2
 70
     0
 43
0.15
 10
110.795003
 20
62.32
 10
110.895003
 20
62.32
  0
LWPOLYLINE
  5
2513
330
A
100
AcDbEntity
  8
TOPOVERLAY
100
AcDbPolyline
 90
        2
 70
     1
 43
0.074999
 10
110.757503
 20
62.32
 42
1.0
 10
110.832504
 20
62.32
 42
1.0
  0
LWPOLYLINE
  5
2517
330
A
100
AcDbEntity
  8
TOPOVERLAY
100
AcDbPolyline
 90
        2
 70
     1
 43
0.074999
 10
110.857502
 20
62.32
 42
1.0
 10
110.932504
 20
62.32
 42
1.0
  0
LWPOLYLINE
  5
251B
330
A
100
AcDbEntity
  8
TOPOVERLAY
100
AcDbPolyline
 90
        2
 70
     0
 43
0.15
 10
110.895003
 20
63.67
 10
110.895003
 20
64.120001
  0
LWPOLYLINE
  5
251F
330
A
100
AcDbEntity
  8
TOPOVERLAY
100
AcDbPolyline
 90
        2
 70
     1
 43
0.074999
 10
110.857502
 20
63.67
 42
1.0
 10
110.932504
 20
63.67
 42
1.0
  0
LWPOLYLINE
  5
2523
330
A
100
AcDbEntity
  8
TOPOVERLAY
100
AcDbPolyline
 90
        2
 70
     1
 43
0.074999
 10
110.857502
 20
64.120001
 42
1.0
 10
110.932504
 20
64.120001
 42
1.0
  0
LWPOLYLINE
  5
2527
330
A
100
AcDbEntity
  8
TOPOVERLAY
100
AcDbPolyline
 90
        2
 70
     0
 43
0.15
 10
109.895005
 20
64.120001
 10
110.895003
 20
64.120001
  0
LWPOLYLINE
  5
252B
330
A
100
AcDbEntity
  8
TOPOVERLAY
100
AcDbPolyline
 90
        2
 70
     1
 43
0.074999
 10
109.857504
 20
64.120001
 42
1.0
 10
109.932506
 20
64.120001
 42
1.0
  0
LWPOLYLINE
  5
252F
330
A
100
AcDbEntity
  8
TOPOVERLAY
100
AcDbPolyline
 90
        2
 70
     1
 43
0.074999
 10
110.857502
 20
64.120001
 42
1.0
 10
110.932504
 20
64.120001
 42
1.0
  0
LWPOLYLINE
  5
2533
330
A
100
AcDbEntity
  8
TOPOVERLAY
100
AcDbPolyline
 90
        2
 70
     0
 43
0.15
 10
109.895005
 20
63.71999999999999
 10
109.895005
 20
64.120001
  0
LWPOLYLINE
  5
2537
330
A
100
AcDbEntity
  8
TOPOVERLAY
100
AcDbPolyline
 90
        2
 70
     1
 43
0.074999
 10
109.857504
 20
63.71999999999999
 42
1.0
 10
109.932506
 20
63.71999999999999
 42
1.0
  0
LWPOLYLINE
  5
253B
330
A
100
AcDbEntity
  8
TOPOVERLAY
100
AcDbPolyline
 90
        2
 70
     1
 43
0.074999
 10
109.857504
 20
64.120001
 42
1.0
 10
109.932506
 20
64.120001
 42
1.0
  0
LWPOLYLINE
  5
253F
330
A
100
AcDbEntity
  8
TOPOVERLAY
100
AcDbPolyline
 90
        2
 70
     0
 43
0.15
 10
109.895005
 20
62.32
 10
110.845003
 20
62.32
  0
LWPOLYLINE
  5
2543
330
A
100
AcDbEntity
  8
TOPOVERLAY
100
AcDbPolyline
 90
        2
 70
     1
 43
0.074999
 10
109.857504
 20
62.32
 42
1.0
 10
109.932506
 20
62.32
 42
1.0
  0
LWPOLYLINE
  5
2547
330
A
100
AcDbEntity
  8
TOPOVERLAY
100
AcDbPolyline
 90
        2
 70
     1
 43
0.074999
 10
110.807503
 20
62.32
 42
1.0
 10
110.882504
 20
62.32
 42
1.0
  0
LWPOLYLINE
  5
254B
330
A
100
AcDbEntity
  8
TOPOVERLAY
100
AcDbPolyline
 90
        2
 70
     0
 43
0.15
 10
109.895005
 20
62.32
 10
109.895005
 20
62.770001
  0
LWPOLYLINE
  5
254F
330
A
100
AcDbEntity
  8
TOPOVERLAY
100
AcDbPolyline
 90
        2
 70
     1
 43
0.074999
 10
109.857504
 20
62.32
 42
1.0
 10
109.932506
 20
62.32
 42
1.0
  0
LWPOLYLINE
  5
2553
330
A
100
AcDbEntity
  8
TOPOVERLAY
100
AcDbPolyline
 90
        2
 70
     1
 43
0.074999
 10
109.857504
 20
62.770001
 42
1.0
 10
109.932506
 20
62.770001
 42
1.0
  0
TEXT
  5
2592
330
A
100
AcDbEntity
  8
TOPOVERLAY
100
AcDbText
 10
111.887
 20
60.07100000000001
 30
0.0
 40
0.762
  1
C27
 50
90.0
100
AcDbText
  0
LWPOLYLINE
  5
2593
330
A
100
AcDbEntity
  8
TOPOVERLAY
100
AcDbPolyline
 90
        2
 70
     0
 43
0.15
 10
109.795003
 20
62.32
 10
109.795003
 20
62.770001
  0
LWPOLYLINE
  5
2597
330
A
100
AcDbEntity
  8
TOPOVERLAY
100
AcDbPolyline
 90
        2
 70
     1
 43
0.074999
 10
109.757502
 20
62.32
 42
1.0
 10
109.832503
 20
62.32
 42
1.0
  0
LWPOLYLINE
  5
259B
330
A
100
AcDbEntity
  8
TOPOVERLAY
100
AcDbPolyline
 90
        2
 70
     1
 43
0.074999
 10
109.757502
 20
62.770001
 42
1.0
 10
109.832503
 20
62.770001
 42
1.0
  0
LWPOLYLINE
  5
259F
330
A
100
AcDbEntity
  8
TOPOVERLAY
100
AcDbPolyline
 90
        2
 70
     0
 43
0.15
 10
109.695003
 20
62.32
 10
109.795003
 20
62.32
  0
LWPOLYLINE
  5
25A3
330
A
100
AcDbEntity
  8
TOPOVERLAY
100
AcDbPolyline
 90
        2
 70
     1
 43
0.074999
 10
109.657502
 20
62.32
 42
1.0
 10
109.732503
 20
62.32
 42
1.0
  0
LWPOLYLINE
  5
25A7
330
A
100
AcDbEntity
  8
TOPOVERLAY
100
AcDbPolyline
 90
        2
 70
     1
 43
0.074999
 10
109.757502
 20
62.32
 42
1.0
 10
109.832503
 20
62.32
 42
1.0
  0
LWPOLYLINE
  5
25AB
330
A
100
AcDbEntity
  8
TOPOVERLAY
100
AcDbPolyline
 90
        2
 70
     0
 43
0.15
 10
109.795003
 20
63.67
 10
109.795003
 20
64.120001
  0
LWPOLYLINE
  5
25AF
330
A
100
AcDbEntity
  8
TOPOVERLAY
100
AcDbPolyline
 90
        2
 70
     1
 43
0.074999
 10
109.757502
 20
63.67
 42
1.0
 10
109.832503
 20
63.67
 42
1.0
  0
LWPOLYLINE
  5
25B3
330
A
100
AcDbEntity
  8
TOPOVERLAY
100
AcDbPolyline
 90
        2
 70
     1
 43
0.074999
 10
109.757502
 20
64.120001
 42
1.0
 10
109.832503
 20
64.120001
 42
1.0
  0
LWPOLYLINE
  5
25B7
330
A
100
AcDbEntity
  8
TOPOVERLAY
100
AcDbPolyline
 90
        2
 70
     0
 43
0.15
 10
108.795005
 20
64.120001
 10
109.795003
 20
64.120001
  0
LWPOLYLINE
  5
25BB
330
A
100
AcDbEntity
  8
TOPOVERLAY
100
AcDbPolyline
 90
        2
 70
     1
 43
0.074999
 10
108.757504
 20
64.120001
 42
1.0
 10
108.832505
 20
64.120001
 42
1.0
  0
LWPOLYLINE
  5
25BF
330
A
100
AcDbEntity
  8
TOPOVERLAY
100
AcDbPolyline
 90
        2
 70
     1
 43
0.074999
 10
109.757502
 20
64.120001
 42
1.0
 10
109.832503
 20
64.120001
 42
1.0
  0
LWPOLYLINE
  5
25C3
330
A
100
AcDbEntity
  8
TOPOVERLAY
100
AcDbPolyline
 90
        2
 70
     0
 43
0.15
 10
108.795005
 20
63.71999999999999
 10
108.795005
 20
64.120001
  0
LWPOLYLINE
  5
25C7
330
A
100
AcDbEntity
  8
TOPOVERLAY
100
AcDbPolyline
 90
        2
 70
     1
 43
0.074999
 10
108.757504
 20
63.71999999999999
 42
1.0
 10
108.832505
 20
63.71999999999999
 42
1.0
  0
LWPOLYLINE
  5
25CB
330
A
100
AcDbEntity
  8
TOPOVERLAY
100
AcDbPolyline
 90
        2
 70
     1
 43
0.074999
 10
108.757504
 20
64.120001
 42
1.0
 10
108.832505
 20
64.120001
 42
1.0
  0
LWPOLYLINE
  5
25CF
330
A
100
AcDbEntity
  8
TOPOVERLAY
100
AcDbPolyline
 90
        2
 70
     0
 43
0.15
 10
108.795005
 20
62.32
 10
109.745003
 20
62.32
  0
LWPOLYLINE
  5
25D3
330
A
100
AcDbEntity
  8
TOPOVERLAY
100
AcDbPolyline
 90
        2
 70
     1
 43
0.074999
 10
108.757504
 20
62.32
 42
1.0
 10
108.832505
 20
62.32
 42
1.0
  0
LWPOLYLINE
  5
25D7
330
A
100
AcDbEntity
  8
TOPOVERLAY
100
AcDbPolyline
 90
        2
 70
     1
 43
0.074999
 10
109.707502
 20
62.32
 42
1.0
 10
109.782503
 20
62.32
 42
1.0
  0
LWPOLYLINE
  5
25DB
330
A
100
AcDbEntity
  8
TOPOVERLAY
100
AcDbPolyline
 90
        2
 70
     0
 43
0.15
 10
108.795005
 20
62.32
 10
108.795005
 20
62.770001
  0
LWPOLYLINE
  5
25DF
330
A
100
AcDbEntity
  8
TOPOVERLAY
100
AcDbPolyline
 90
        2
 70
     1
 43
0.074999
 10
108.757504
 20
62.32
 42
1.0
 10
108.832505
 20
62.32
 42
1.0
  0
LWPOLYLINE
  5
25E3
330
A
100
AcDbEntity
  8
TOPOVERLAY
100
AcDbPolyline
 90
        2
 70
     1
 43
0.074999
 10
108.757504
 20
62.770001
 42
1.0
 10
108.832505
 20
62.770001
 42
1.0
  0
TEXT
  5
2622
330
A
100
AcDbEntity
  8
TOPOVERLAY
100
AcDbText
 10
110.871
 20
60.07100000000001
 30
0.0
 40
0.762
  1
C28
 50
90.0
100
AcDbText
  0
LWPOLYLINE
  5
2623
330
A
100
AcDbEntity
  8
TOPOVERLAY
100
AcDbPolyline
 90
        2
 70
     0
 43
0.15
 10
108.395003
 20
62.32
 10
108.395003
 20
62.770001
  0
LWPOLYLINE
  5
2627
330
A
100
AcDbEntity
  8
TOPOVERLAY
100
AcDbPolyline
 90
        2
 70
     1
 43
0.074999
 10
108.357502
 20
62.32
 42
1.0
 10
108.432503
 20
62.32
 42
1.0
  0
LWPOLYLINE
  5
262B
330
A
100
AcDbEntity
  8
TOPOVERLAY
100
AcDbPolyline
 90
        2
 70
     1
 43
0.074999
 10
108.357502
 20
62.770001
 42
1.0
 10
108.432503
 20
62.770001
 42
1.0
  0
LWPOLYLINE
  5
262F
330
A
100
AcDbEntity
  8
TOPOVERLAY
100
AcDbPolyline
 90
        2
 70
     0
 43
0.15
 10
108.295003
 20
62.32
 10
108.395003
 20
62.32
  0
LWPOLYLINE
  5
2633
330
A
100
AcDbEntity
  8
TOPOVERLAY
100
AcDbPolyline
 90
        2
 70
     1
 43
0.074999
 10
108.257503
 20
62.32
 42
1.0
 10
108.332504
 20
62.32
 42
1.0
  0
LWPOLYLINE
  5
2637
330
A
100
AcDbEntity
  8
TOPOVERLAY
100
AcDbPolyline
 90
        2
 70
     1
 43
0.074999
 10
108.357502
 20
62.32
 42
1.0
 10
108.432503
 20
62.32
 42
1.0
  0
LWPOLYLINE
  5
263B
330
A
100
AcDbEntity
  8
TOPOVERLAY
100
AcDbPolyline
 90
        2
 70
     0
 43
0.15
 10
108.395003
 20
63.67
 10
108.395003
 20
64.120001
  0
LWPOLYLINE
  5
263F
330
A
100
AcDbEntity
  8
TOPOVERLAY
100
AcDbPolyline
 90
        2
 70
     1
 43
0.074999
 10
108.357502
 20
63.67
 42
1.0
 10
108.432503
 20
63.67
 42
1.0
  0
LWPOLYLINE
  5
2643
330
A
100
AcDbEntity
  8
TOPOVERLAY
100
AcDbPolyline
 90
        2
 70
     1
 43
0.074999
 10
108.357502
 20
64.120001
 42
1.0
 10
108.432503
 20
64.120001
 42
1.0
  0
LWPOLYLINE
  5
2647
330
A
100
AcDbEntity
  8
TOPOVERLAY
100
AcDbPolyline
 90
        2
 70
     0
 43
0.15
 10
107.395005
 20
64.120001
 10
108.395003
 20
64.120001
  0
LWPOLYLINE
  5
264B
330
A
100
AcDbEntity
  8
TOPOVERLAY
100
AcDbPolyline
 90
        2
 70
     1
 43
0.074999
 10
107.357504
 20
64.120001
 42
1.0
 10
107.432505
 20
64.120001
 42
1.0
  0
LWPOLYLINE
  5
264F
330
A
100
AcDbEntity
  8
TOPOVERLAY
100
AcDbPolyline
 90
        2
 70
     1
 43
0.074999
 10
108.357502
 20
64.120001
 42
1.0
 10
108.432503
 20
64.120001
 42
1.0
  0
LWPOLYLINE
  5
2653
330
A
100
AcDbEntity
  8
TOPOVERLAY
100
AcDbPolyline
 90
        2
 70
     0
 43
0.15
 10
107.395005
 20
63.71999999999999
 10
107.395005
 20
64.120001
  0
LWPOLYLINE
  5
2657
330
A
100
AcDbEntity
  8
TOPOVERLAY
100
AcDbPolyline
 90
        2
 70
     1
 43
0.074999
 10
107.357504
 20
63.71999999999999
 42
1.0
 10
107.432505
 20
63.71999999999999
 42
1.0
  0
LWPOLYLINE
  5
265B
330
A
100
AcDbEntity
  8
TOPOVERLAY
100
AcDbPolyline
 90
        2
 70
     1
 43
0.074999
 10
107.357504
 20
64.120001
 42
1.0
 10
107.432505
 20
64.120001
 42
1.0
  0
LWPOLYLINE
  5
265F
330
A
100
AcDbEntity
  8
TOPOVERLAY
100
AcDbPolyline
 90
        2
 70
     0
 43
0.15
 10
107.395005
 20
62.32
 10
108.345003
 20
62.32
  0
LWPOLYLINE
  5
2663
330
A
100
AcDbEntity
  8
TOPOVERLAY
100
AcDbPolyline
 90
        2
 70
     1
 43
0.074999
 10
107.357504
 20
62.32
 42
1.0
 10
107.432505
 20
62.32
 42
1.0
  0
LWPOLYLINE
  5
2667
330
A
100
AcDbEntity
  8
TOPOVERLAY
100
AcDbPolyline
 90
        2
 70
     1
 43
0.074999
 10
108.307502
 20
62.32
 42
1.0
 10
108.382504
 20
62.32
 42
1.0
  0
LWPOLYLINE
  5
266B
330
A
100
AcDbEntity
  8
TOPOVERLAY
100
AcDbPolyline
 90
        2
 70
     0
 43
0.15
 10
107.395005
 20
62.32
 10
107.395005
 20
62.770001
  0
LWPOLYLINE
  5
266F
330
A
100
AcDbEntity
  8
TOPOVERLAY
100
AcDbPolyline
 90
        2
 70
     1
 43
0.074999
 10
107.357504
 20
62.32
 42
1.0
 10
107.432505
 20
62.32
 42
1.0
  0
LWPOLYLINE
  5
2673
330
A
100
AcDbEntity
  8
TOPOVERLAY
100
AcDbPolyline
 90
        2
 70
     1
 43
0.074999
 10
107.357504
 20
62.770001
 42
1.0
 10
107.432505
 20
62.770001
 42
1.0
  0
TEXT
  5
26B2
330
A
100
AcDbEntity
  8
TOPOVERLAY
100
AcDbText
 10
109.855
 20
60.325
 30
0.0
 40
0.762
  1
C31
 50
90.0
100
AcDbText
  0
LWPOLYLINE
  5
26B3
330
A
100
AcDbEntity
  8
TOPOVERLAY
100
AcDbPolyline
 90
        2
 70
     0
 43
0.15
 10
102.945001
 20
74.67000099999999
 10
102.945001
 20
75.219999
  0
LWPOLYLINE
  5
26B7
330
A
100
AcDbEntity
  8
TOPOVERLAY
100
AcDbPolyline
 90
        2
 70
     1
 43
0.074999
 10
102.907501
 20
74.67000099999999
 42
1.0
 10
102.982502
 20
74.67000099999999
 42
1.0
  0
LWPOLYLINE
  5
26BB
330
A
100
AcDbEntity
  8
TOPOVERLAY
100
AcDbPolyline
 90
        2
 70
     1
 43
0.074999
 10
102.907501
 20
75.219999
 42
1.0
 10
102.982502
 20
75.219999
 42
1.0
  0
LWPOLYLINE
  5
26BF
330
A
100
AcDbEntity
  8
TOPOVERLAY
100
AcDbPolyline
 90
        2
 70
     0
 43
0.15
 10
102.945001
 20
74.67000099999999
 10
104.245004
 20
74.67000099999999
  0
LWPOLYLINE
  5
26C3
330
A
100
AcDbEntity
  8
TOPOVERLAY
100
AcDbPolyline
 90
        2
 70
     1
 43
0.074999
 10
102.907501
 20
74.67000099999999
 42
1.0
 10
102.982502
 20
74.67000099999999
 42
1.0
  0
LWPOLYLINE
  5
26C7
330
A
100
AcDbEntity
  8
TOPOVERLAY
100
AcDbPolyline
 90
        2
 70
     1
 43
0.074999
 10
104.207503
 20
74.67000099999999
 42
1.0
 10
104.282504
 20
74.67000099999999
 42
1.0
  0
LWPOLYLINE
  5
26CB
330
A
100
AcDbEntity
  8
TOPOVERLAY
100
AcDbPolyline
 90
        2
 70
     0
 43
0.15
 10
104.245004
 20
74.67000099999999
 10
104.245004
 20
75.219999
  0
LWPOLYLINE
  5
26CF
330
A
100
AcDbEntity
  8
TOPOVERLAY
100
AcDbPolyline
 90
        2
 70
     1
 43
0.074999
 10
104.207503
 20
74.67000099999999
 42
1.0
 10
104.282504
 20
74.67000099999999
 42
1.0
  0
LWPOLYLINE
  5
26D3
330
A
100
AcDbEntity
  8
TOPOVERLAY
100
AcDbPolyline
 90
        2
 70
     1
 43
0.074999
 10
104.207503
 20
75.219999
 42
1.0
 10
104.282504
 20
75.219999
 42
1.0
  0
LWPOLYLINE
  5
26D7
330
A
100
AcDbEntity
  8
TOPOVERLAY
100
AcDbPolyline
 90
        2
 70
     0
 43
0.15
 10
102.945001
 20
76.620002
 10
102.945001
 20
77.17000099999999
  0
LWPOLYLINE
  5
26DB
330
A
100
AcDbEntity
  8
TOPOVERLAY
100
AcDbPolyline
 90
        2
 70
     1
 43
0.074999
 10
102.907501
 20
76.620002
 42
1.0
 10
102.982502
 20
76.620002
 42
1.0
  0
LWPOLYLINE
  5
26DF
330
A
100
AcDbEntity
  8
TOPOVERLAY
100
AcDbPolyline
 90
        2
 70
     1
 43
0.074999
 10
102.907501
 20
77.17000099999999
 42
1.0
 10
102.982502
 20
77.17000099999999
 42
1.0
  0
LWPOLYLINE
  5
26E3
330
A
100
AcDbEntity
  8
TOPOVERLAY
100
AcDbPolyline
 90
        2
 70
     0
 43
0.15
 10
102.945001
 20
77.17000099999999
 10
104.245004
 20
77.17000099999999
  0
LWPOLYLINE
  5
26E7
330
A
100
AcDbEntity
  8
TOPOVERLAY
100
AcDbPolyline
 90
        2
 70
     1
 43
0.074999
 10
102.907501
 20
77.17000099999999
 42
1.0
 10
102.982502
 20
77.17000099999999
 42
1.0
  0
LWPOLYLINE
  5
26EB
330
A
100
AcDbEntity
  8
TOPOVERLAY
100
AcDbPolyline
 90
        2
 70
     1
 43
0.074999
 10
104.207503
 20
77.17000099999999
 42
1.0
 10
104.282504
 20
77.17000099999999
 42
1.0
  0
LWPOLYLINE
  5
26EF
330
A
100
AcDbEntity
  8
TOPOVERLAY
100
AcDbPolyline
 90
        2
 70
     0
 43
0.15
 10
104.245004
 20
76.620002
 10
104.245004
 20
77.17000099999999
  0
LWPOLYLINE
  5
26F3
330
A
100
AcDbEntity
  8
TOPOVERLAY
100
AcDbPolyline
 90
        2
 70
     1
 43
0.074999
 10
104.207503
 20
76.620002
 42
1.0
 10
104.282504
 20
76.620002
 42
1.0
  0
LWPOLYLINE
  5
26F7
330
A
100
AcDbEntity
  8
TOPOVERLAY
100
AcDbPolyline
 90
        2
 70
     1
 43
0.074999
 10
104.207503
 20
77.17000099999999
 42
1.0
 10
104.282504
 20
77.17000099999999
 42
1.0
  0
TEXT
  5
2736
330
A
100
AcDbEntity
  8
TOPOVERLAY
100
AcDbText
 10
103.759
 20
77.59699999999999
 30
0.0
 40
0.762
  1
C24
 50
90.0
100
AcDbText
  0
LWPOLYLINE
  5
2737
330
A
100
AcDbEntity
  8
TOPOVERLAY
100
AcDbPolyline
 90
        2
 70
     0
 43
0.15
 10
109.8645
 20
75.409003
 10
110.314501
 20
75.409003
  0
LWPOLYLINE
  5
273B
330
A
100
AcDbEntity
  8
TOPOVERLAY
100
AcDbPolyline
 90
        2
 70
     1
 43
0.074999
 10
109.826999
 20
75.409003
 42
1.0
 10
109.902
 20
75.409003
 42
1.0
  0
LWPOLYLINE
  5
273F
330
A
100
AcDbEntity
  8
TOPOVERLAY
100
AcDbPolyline
 90
        2
 70
     1
 43
0.074999
 10
110.277001
 20
75.409003
 42
1.0
 10
110.352002
 20
75.409003
 42
1.0
  0
LWPOLYLINE
  5
2743
330
A
100
AcDbEntity
  8
TOPOVERLAY
100
AcDbPolyline
 90
        2
 70
     0
 43
0.15
 10
109.8645
 20
74.40900500000001
 10
109.8645
 20
75.409003
  0
LWPOLYLINE
  5
2747
330
A
100
AcDbEntity
  8
TOPOVERLAY
100
AcDbPolyline
 90
        2
 70
     1
 43
0.074999
 10
109.826999
 20
74.40900500000001
 42
1.0
 10
109.902
 20
74.40900500000001
 42
1.0
  0
LWPOLYLINE
  5
274B
330
A
100
AcDbEntity
  8
TOPOVERLAY
100
AcDbPolyline
 90
        2
 70
     1
 43
0.074999
 10
109.826999
 20
75.409003
 42
1.0
 10
109.902
 20
75.409003
 42
1.0
  0
LWPOLYLINE
  5
274F
330
A
100
AcDbEntity
  8
TOPOVERLAY
100
AcDbPolyline
 90
        2
 70
     0
 43
0.15
 10
109.8645
 20
74.40900500000001
 10
110.264501
 20
74.40900500000001
  0
LWPOLYLINE
  5
2753
330
A
100
AcDbEntity
  8
TOPOVERLAY
100
AcDbPolyline
 90
        2
 70
     1
 43
0.074999
 10
109.826999
 20
74.40900500000001
 42
1.0
 10
109.902
 20
74.40900500000001
 42
1.0
  0
LWPOLYLINE
  5
2757
330
A
100
AcDbEntity
  8
TOPOVERLAY
100
AcDbPolyline
 90
        2
 70
     1
 43
0.074999
 10
110.227001
 20
74.40900500000001
 42
1.0
 10
110.302002
 20
74.40900500000001
 42
1.0
  0
LWPOLYLINE
  5
275B
330
A
100
AcDbEntity
  8
TOPOVERLAY
100
AcDbPolyline
 90
        2
 70
     0
 43
0.15
 10
111.214499
 20
75.409006
 10
111.664501
 20
75.409003
  0
LWPOLYLINE
  5
275F
330
A
100
AcDbEntity
  8
TOPOVERLAY
100
AcDbPolyline
 90
        2
 70
     1
 43
0.074999
 10
111.176999
 20
75.409006
 42
1.0
 10
111.252
 20
75.409006
 42
1.0
  0
LWPOLYLINE
  5
2763
330
A
100
AcDbEntity
  8
TOPOVERLAY
100
AcDbPolyline
 90
        2
 70
     1
 43
0.074999
 10
111.627001
 20
75.409003
 42
1.0
 10
111.702002
 20
75.409003
 42
1.0
  0
LWPOLYLINE
  5
2767
330
A
100
AcDbEntity
  8
TOPOVERLAY
100
AcDbPolyline
 90
        2
 70
     0
 43
0.15
 10
111.664501
 20
74.40900500000001
 10
111.664501
 20
75.409003
  0
LWPOLYLINE
  5
276B
330
A
100
AcDbEntity
  8
TOPOVERLAY
100
AcDbPolyline
 90
        2
 70
     1
 43
0.074999
 10
111.627001
 20
74.40900500000001
 42
1.0
 10
111.702002
 20
74.40900500000001
 42
1.0
  0
LWPOLYLINE
  5
276F
330
A
100
AcDbEntity
  8
TOPOVERLAY
100
AcDbPolyline
 90
        2
 70
     1
 43
0.074999
 10
111.627001
 20
75.409003
 42
1.0
 10
111.702002
 20
75.409003
 42
1.0
  0
LWPOLYLINE
  5
2773
330
A
100
AcDbEntity
  8
TOPOVERLAY
100
AcDbPolyline
 90
        2
 70
     0
 43
0.15
 10
111.214499
 20
74.409008
 10
111.664501
 20
74.40900500000001
  0
LWPOLYLINE
  5
2777
330
A
100
AcDbEntity
  8
TOPOVERLAY
100
AcDbPolyline
 90
        2
 70
     1
 43
0.074999
 10
111.176999
 20
74.409008
 42
1.0
 10
111.252
 20
74.409008
 42
1.0
  0
LWPOLYLINE
  5
277B
330
A
100
AcDbEntity
  8
TOPOVERLAY
100
AcDbPolyline
 90
        2
 70
     1
 43
0.074999
 10
111.627001
 20
74.40900500000001
 42
1.0
 10
111.702002
 20
74.40900500000001
 42
1.0
  0
TEXT
  5
27BA
330
A
100
AcDbEntity
  8
TOPOVERLAY
100
AcDbText
 10
112.014
 20
74.54899999999999
 30
0.0
 40
0.762
  1
R6
 50
360.0
100
AcDbText
  0
LWPOLYLINE
  5
27BB
330
A
100
AcDbEntity
  8
TOPOVERLAY
100
AcDbPolyline
 90
        2
 70
     0
 43
0.15
 10
104.745
 20
64.169999
 10
104.745
 20
64.62
  0
LWPOLYLINE
  5
27BF
330
A
100
AcDbEntity
  8
TOPOVERLAY
100
AcDbPolyline
 90
        2
 70
     1
 43
0.074999
 10
104.707499
 20
64.169999
 42
1.0
 10
104.782501
 20
64.169999
 42
1.0
  0
LWPOLYLINE
  5
27C3
330
A
100
AcDbEntity
  8
TOPOVERLAY
100
AcDbPolyline
 90
        2
 70
     1
 43
0.074999
 10
104.707499
 20
64.62
 42
1.0
 10
104.782501
 20
64.62
 42
1.0
  0
LWPOLYLINE
  5
27C7
330
A
100
AcDbEntity
  8
TOPOVERLAY
100
AcDbPolyline
 90
        2
 70
     0
 43
0.15
 10
103.745002
 20
64.62
 10
104.745
 20
64.62
  0
LWPOLYLINE
  5
27CB
330
A
100
AcDbEntity
  8
TOPOVERLAY
100
AcDbPolyline
 90
        2
 70
     1
 43
0.074999
 10
103.707501
 20
64.62
 42
1.0
 10
103.782503
 20
64.62
 42
1.0
  0
LWPOLYLINE
  5
27CF
330
A
100
AcDbEntity
  8
TOPOVERLAY
100
AcDbPolyline
 90
        2
 70
     1
 43
0.074999
 10
104.707499
 20
64.62
 42
1.0
 10
104.782501
 20
64.62
 42
1.0
  0
LWPOLYLINE
  5
27D3
330
A
100
AcDbEntity
  8
TOPOVERLAY
100
AcDbPolyline
 90
        2
 70
     0
 43
0.15
 10
103.745002
 20
64.169999
 10
103.745002
 20
64.62
  0
LWPOLYLINE
  5
27D7
330
A
100
AcDbEntity
  8
TOPOVERLAY
100
AcDbPolyline
 90
        2
 70
     1
 43
0.074999
 10
103.707501
 20
64.169999
 42
1.0
 10
103.782503
 20
64.169999
 42
1.0
  0
LWPOLYLINE
  5
27DB
330
A
100
AcDbEntity
  8
TOPOVERLAY
100
AcDbPolyline
 90
        2
 70
     1
 43
0.074999
 10
103.707501
 20
64.62
 42
1.0
 10
103.782503
 20
64.62
 42
1.0
  0
LWPOLYLINE
  5
27DF
330
A
100
AcDbEntity
  8
TOPOVERLAY
100
AcDbPolyline
 90
        2
 70
     0
 43
0.15
 10
104.745
 20
62.81999899999999
 10
104.745
 20
63.220001
  0
LWPOLYLINE
  5
27E3
330
A
100
AcDbEntity
  8
TOPOVERLAY
100
AcDbPolyline
 90
        2
 70
     1
 43
0.074999
 10
104.707499
 20
62.81999899999999
 42
1.0
 10
104.782501
 20
62.81999899999999
 42
1.0
  0
LWPOLYLINE
  5
27E7
330
A
100
AcDbEntity
  8
TOPOVERLAY
100
AcDbPolyline
 90
        2
 70
     1
 43
0.074999
 10
104.707499
 20
63.220001
 42
1.0
 10
104.782501
 20
63.220001
 42
1.0
  0
LWPOLYLINE
  5
27EB
330
A
100
AcDbEntity
  8
TOPOVERLAY
100
AcDbPolyline
 90
        2
 70
     0
 43
0.15
 10
103.745002
 20
62.81999899999999
 10
104.745
 20
62.81999899999999
  0
LWPOLYLINE
  5
27EF
330
A
100
AcDbEntity
  8
TOPOVERLAY
100
AcDbPolyline
 90
        2
 70
     1
 43
0.074999
 10
103.707501
 20
62.81999899999999
 42
1.0
 10
103.782503
 20
62.81999899999999
 42
1.0
  0
LWPOLYLINE
  5
27F3
330
A
100
AcDbEntity
  8
TOPOVERLAY
100
AcDbPolyline
 90
        2
 70
     1
 43
0.074999
 10
104.707499
 20
62.81999899999999
 42
1.0
 10
104.782501
 20
62.81999899999999
 42
1.0
  0
LWPOLYLINE
  5
27F7
330
A
100
AcDbEntity
  8
TOPOVERLAY
100
AcDbPolyline
 90
        2
 70
     0
 43
0.15
 10
103.745002
 20
62.81999899999999
 10
103.745002
 20
63.27
  0
LWPOLYLINE
  5
27FB
330
A
100
AcDbEntity
  8
TOPOVERLAY
100
AcDbPolyline
 90
        2
 70
     1
 43
0.074999
 10
103.707501
 20
62.81999899999999
 42
1.0
 10
103.782503
 20
62.81999899999999
 42
1.0
  0
LWPOLYLINE
  5
27FF
330
A
100
AcDbEntity
  8
TOPOVERLAY
100
AcDbPolyline
 90
        2
 70
     1
 43
0.074999
 10
103.707501
 20
63.27
 42
1.0
 10
103.782503
 20
63.27
 42
1.0
  0
TEXT
  5
283E
330
A
100
AcDbEntity
  8
TOPOVERLAY
100
AcDbText
 10
102.997
 20
61.08699999999999
 30
0.0
 40
0.762
  1
R5
 50
90.0
100
AcDbText
  0
LWPOLYLINE
  5
283F
330
A
100
AcDbEntity
  8
TOPOVERLAY
100
AcDbPolyline
 90
        2
 70
     0
 43
0.15
 10
105.445001
 20
58.120001
 10
105.445001
 20
60.320001
  0
LWPOLYLINE
  5
2843
330
A
100
AcDbEntity
  8
TOPOVERLAY
100
AcDbPolyline
 90
        2
 70
     1
 43
0.074999
 10
105.407501
 20
58.120001
 42
1.0
 10
105.482502
 20
58.120001
 42
1.0
  0
LWPOLYLINE
  5
2847
330
A
100
AcDbEntity
  8
TOPOVERLAY
100
AcDbPolyline
 90
        2
 70
     1
 43
0.074999
 10
105.407501
 20
60.320001
 42
1.0
 10
105.482502
 20
60.320001
 42
1.0
  0
LWPOLYLINE
  5
284B
330
A
100
AcDbEntity
  8
TOPOVERLAY
100
AcDbPolyline
 90
        2
 70
     0
 43
0.15
 10
105.445001
 20
58.120001
 10
107.845001
 20
58.120001
  0
LWPOLYLINE
  5
284F
330
A
100
AcDbEntity
  8
TOPOVERLAY
100
AcDbPolyline
 90
        2
 70
     1
 43
0.074999
 10
105.407501
 20
58.120001
 42
1.0
 10
105.482502
 20
58.120001
 42
1.0
  0
LWPOLYLINE
  5
2853
330
A
100
AcDbEntity
  8
TOPOVERLAY
100
AcDbPolyline
 90
        2
 70
     1
 43
0.074999
 10
107.807501
 20
58.120001
 42
1.0
 10
107.882502
 20
58.120001
 42
1.0
  0
LWPOLYLINE
  5
2857
330
A
100
AcDbEntity
  8
TOPOVERLAY
100
AcDbPolyline
 90
        2
 70
     0
 43
0.15
 10
107.845001
 20
58.120001
 10
107.845001
 20
60.320001
  0
LWPOLYLINE
  5
285B
330
A
100
AcDbEntity
  8
TOPOVERLAY
100
AcDbPolyline
 90
        2
 70
     1
 43
0.074999
 10
107.807501
 20
58.120001
 42
1.0
 10
107.882502
 20
58.120001
 42
1.0
  0
LWPOLYLINE
  5
285F
330
A
100
AcDbEntity
  8
TOPOVERLAY
100
AcDbPolyline
 90
        2
 70
     1
 43
0.074999
 10
107.807501
 20
60.320001
 42
1.0
 10
107.882502
 20
60.320001
 42
1.0
  0
LWPOLYLINE
  5
2863
330
A
100
AcDbEntity
  8
TOPOVERLAY
100
AcDbPolyline
 90
        2
 70
     0
 43
0.15
 10
105.445001
 20
60.320001
 10
107.845001
 20
60.320001
  0
LWPOLYLINE
  5
2867
330
A
100
AcDbEntity
  8
TOPOVERLAY
100
AcDbPolyline
 90
        2
 70
     1
 43
0.074999
 10
105.407501
 20
60.320001
 42
1.0
 10
105.482502
 20
60.320001
 42
1.0
  0
LWPOLYLINE
  5
286B
330
A
100
AcDbEntity
  8
TOPOVERLAY
100
AcDbPolyline
 90
        2
 70
     1
 43
0.074999
 10
107.807501
 20
60.320001
 42
1.0
 10
107.882502
 20
60.320001
 42
1.0
  0
LWPOLYLINE
  5
28CF
330
A
100
AcDbEntity
  8
TOPOVERLAY
100
AcDbPolyline
 90
        2
 70
     1
 43
0.2
 10
107.745002
 20
57.820001
 42
1.0
 10
107.545002
 20
57.820001
 42
1.0
  0
LWPOLYLINE
  5
28D3
330
A
100
AcDbEntity
  8
TOPOVERLAY
100
AcDbPolyline
 90
        2
 70
     1
 43
0.1
 10
107.695002
 20
57.820001
 42
1.0
 10
107.795002
 20
57.820001
 42
1.0
  0
LWPOLYLINE
  5
28D7
330
A
100
AcDbEntity
  8
TOPOVERLAY
100
AcDbPolyline
 90
        2
 70
     1
 43
0.1
 10
107.495002
 20
57.820001
 42
1.0
 10
107.595002
 20
57.820001
 42
1.0
  0
TEXT
  5
28F9
330
A
100
AcDbEntity
  8
TOPOVERLAY
100
AcDbText
 10
108.331
 20
57.658
 30
0.0
 40
0.762
  1
T1
 50
360.0
100
AcDbText
  0
LWPOLYLINE
  5
28FA
330
A
100
AcDbEntity
  8
TOPOVERLAY
100
AcDbPolyline
 90
        2
 70
     0
 43
0.15
 10
114.266
 20
66.98449899999999
 10
114.715999
 20
66.98449899999999
  0
LWPOLYLINE
  5
28FE
330
A
100
AcDbEntity
  8
TOPOVERLAY
100
AcDbPolyline
 90
        2
 70
     1
 43
0.074999
 10
114.228499
 20
66.98449899999999
 42
1.0
 10
114.3035
 20
66.98449899999999
 42
1.0
  0
LWPOLYLINE
  5
2902
330
A
100
AcDbEntity
  8
TOPOVERLAY
100
AcDbPolyline
 90
        2
 70
     1
 43
0.074999
 10
114.678498
 20
66.98449899999999
 42
1.0
 10
114.753499
 20
66.98449899999999
 42
1.0
  0
LWPOLYLINE
  5
2906
330
A
100
AcDbEntity
  8
TOPOVERLAY
100
AcDbPolyline
 90
        2
 70
     0
 43
0.15
 10
114.266
 20
65.98450099999999
 10
114.266
 20
66.98449899999999
  0
LWPOLYLINE
  5
290A
330
A
100
AcDbEntity
  8
TOPOVERLAY
100
AcDbPolyline
 90
        2
 70
     1
 43
0.074999
 10
114.228499
 20
65.98450099999999
 42
1.0
 10
114.3035
 20
65.98450099999999
 42
1.0
  0
LWPOLYLINE
  5
290E
330
A
100
AcDbEntity
  8
TOPOVERLAY
100
AcDbPolyline
 90
        2
 70
     1
 43
0.074999
 10
114.228499
 20
66.98449899999999
 42
1.0
 10
114.3035
 20
66.98449899999999
 42
1.0
  0
LWPOLYLINE
  5
2912
330
A
100
AcDbEntity
  8
TOPOVERLAY
100
AcDbPolyline
 90
        2
 70
     0
 43
0.15
 10
114.266
 20
65.98450099999999
 10
114.715999
 20
65.98450099999999
  0
LWPOLYLINE
  5
2916
330
A
100
AcDbEntity
  8
TOPOVERLAY
100
AcDbPolyline
 90
        2
 70
     1
 43
0.074999
 10
114.228499
 20
65.98450099999999
 42
1.0
 10
114.3035
 20
65.98450099999999
 42
1.0
  0
LWPOLYLINE
  5
291A
330
A
100
AcDbEntity
  8
TOPOVERLAY
100
AcDbPolyline
 90
        2
 70
     1
 43
0.074999
 10
114.678498
 20
65.98450099999999
 42
1.0
 10
114.753499
 20
65.98450099999999
 42
1.0
  0
LWPOLYLINE
  5
291E
330
A
100
AcDbEntity
  8
TOPOVERLAY
100
AcDbPolyline
 90
        2
 70
     0
 43
0.15
 10
115.665999
 20
66.98449899999999
 10
116.066001
 20
66.98449899999999
  0
LWPOLYLINE
  5
2922
330
A
100
AcDbEntity
  8
TOPOVERLAY
100
AcDbPolyline
 90
        2
 70
     1
 43
0.074999
 10
115.628499
 20
66.98449899999999
 42
1.0
 10
115.7035
 20
66.98449899999999
 42
1.0
  0
LWPOLYLINE
  5
2926
330
A
100
AcDbEntity
  8
TOPOVERLAY
100
AcDbPolyline
 90
        2
 70
     1
 43
0.074999
 10
116.0285
 20
66.98449899999999
 42
1.0
 10
116.103502
 20
66.98449899999999
 42
1.0
  0
LWPOLYLINE
  5
292A
330
A
100
AcDbEntity
  8
TOPOVERLAY
100
AcDbPolyline
 90
        2
 70
     0
 43
0.15
 10
116.066001
 20
65.98450099999999
 10
116.066001
 20
66.98449899999999
  0
LWPOLYLINE
  5
292E
330
A
100
AcDbEntity
  8
TOPOVERLAY
100
AcDbPolyline
 90
        2
 70
     1
 43
0.074999
 10
116.0285
 20
65.98450099999999
 42
1.0
 10
116.103502
 20
65.98450099999999
 42
1.0
  0
LWPOLYLINE
  5
2932
330
A
100
AcDbEntity
  8
TOPOVERLAY
100
AcDbPolyline
 90
        2
 70
     1
 43
0.074999
 10
116.0285
 20
66.98449899999999
 42
1.0
 10
116.103502
 20
66.98449899999999
 42
1.0
  0
LWPOLYLINE
  5
2936
330
A
100
AcDbEntity
  8
TOPOVERLAY
100
AcDbPolyline
 90
        2
 70
     0
 43
0.15
 10
115.616002
 20
65.98450099999999
 10
116.066001
 20
65.98450099999999
  0
LWPOLYLINE
  5
293A
330
A
100
AcDbEntity
  8
TOPOVERLAY
100
AcDbPolyline
 90
        2
 70
     1
 43
0.074999
 10
115.578501
 20
65.98450099999999
 42
1.0
 10
115.653502
 20
65.98450099999999
 42
1.0
  0
LWPOLYLINE
  5
293E
330
A
100
AcDbEntity
  8
TOPOVERLAY
100
AcDbPolyline
 90
        2
 70
     1
 43
0.074999
 10
116.0285
 20
65.98450099999999
 42
1.0
 10
116.103502
 20
65.98450099999999
 42
1.0
  0
TEXT
  5
297D
330
A
100
AcDbEntity
  8
TOPOVERLAY
100
AcDbText
 10
114.808
 20
67.31
 30
0.0
 40
0.762
  1
R8
 50
360.0
100
AcDbText
  0
LWPOLYLINE
  5
297E
330
A
100
AcDbEntity
  8
TOPOVERLAY
100
AcDbPolyline
 90
        2
 70
     0
 43
0.15
 10
100.044999
 20
66.920001
 10
100.495001
 20
66.920001
  0
LWPOLYLINE
  5
2982
330
A
100
AcDbEntity
  8
TOPOVERLAY
100
AcDbPolyline
 90
        2
 70
     1
 43
0.074999
 10
100.007499
 20
66.920001
 42
1.0
 10
100.0825
 20
66.920001
 42
1.0
  0
LWPOLYLINE
  5
2986
330
A
100
AcDbEntity
  8
TOPOVERLAY
100
AcDbPolyline
 90
        2
 70
     1
 43
0.074999
 10
100.4575
 20
66.920001
 42
1.0
 10
100.532501
 20
66.920001
 42
1.0
  0
LWPOLYLINE
  5
298A
330
A
100
AcDbEntity
  8
TOPOVERLAY
100
AcDbPolyline
 90
        2
 70
     0
 43
0.15
 10
100.044999
 20
66.920001
 10
100.044999
 20
67.02000100000001
  0
LWPOLYLINE
  5
298E
330
A
100
AcDbEntity
  8
TOPOVERLAY
100
AcDbPolyline
 90
        2
 70
     1
 43
0.074999
 10
100.007499
 20
66.920001
 42
1.0
 10
100.0825
 20
66.920001
 42
1.0
  0
LWPOLYLINE
  5
2992
330
A
100
AcDbEntity
  8
TOPOVERLAY
100
AcDbPolyline
 90
        2
 70
     1
 43
0.074999
 10
100.007499
 20
67.02000100000001
 42
1.0
 10
100.0825
 20
67.02000100000001
 42
1.0
  0
LWPOLYLINE
  5
2996
330
A
100
AcDbEntity
  8
TOPOVERLAY
100
AcDbPolyline
 90
        2
 70
     0
 43
0.15
 10
101.394999
 20
66.920001
 10
101.845001
 20
66.920001
  0
LWPOLYLINE
  5
299A
330
A
100
AcDbEntity
  8
TOPOVERLAY
100
AcDbPolyline
 90
        2
 70
     1
 43
0.074999
 10
101.357499
 20
66.920001
 42
1.0
 10
101.4325
 20
66.920001
 42
1.0
  0
LWPOLYLINE
  5
299E
330
A
100
AcDbEntity
  8
TOPOVERLAY
100
AcDbPolyline
 90
        2
 70
     1
 43
0.074999
 10
101.8075
 20
66.920001
 42
1.0
 10
101.882501
 20
66.920001
 42
1.0
  0
LWPOLYLINE
  5
29A2
330
A
100
AcDbEntity
  8
TOPOVERLAY
100
AcDbPolyline
 90
        2
 70
     0
 43
0.15
 10
101.845001
 20
66.920001
 10
101.845001
 20
67.919999
  0
LWPOLYLINE
  5
29A6
330
A
100
AcDbEntity
  8
TOPOVERLAY
100
AcDbPolyline
 90
        2
 70
     1
 43
0.074999
 10
101.8075
 20
66.920001
 42
1.0
 10
101.882501
 20
66.920001
 42
1.0
  0
LWPOLYLINE
  5
29AA
330
A
100
AcDbEntity
  8
TOPOVERLAY
100
AcDbPolyline
 90
        2
 70
     1
 43
0.074999
 10
101.8075
 20
67.919999
 42
1.0
 10
101.882501
 20
67.919999
 42
1.0
  0
LWPOLYLINE
  5
29AE
330
A
100
AcDbEntity
  8
TOPOVERLAY
100
AcDbPolyline
 90
        2
 70
     0
 43
0.15
 10
101.444999
 20
67.919999
 10
101.845001
 20
67.919999
  0
LWPOLYLINE
  5
29B2
330
A
100
AcDbEntity
  8
TOPOVERLAY
100
AcDbPolyline
 90
        2
 70
     1
 43
0.074999
 10
101.407498
 20
67.919999
 42
1.0
 10
101.4825
 20
67.919999
 42
1.0
  0
LWPOLYLINE
  5
29B6
330
A
100
AcDbEntity
  8
TOPOVERLAY
100
AcDbPolyline
 90
        2
 70
     1
 43
0.074999
 10
101.8075
 20
67.919999
 42
1.0
 10
101.882501
 20
67.919999
 42
1.0
  0
LWPOLYLINE
  5
29BA
330
A
100
AcDbEntity
  8
TOPOVERLAY
100
AcDbPolyline
 90
        2
 70
     0
 43
0.15
 10
100.044999
 20
66.970001
 10
100.044999
 20
67.919999
  0
LWPOLYLINE
  5
29BE
330
A
100
AcDbEntity
  8
TOPOVERLAY
100
AcDbPolyline
 90
        2
 70
     1
 43
0.074999
 10
100.007499
 20
66.970001
 42
1.0
 10
100.0825
 20
66.970001
 42
1.0
  0
LWPOLYLINE
  5
29C2
330
A
100
AcDbEntity
  8
TOPOVERLAY
100
AcDbPolyline
 90
        2
 70
     1
 43
0.074999
 10
100.007499
 20
67.919999
 42
1.0
 10
100.0825
 20
67.919999
 42
1.0
  0
LWPOLYLINE
  5
29C6
330
A
100
AcDbEntity
  8
TOPOVERLAY
100
AcDbPolyline
 90
        2
 70
     0
 43
0.15
 10
100.044999
 20
67.919999
 10
100.495001
 20
67.919999
  0
LWPOLYLINE
  5
29CA
330
A
100
AcDbEntity
  8
TOPOVERLAY
100
AcDbPolyline
 90
        2
 70
     1
 43
0.074999
 10
100.007499
 20
67.919999
 42
1.0
 10
100.0825
 20
67.919999
 42
1.0
  0
LWPOLYLINE
  5
29CE
330
A
100
AcDbEntity
  8
TOPOVERLAY
100
AcDbPolyline
 90
        2
 70
     1
 43
0.074999
 10
100.4575
 20
67.919999
 42
1.0
 10
100.532501
 20
67.919999
 42
1.0
  0
TEXT
  5
2A0D
330
A
100
AcDbEntity
  8
TOPOVERLAY
100
AcDbText
 10
98.17100000000001
 20
66.294
 30
0.0
 40
0.762
  1
C5
 50
360.0
100
AcDbText
  0
LWPOLYLINE
  5
2A0E
330
A
100
AcDbEntity
  8
TOPOVERLAY
100
AcDbPolyline
 90
        2
 70
     0
 43
0.2
 10
104.445001
 20
71.719999
 10
104.845
 20
71.719999
  0
LWPOLYLINE
  5
2A12
330
A
100
AcDbEntity
  8
TOPOVERLAY
100
AcDbPolyline
 90
        2
 70
     1
 43
0.1
 10
104.395001
 20
71.719999
 42
1.0
 10
104.495001
 20
71.719999
 42
1.0
  0
LWPOLYLINE
  5
2A16
330
A
100
AcDbEntity
  8
TOPOVERLAY
100
AcDbPolyline
 90
        2
 70
     1
 43
0.1
 10
104.795
 20
71.719999
 42
1.0
 10
104.895
 20
71.719999
 42
1.0
  0
LWPOLYLINE
  5
2A1A
330
A
100
AcDbEntity
  8
TOPOVERLAY
100
AcDbPolyline
 90
        2
 70
     0
 43
0.2
 10
104.445001
 20
71.31999999999999
 10
104.445001
 20
71.719999
  0
LWPOLYLINE
  5
2A1E
330
A
100
AcDbEntity
  8
TOPOVERLAY
100
AcDbPolyline
 90
        2
 70
     1
 43
0.1
 10
104.395001
 20
71.31999999999999
 42
1.0
 10
104.495001
 20
71.31999999999999
 42
1.0
  0
LWPOLYLINE
  5
2A22
330
A
100
AcDbEntity
  8
TOPOVERLAY
100
AcDbPolyline
 90
        2
 70
     1
 43
0.1
 10
104.395001
 20
71.719999
 42
1.0
 10
104.495001
 20
71.719999
 42
1.0
  0
LWPOLYLINE
  5
2A26
330
A
100
AcDbEntity
  8
TOPOVERLAY
100
AcDbPolyline
 90
        2
 70
     0
 43
0.2
 10
110.045
 20
71.719999
 10
110.444999
 20
71.719999
  0
LWPOLYLINE
  5
2A2A
330
A
100
AcDbEntity
  8
TOPOVERLAY
100
AcDbPolyline
 90
        2
 70
     1
 43
0.1
 10
109.995
 20
71.719999
 42
1.0
 10
110.095
 20
71.719999
 42
1.0
  0
LWPOLYLINE
  5
2A2E
330
A
100
AcDbEntity
  8
TOPOVERLAY
100
AcDbPolyline
 90
        2
 70
     1
 43
0.1
 10
110.394999
 20
71.719999
 42
1.0
 10
110.494999
 20
71.719999
 42
1.0
  0
LWPOLYLINE
  5
2A32
330
A
100
AcDbEntity
  8
TOPOVERLAY
100
AcDbPolyline
 90
        2
 70
     0
 43
0.2
 10
110.444999
 20
71.31999999999999
 10
110.444999
 20
71.719999
  0
LWPOLYLINE
  5
2A36
330
A
100
AcDbEntity
  8
TOPOVERLAY
100
AcDbPolyline
 90
        2
 70
     1
 43
0.1
 10
110.394999
 20
71.31999999999999
 42
1.0
 10
110.494999
 20
71.31999999999999
 42
1.0
  0
LWPOLYLINE
  5
2A3A
330
A
100
AcDbEntity
  8
TOPOVERLAY
100
AcDbPolyline
 90
        2
 70
     1
 43
0.1
 10
110.394999
 20
71.719999
 42
1.0
 10
110.494999
 20
71.719999
 42
1.0
  0
LWPOLYLINE
  5
2A3E
330
A
100
AcDbEntity
  8
TOPOVERLAY
100
AcDbPolyline
 90
        2
 70
     0
 43
0.2
 10
110.444999
 20
65.720001
 10
110.444999
 20
66.12
  0
LWPOLYLINE
  5
2A42
330
A
100
AcDbEntity
  8
TOPOVERLAY
100
AcDbPolyline
 90
        2
 70
     1
 43
0.1
 10
110.394999
 20
65.720001
 42
1.0
 10
110.494999
 20
65.720001
 42
1.0
  0
LWPOLYLINE
  5
2A46
330
A
100
AcDbEntity
  8
TOPOVERLAY
100
AcDbPolyline
 90
        2
 70
     1
 43
0.1
 10
110.394999
 20
66.12
 42
1.0
 10
110.494999
 20
66.12
 42
1.0
  0
LWPOLYLINE
  5
2A4A
330
A
100
AcDbEntity
  8
TOPOVERLAY
100
AcDbPolyline
 90
        2
 70
     0
 43
0.2
 10
110.045
 20
65.720001
 10
110.444999
 20
65.720001
  0
LWPOLYLINE
  5
2A4E
330
A
100
AcDbEntity
  8
TOPOVERLAY
100
AcDbPolyline
 90
        2
 70
     1
 43
0.1
 10
109.995
 20
65.720001
 42
1.0
 10
110.095
 20
65.720001
 42
1.0
  0
LWPOLYLINE
  5
2A52
330
A
100
AcDbEntity
  8
TOPOVERLAY
100
AcDbPolyline
 90
        2
 70
     1
 43
0.1
 10
110.394999
 20
65.720001
 42
1.0
 10
110.494999
 20
65.720001
 42
1.0
  0
LWPOLYLINE
  5
2A56
330
A
100
AcDbEntity
  8
TOPOVERLAY
100
AcDbPolyline
 90
        2
 70
     0
 43
0.2
 10
104.445001
 20
65.720001
 10
104.445001
 20
66.12
  0
LWPOLYLINE
  5
2A5A
330
A
100
AcDbEntity
  8
TOPOVERLAY
100
AcDbPolyline
 90
        2
 70
     1
 43
0.1
 10
104.395001
 20
65.720001
 42
1.0
 10
104.495001
 20
65.720001
 42
1.0
  0
LWPOLYLINE
  5
2A5E
330
A
100
AcDbEntity
  8
TOPOVERLAY
100
AcDbPolyline
 90
        2
 70
     1
 43
0.1
 10
104.395001
 20
66.12
 42
1.0
 10
104.495001
 20
66.12
 42
1.0
  0
LWPOLYLINE
  5
2A62
330
A
100
AcDbEntity
  8
TOPOVERLAY
100
AcDbPolyline
 90
        2
 70
     0
 43
0.2
 10
104.445001
 20
65.720001
 10
104.845
 20
65.720001
  0
LWPOLYLINE
  5
2A66
330
A
100
AcDbEntity
  8
TOPOVERLAY
100
AcDbPolyline
 90
        2
 70
     1
 43
0.1
 10
104.395001
 20
65.720001
 42
1.0
 10
104.495001
 20
65.720001
 42
1.0
  0
LWPOLYLINE
  5
2A6A
330
A
100
AcDbEntity
  8
TOPOVERLAY
100
AcDbPolyline
 90
        2
 70
     1
 43
0.1
 10
104.795
 20
65.720001
 42
1.0
 10
104.895
 20
65.720001
 42
1.0
  0
LWPOLYLINE
  5
2A6E
330
A
100
AcDbEntity
  8
TOPOVERLAY
100
AcDbPolyline
 90
        2
 70
     0
 43
0.2
 10
104.445001
 20
71.31999999999999
 10
104.845
 20
71.719999
  0
LWPOLYLINE
  5
2A72
330
A
100
AcDbEntity
  8
TOPOVERLAY
100
AcDbPolyline
 90
        2
 70
     1
 43
0.1
 10
104.395001
 20
71.31999999999999
 42
1.0
 10
104.495001
 20
71.31999999999999
 42
1.0
  0
LWPOLYLINE
  5
2A76
330
A
100
AcDbEntity
  8
TOPOVERLAY
100
AcDbPolyline
 90
        2
 70
     1
 43
0.1
 10
104.795
 20
71.719999
 42
1.0
 10
104.895
 20
71.719999
 42
1.0
  0
LWPOLYLINE
  5
2AAA
330
A
100
AcDbEntity
  8
TOPOVERLAY
100
AcDbPolyline
 90
        2
 70
     1
 43
0.254
 10
104.144999
 20
71.419999
 42
1.0
 10
103.944999
 20
71.419999
 42
1.0
  0
LWPOLYLINE
  5
2AAE
330
A
100
AcDbEntity
  8
TOPOVERLAY
100
AcDbPolyline
 90
        2
 70
     1
 43
0.127
 10
104.081499
 20
71.419999
 42
1.0
 10
104.208499
 20
71.419999
 42
1.0
  0
LWPOLYLINE
  5
2AB2
330
A
100
AcDbEntity
  8
TOPOVERLAY
100
AcDbPolyline
 90
        2
 70
     1
 43
0.127
 10
103.881499
 20
71.419999
 42
1.0
 10
104.008499
 20
71.419999
 42
1.0
  0
TEXT
  5
2B51
330
A
100
AcDbEntity
  8
TOPOVERLAY
100
AcDbText
 10
111.887
 20
67.52349999999999
 30
0.0
 40
0.762
  1
U1
 50
360.0
100
AcDbText
  0
LWPOLYLINE
  5
2B52
330
A
100
AcDbEntity
  8
TOPOVERLAY
100
AcDbPolyline
 90
        2
 70
     0
 43
0.15
 10
102.089001
 20
51.25399999999999
 10
102.089001
 20
57.254
  0
LWPOLYLINE
  5
2B56
330
A
100
AcDbEntity
  8
TOPOVERLAY
100
AcDbPolyline
 90
        2
 70
     1
 43
0.074999
 10
102.0515
 20
51.25399999999999
 42
1.0
 10
102.126501
 20
51.25399999999999
 42
1.0
  0
LWPOLYLINE
  5
2B5A
330
A
100
AcDbEntity
  8
TOPOVERLAY
100
AcDbPolyline
 90
        2
 70
     1
 43
0.074999
 10
102.0515
 20
57.254
 42
1.0
 10
102.126501
 20
57.254
 42
1.0
  0
LWPOLYLINE
  5
2B5E
330
A
100
AcDbEntity
  8
TOPOVERLAY
100
AcDbPolyline
 90
        2
 70
     0
 43
0.15
 10
102.089001
 20
57.254
 10
112.689
 20
57.254
  0
LWPOLYLINE
  5
2B62
330
A
100
AcDbEntity
  8
TOPOVERLAY
100
AcDbPolyline
 90
        2
 70
     1
 43
0.074999
 10
102.0515
 20
57.254
 42
1.0
 10
102.126501
 20
57.254
 42
1.0
  0
LWPOLYLINE
  5
2B66
330
A
100
AcDbEntity
  8
TOPOVERLAY
100
AcDbPolyline
 90
        2
 70
     1
 43
0.074999
 10
112.651499
 20
57.254
 42
1.0
 10
112.7265
 20
57.254
 42
1.0
  0
LWPOLYLINE
  5
2B6A
330
A
100
AcDbEntity
  8
TOPOVERLAY
100
AcDbPolyline
 90
        2
 70
     0
 43
0.15
 10
112.689
 20
51.25399999999999
 10
112.689
 20
57.254
  0
LWPOLYLINE
  5
2B6E
330
A
100
AcDbEntity
  8
TOPOVERLAY
100
AcDbPolyline
 90
        2
 70
     1
 43
0.074999
 10
112.651499
 20
51.25399999999999
 42
1.0
 10
112.7265
 20
51.25399999999999
 42
1.0
  0
LWPOLYLINE
  5
2B72
330
A
100
AcDbEntity
  8
TOPOVERLAY
100
AcDbPolyline
 90
        2
 70
     1
 43
0.074999
 10
112.651499
 20
57.254
 42
1.0
 10
112.7265
 20
57.254
 42
1.0
  0
TEXT
  5
2C75
330
A
100
AcDbEntity
  8
TOPOVERLAY
100
AcDbText
 10
111.633
 20
57.658
 30
0.0
 40
0.762
  1
J1
 50
360.0
100
AcDbText
  0
LWPOLYLINE
  5
2C76
330
A
100
AcDbEntity
  8
TOPOVERLAY
100
AcDbPolyline
 90
        2
 70
     0
 43
0.15
 10
103.170002
 20
63.872999
 10
103.620001
 20
63.872999
  0
LWPOLYLINE
  5
2C7A
330
A
100
AcDbEntity
  8
TOPOVERLAY
100
AcDbPolyline
 90
        2
 70
     1
 43
0.074999
 10
103.132501
 20
63.872999
 42
1.0
 10
103.207502
 20
63.872999
 42
1.0
  0
LWPOLYLINE
  5
2C7E
330
A
100
AcDbEntity
  8
TOPOVERLAY
100
AcDbPolyline
 90
        2
 70
     1
 43
0.074999
 10
103.5825
 20
63.872999
 42
1.0
 10
103.657502
 20
63.872999
 42
1.0
  0
LWPOLYLINE
  5
2C82
330
A
100
AcDbEntity
  8
TOPOVERLAY
100
AcDbPolyline
 90
        2
 70
     0
 43
0.15
 10
103.620001
 20
63.772999
 10
103.620001
 20
63.872999
  0
LWPOLYLINE
  5
2C86
330
A
100
AcDbEntity
  8
TOPOVERLAY
100
AcDbPolyline
 90
        2
 70
     1
 43
0.074999
 10
103.5825
 20
63.772999
 42
1.0
 10
103.657502
 20
63.772999
 42
1.0
  0
LWPOLYLINE
  5
2C8A
330
A
100
AcDbEntity
  8
TOPOVERLAY
100
AcDbPolyline
 90
        2
 70
     1
 43
0.074999
 10
103.5825
 20
63.872999
 42
1.0
 10
103.657502
 20
63.872999
 42
1.0
  0
LWPOLYLINE
  5
2C8E
330
A
100
AcDbEntity
  8
TOPOVERLAY
100
AcDbPolyline
 90
        2
 70
     0
 43
0.15
 10
101.82
 20
63.872999
 10
102.269999
 20
63.872999
  0
LWPOLYLINE
  5
2C92
330
A
100
AcDbEntity
  8
TOPOVERLAY
100
AcDbPolyline
 90
        2
 70
     1
 43
0.074999
 10
101.782499
 20
63.872999
 42
1.0
 10
101.8575
 20
63.872999
 42
1.0
  0
LWPOLYLINE
  5
2C96
330
A
100
AcDbEntity
  8
TOPOVERLAY
100
AcDbPolyline
 90
        2
 70
     1
 43
0.074999
 10
102.232498
 20
63.872999
 42
1.0
 10
102.307499
 20
63.872999
 42
1.0
  0
LWPOLYLINE
  5
2C9A
330
A
100
AcDbEntity
  8
TOPOVERLAY
100
AcDbPolyline
 90
        2
 70
     0
 43
0.15
 10
101.82
 20
62.873001
 10
101.82
 20
63.872999
  0
LWPOLYLINE
  5
2C9E
330
A
100
AcDbEntity
  8
TOPOVERLAY
100
AcDbPolyline
 90
        2
 70
     1
 43
0.074999
 10
101.782499
 20
62.873001
 42
1.0
 10
101.8575
 20
62.873001
 42
1.0
  0
LWPOLYLINE
  5
2CA2
330
A
100
AcDbEntity
  8
TOPOVERLAY
100
AcDbPolyline
 90
        2
 70
     1
 43
0.074999
 10
101.782499
 20
63.872999
 42
1.0
 10
101.8575
 20
63.872999
 42
1.0
  0
LWPOLYLINE
  5
2CA6
330
A
100
AcDbEntity
  8
TOPOVERLAY
100
AcDbPolyline
 90
        2
 70
     0
 43
0.15
 10
101.82
 20
62.873001
 10
102.220001
 20
62.873001
  0
LWPOLYLINE
  5
2CAA
330
A
100
AcDbEntity
  8
TOPOVERLAY
100
AcDbPolyline
 90
        2
 70
     1
 43
0.074999
 10
101.782499
 20
62.873001
 42
1.0
 10
101.8575
 20
62.873001
 42
1.0
  0
LWPOLYLINE
  5
2CAE
330
A
100
AcDbEntity
  8
TOPOVERLAY
100
AcDbPolyline
 90
        2
 70
     1
 43
0.074999
 10
102.182501
 20
62.873001
 42
1.0
 10
102.257502
 20
62.873001
 42
1.0
  0
LWPOLYLINE
  5
2CB2
330
A
100
AcDbEntity
  8
TOPOVERLAY
100
AcDbPolyline
 90
        2
 70
     0
 43
0.15
 10
103.620001
 20
62.873001
 10
103.620001
 20
63.82299899999999
  0
LWPOLYLINE
  5
2CB6
330
A
100
AcDbEntity
  8
TOPOVERLAY
100
AcDbPolyline
 90
        2
 70
     1
 43
0.074999
 10
103.5825
 20
62.873001
 42
1.0
 10
103.657502
 20
62.873001
 42
1.0
  0
LWPOLYLINE
  5
2CBA
330
A
100
AcDbEntity
  8
TOPOVERLAY
100
AcDbPolyline
 90
        2
 70
     1
 43
0.074999
 10
103.5825
 20
63.82299899999999
 42
1.0
 10
103.657502
 20
63.82299899999999
 42
1.0
  0
LWPOLYLINE
  5
2CBE
330
A
100
AcDbEntity
  8
TOPOVERLAY
100
AcDbPolyline
 90
        2
 70
     0
 43
0.15
 10
103.170002
 20
62.873001
 10
103.620001
 20
62.873001
  0
LWPOLYLINE
  5
2CC2
330
A
100
AcDbEntity
  8
TOPOVERLAY
100
AcDbPolyline
 90
        2
 70
     1
 43
0.074999
 10
103.132501
 20
62.873001
 42
1.0
 10
103.207502
 20
62.873001
 42
1.0
  0
LWPOLYLINE
  5
2CC6
330
A
100
AcDbEntity
  8
TOPOVERLAY
100
AcDbPolyline
 90
        2
 70
     1
 43
0.074999
 10
103.5825
 20
62.873001
 42
1.0
 10
103.657502
 20
62.873001
 42
1.0
  0
LWPOLYLINE
  5
2D05
330
A
100
AcDbEntity
  8
TOPOVERLAY
100
AcDbPolyline
 90
        2
 70
     0
 43
0.15
 10
99.04500099999999
 20
70.681002
 10
99.04500099999999
 20
71.131001
  0
LWPOLYLINE
  5
2D09
330
A
100
AcDbEntity
  8
TOPOVERLAY
100
AcDbPolyline
 90
        2
 70
     1
 43
0.074999
 10
99.00750100000001
 20
70.681002
 42
1.0
 10
99.08250200000001
 20
70.681002
 42
1.0
  0
LWPOLYLINE
  5
2D0D
330
A
100
AcDbEntity
  8
TOPOVERLAY
100
AcDbPolyline
 90
        2
 70
     1
 43
0.074999
 10
99.00750100000001
 20
71.131001
 42
1.0
 10
99.08250200000001
 20
71.131001
 42
1.0
  0
LWPOLYLINE
  5
2D11
330
A
100
AcDbEntity
  8
TOPOVERLAY
100
AcDbPolyline
 90
        2
 70
     0
 43
0.15
 10
99.04500099999999
 20
71.131001
 10
99.14500100000001
 20
71.131001
  0
LWPOLYLINE
  5
2D15
330
A
100
AcDbEntity
  8
TOPOVERLAY
100
AcDbPolyline
 90
        2
 70
     1
 43
0.074999
 10
99.00750100000001
 20
71.131001
 42
1.0
 10
99.08250200000001
 20
71.131001
 42
1.0
  0
LWPOLYLINE
  5
2D19
330
A
100
AcDbEntity
  8
TOPOVERLAY
100
AcDbPolyline
 90
        2
 70
     1
 43
0.074999
 10
99.10750100000001
 20
71.131001
 42
1.0
 10
99.18250200000001
 20
71.131001
 42
1.0
  0
LWPOLYLINE
  5
2D1D
330
A
100
AcDbEntity
  8
TOPOVERLAY
100
AcDbPolyline
 90
        2
 70
     0
 43
0.15
 10
99.04500099999999
 20
69.33099900000001
 10
99.04500099999999
 20
69.78099799999999
  0
LWPOLYLINE
  5
2D21
330
A
100
AcDbEntity
  8
TOPOVERLAY
100
AcDbPolyline
 90
        2
 70
     1
 43
0.074999
 10
99.00750100000001
 20
69.33099900000001
 42
1.0
 10
99.08250200000001
 20
69.33099900000001
 42
1.0
  0
LWPOLYLINE
  5
2D25
330
A
100
AcDbEntity
  8
TOPOVERLAY
100
AcDbPolyline
 90
        2
 70
     1
 43
0.074999
 10
99.00750100000001
 20
69.78099799999999
 42
1.0
 10
99.08250200000001
 20
69.78099799999999
 42
1.0
  0
LWPOLYLINE
  5
2D29
330
A
100
AcDbEntity
  8
TOPOVERLAY
100
AcDbPolyline
 90
        2
 70
     0
 43
0.15
 10
99.04500099999999
 20
69.33099900000001
 10
100.044999
 20
69.33099900000001
  0
LWPOLYLINE
  5
2D2D
330
A
100
AcDbEntity
  8
TOPOVERLAY
100
AcDbPolyline
 90
        2
 70
     1
 43
0.074999
 10
99.00750100000001
 20
69.33099900000001
 42
1.0
 10
99.08250200000001
 20
69.33099900000001
 42
1.0
  0
LWPOLYLINE
  5
2D31
330
A
100
AcDbEntity
  8
TOPOVERLAY
100
AcDbPolyline
 90
        2
 70
     1
 43
0.074999
 10
100.007499
 20
69.33099900000001
 42
1.0
 10
100.0825
 20
69.33099900000001
 42
1.0
  0
LWPOLYLINE
  5
2D35
330
A
100
AcDbEntity
  8
TOPOVERLAY
100
AcDbPolyline
 90
        2
 70
     0
 43
0.15
 10
100.044999
 20
69.33099900000001
 10
100.044999
 20
69.731001
  0
LWPOLYLINE
  5
2D39
330
A
100
AcDbEntity
  8
TOPOVERLAY
100
AcDbPolyline
 90
        2
 70
     1
 43
0.074999
 10
100.007499
 20
69.33099900000001
 42
1.0
 10
100.0825
 20
69.33099900000001
 42
1.0
  0
LWPOLYLINE
  5
2D3D
330
A
100
AcDbEntity
  8
TOPOVERLAY
100
AcDbPolyline
 90
        2
 70
     1
 43
0.074999
 10
100.007499
 20
69.731001
 42
1.0
 10
100.0825
 20
69.731001
 42
1.0
  0
LWPOLYLINE
  5
2D41
330
A
100
AcDbEntity
  8
TOPOVERLAY
100
AcDbPolyline
 90
        2
 70
     0
 43
0.15
 10
99.095001
 20
71.131001
 10
100.044999
 20
71.131001
  0
LWPOLYLINE
  5
2D45
330
A
100
AcDbEntity
  8
TOPOVERLAY
100
AcDbPolyline
 90
        2
 70
     1
 43
0.074999
 10
99.057501
 20
71.131001
 42
1.0
 10
99.132502
 20
71.131001
 42
1.0
  0
LWPOLYLINE
  5
2D49
330
A
100
AcDbEntity
  8
TOPOVERLAY
100
AcDbPolyline
 90
        2
 70
     1
 43
0.074999
 10
100.007499
 20
71.131001
 42
1.0
 10
100.0825
 20
71.131001
 42
1.0
  0
LWPOLYLINE
  5
2D4D
330
A
100
AcDbEntity
  8
TOPOVERLAY
100
AcDbPolyline
 90
        2
 70
     0
 43
0.15
 10
100.044999
 20
70.681002
 10
100.044999
 20
71.131001
  0
LWPOLYLINE
  5
2D51
330
A
100
AcDbEntity
  8
TOPOVERLAY
100
AcDbPolyline
 90
        2
 70
     1
 43
0.074999
 10
100.007499
 20
70.681002
 42
1.0
 10
100.0825
 20
70.681002
 42
1.0
  0
LWPOLYLINE
  5
2D55
330
A
100
AcDbEntity
  8
TOPOVERLAY
100
AcDbPolyline
 90
        2
 70
     1
 43
0.074999
 10
100.007499
 20
71.131001
 42
1.0
 10
100.0825
 20
71.131001
 42
1.0
  0
TEXT
  5
2D94
330
A
100
AcDbEntity
  8
TOPOVERLAY
100
AcDbText
 10
98.80600000000001
 20
69.723
 30
0.0
 40
0.762
  1
C4
 50
90.0
100
AcDbText
  0
TEXT
  5
2DB2
330
A
100
AcDbEntity
  8
TOPOVERLAY
100
AcDbText
 10
108.331
 20
75.31100000000001
 30
0.0
 40
0.762
  1
TP2
 50
90.0
100
AcDbText
  0
ENDSEC
  0
SECTION
  2
OBJECTS
  0
DICTIONARY
  5
19
330
0
100
AcDbDictionary
281
     1
  3
ACAD_CIP_PREVIOUS_PRODUCT_INFO
350
2E08
  3
ACAD_COLOR
350
2DEC
  3
ACAD_GROUP
350
1A
  3
ACAD_LAYOUT
350
2E03
  3
ACAD_MATERIAL
350
2DBA
  3
ACAD_MLEADERSTYLE
350
2E01
  3
ACAD_MLINESTYLE
350
1B
  3
ACAD_PLOTSETTINGS
350
2E04
  3
ACAD_PLOTSTYLENAME
350
2DB8
  3
ACAD_SCALELIST
350
2DEF
  3
ACAD_TABLESTYLE
350
2DED
  3
ACAD_VISUALSTYLE
350
2DD3
  3
ACDB_RECOMPOSE_DATA
350
2E2A
  3
AcDbVariableDictionary
350
2E20
  3
ASE_INDEX_DICTIONARY
350
2E0C
  0
XRECORD
  5
2E08
102
{ACAD_REACTORS
330
19
102
}
330
19
100
AcDbXrecord
280
     1
300
AMECH_PP
300
2012
300
PDSU_F_S
  0
DICTIONARY
  5
2DEC
102
{ACAD_REACTORS
330
19
102
}
330
19
100
AcDbDictionary
281
     1
  0
DICTIONARY
  5
1A
102
{ACAD_REACTORS
330
19
102
}
330
19
100
AcDbDictionary
281
     1
  0
DICTIONARY
  5
2E03
102
{ACAD_REACTORS
330
19
102
}
330
19
100
AcDbDictionary
281
     1
  3
Layout1
350
2E06
  3
Model
350
2E05
  0
DICTIONARY
  5
2DBA
102
{ACAD_REACTORS
330
19
102
}
330
19
100
AcDbDictionary
281
     1
  3
ByBlock
350
2DC3
  3
ByLayer
350
2DBB
  3
Global
350
2DCB
  0
DICTIONARY
  5
2E01
102
{ACAD_REACTORS
330
19
102
}
330
19
100
AcDbDictionary
281
     1
  3
Standard
350
2E02
  0
DICTIONARY
  5
1B
102
{ACAD_REACTORS
330
19
102
}
330
19
100
AcDbDictionary
281
     1
  3
STANDARD
350
1C
  0
DICTIONARY
  5
2E04
102
{ACAD_REACTORS
330
19
102
}
330
19
100
AcDbDictionary
281
     1
  0
ACDBDICTIONARYWDFLT
  5
2DB8
102
{ACAD_REACTORS
330
19
102
}
330
19
100
AcDbDictionary
281
     1
  3
Normal
350
2DB9
100
AcDbDictionaryWithDefault
340
2DB9
  0
DICTIONARY
  5
2DEF
102
{ACAD_REACTORS
330
19
102
}
330
19
100
AcDbDictionary
281
     1
  3
A0
350
2DF0
  3
A1
350
2DF1
  3
A2
350
2DF2
  3
A3
350
2DF3
  3
A4
350
2DF4
  3
A5
350
2DF5
  3
A6
350
2DF6
  3
A7
350
2DF7
  3
A8
350
2DF8
  3
A9
350
2DF9
  3
B0
350
2DFA
  3
B1
350
2DFB
  3
B2
350
2DFC
  3
B3
350
2DFD
  3
B4
350
2DFE
  3
B5
350
2DFF
  3
B6
350
2E00
  0
DICTIONARY
  5
2DED
102
{ACAD_REACTORS
330
19
102
}
330
19
100
AcDbDictionary
281
     1
  3
Standard
350
2DEE
  0
DICTIONARY
  5
2DD3
102
{ACAD_REACTORS
330
19
102
}
330
19
100
AcDbDictionary
281
     1
  3
2dWireframe
350
2DD9
  3
Basic
350
2DD8
  3
Brighten
350
2DDF
  3
ColorChange
350
2DE3
  3
Conceptual
350
2DDC
  3
Dim
350
2DDE
  3
EdgeColorOff
350
2DEB
  3
Facepattern
350
2DE2
  3
Flat
350
2DD4
  3
FlatWithEdges
350
2DD5
  3
Gouraud
350
2DD6
  3
GouraudWithEdges
350
2DD7
  3
Hidden
350
2DDB
  3
JitterOff
350
2DE9
  3
Linepattern
350
2DE1
  3
OverhangOff
350
2DEA
  3
Realistic
350
2DDD
  3
Shaded
350
2DE8
  3
Shaded with edges
350
2DE7
  3
Shades of Gray
350
2DE4
  3
Sketchy
350
2DE5
  3
Thicken
350
2DE0
  3
Wireframe
350
2DDA
  3
X-Ray
350
2DE6
  0
XRECORD
  5
2E2A
102
{ACAD_REACTORS
330
19
102
}
330
19
100
AcDbXrecord
280
     1
 90
        1
330
2DEE
  0
DICTIONARY
  5
2E20
102
{ACAD_REACTORS
330
19
102
}
330
19
100
AcDbDictionary
281
     1
  3
CANNOSCALE
350
2E24
  3
CMLEADERSTYLE
350
2E22
  3
CTABLESTYLE
350
2E21
  3
LAYEREVAL
350
2E26
  3
LAYERNOTIFY
350
2E27
  3
LIGHTINGUNITS
350
2E25
  3
MSLTSCALE
350
2E23
  0
DICTIONARY
  5
2E0C
102
{ACAD_REACTORS
330
19
102
}
330
19
100
AcDbDictionary
281
     1
  3
ASEBlockHierarchyIndexRecord
350
2E0E
1001
DCO15
1040
1815456138.432
  0
LAYOUT
  5
2E06
102
{ACAD_REACTORS
330
2E03
102
}
330
2E03
100
AcDbPlotSettings
  1

  2
Send To OneNote 2010
  4

  6

 40
0.0
 41
0.0
 42
0.0
 43
0.0
 44
0.0
 45
0.0
 46
0.0
 47
0.0
 48
0.0
 49
0.0
140
0.0
141
0.0
142
1.0
143
1.0
 70
   688
 72
     0
 73
     0
 74
     5
  7

 75
    16
147
1.0
 76
     0
 77
     2
 78
   300
148
0.0
149
0.0
100
AcDbLayout
  1
Layout1
 70
     0
 71
     1
 10
0.0
 20
0.0
 11
12.0
 21
9.0
 12
0.0
 22
0.0
 32
0.0
 14
1.000000000000000E+20
 24
1.000000000000000E+20
 34
1.000000000000000E+20
 15
-1.000000000000000E+20
 25
-1.000000000000000E+20
 35
-1.000000000000000E+20
146
0.0
 13
0.0
 23
0.0
 33
0.0
 16
1.0
 26
0.0
 36
0.0
 17
0.0
 27
1.0
 37
0.0
 76
     0
330
B
  0
LAYOUT
  5
2E05
102
{ACAD_REACTORS
330
2E03
102
}
330
2E03
100
AcDbPlotSettings
  1

  2
Send To OneNote 2010
  4

  6

 40
0.0
 41
0.0
 42
0.0
 43
0.0
 44
0.0
 45
0.0
 46
0.0
 47
0.0
 48
0.0
 49
0.0
140
0.0
141
0.0
142
1.0
143
1.0
 70
  1712
 72
     0
 73
     0
 74
     0
  7

 75
     0
147
1.0
 76
     0
 77
     2
 78
   300
148
0.0
149
0.0
100
AcDbLayout
  1
Model
 70
     1
 71
     0
 10
0.0
 20
0.0
 11
12.0
 21
9.0
 12
0.0
 22
0.0
 32
0.0
 14
0.0
 24
0.0
 34
0.0
 15
0.0
 25
0.0
 35
0.0
146
0.0
 13
0.0
 23
0.0
 33
0.0
 16
1.0
 26
0.0
 36
0.0
 17
0.0
 27
1.0
 37
0.0
 76
     0
330
A
331
15
  0
MATERIAL
  5
2DC3
102
{ACAD_XDICTIONARY
360
2DC4
102
}
102
{ACAD_REACTORS
330
2DBA
102
}
330
2DBA
100
AcDbMaterial
  1
ByBlock
 72
     0
 43
0.0208333333333333
 43
0.0
 43
0.0
 43
0.0
 43
0.0
 43
0.0208333333333333
 43
0.0
 43
0.0
 43
0.0
 43
0.0
 43
1.0
 43
0.0
 43
0.0
 43
0.0
 43
0.0
 43
1.0
 77
     0
 47
0.0208333333333333
 47
0.0
 47
0.0
 47
0.0
 47
0.0
 47
0.0208333333333333
 47
0.0
 47
0.0
 47
0.0
 47
0.0
 47
1.0
 47
0.0
 47
0.0
 47
0.0
 47
0.0
 47
1.0
171
     0
 49
0.0208333333333333
 49
0.0
 49
0.0
 49
0.0
 49
0.0
 49
0.0208333333333333
 49
0.0
 49
0.0
 49
0.0
 49
0.0
 49
1.0
 49
0.0
 49
0.0
 49
0.0
 49
0.0
 49
1.0
175
     0
142
0.0208333333333333
142
0.0
142
0.0
142
0.0
142
0.0
142
0.0208333333333333
142
0.0
142
0.0
142
0.0
142
0.0
142
1.0
142
0.0
142
0.0
142
0.0
142
0.0
142
1.0
179
     0
144
0.0208333333333333
144
0.0
144
0.0
144
0.0
144
0.0
144
0.0208333333333333
144
0.0
144
0.0
144
0.0
144
0.0
144
1.0
144
0.0
144
0.0
144
0.0
144
0.0
144
1.0
147
0.0208333333333333
147
0.0
147
0.0
147
0.0
147
0.0
147
0.0208333333333333
147
0.0
147
0.0
147
0.0
147
0.0
147
1.0
147
0.0
147
0.0
147
0.0
147
0.0
147
1.0
  0
MATERIAL
  5
2DBB
102
{ACAD_XDICTIONARY
360
2DBC
102
}
102
{ACAD_REACTORS
330
2DBA
102
}
330
2DBA
100
AcDbMaterial
  1
ByLayer
 72
     0
 43
0.0208333333333333
 43
0.0
 43
0.0
 43
0.0
 43
0.0
 43
0.0208333333333333
 43
0.0
 43
0.0
 43
0.0
 43
0.0
 43
1.0
 43
0.0
 43
0.0
 43
0.0
 43
0.0
 43
1.0
 77
     0
 47
0.0208333333333333
 47
0.0
 47
0.0
 47
0.0
 47
0.0
 47
0.0208333333333333
 47
0.0
 47
0.0
 47
0.0
 47
0.0
 47
1.0
 47
0.0
 47
0.0
 47
0.0
 47
0.0
 47
1.0
171
     0
 49
0.0208333333333333
 49
0.0
 49
0.0
 49
0.0
 49
0.0
 49
0.0208333333333333
 49
0.0
 49
0.0
 49
0.0
 49
0.0
 49
1.0
 49
0.0
 49
0.0
 49
0.0
 49
0.0
 49
1.0
175
     0
142
0.0208333333333333
142
0.0
142
0.0
142
0.0
142
0.0
142
0.0208333333333333
142
0.0
142
0.0
142
0.0
142
0.0
142
1.0
142
0.0
142
0.0
142
0.0
142
0.0
142
1.0
179
     0
144
0.0208333333333333
144
0.0
144
0.0
144
0.0
144
0.0
144
0.0208333333333333
144
0.0
144
0.0
144
0.0
144
0.0
144
1.0
144
0.0
144
0.0
144
0.0
144
0.0
144
1.0
147
0.0208333333333333
147
0.0
147
0.0
147
0.0
147
0.0
147
0.0208333333333333
147
0.0
147
0.0
147
0.0
147
0.0
147
1.0
147
0.0
147
0.0
147
0.0
147
0.0
147
1.0
  0
MATERIAL
  5
2DCB
102
{ACAD_XDICTIONARY
360
2DCC
102
}
102
{ACAD_REACTORS
330
2DBA
102
}
330
2DBA
100
AcDbMaterial
  1
Global
 72
     0
 43
0.0208333333333333
 43
0.0
 43
0.0
 43
0.0
 43
0.0
 43
0.0208333333333333
 43
0.0
 43
0.0
 43
0.0
 43
0.0
 43
1.0
 43
0.0
 43
0.0
 43
0.0
 43
0.0
 43
1.0
 77
     0
 47
0.0208333333333333
 47
0.0
 47
0.0
 47
0.0
 47
0.0
 47
0.0208333333333333
 47
0.0
 47
0.0
 47
0.0
 47
0.0
 47
1.0
 47
0.0
 47
0.0
 47
0.0
 47
0.0
 47
1.0
171
     0
 49
0.0208333333333333
 49
0.0
 49
0.0
 49
0.0
 49
0.0
 49
0.0208333333333333
 49
0.0
 49
0.0
 49
0.0
 49
0.0
 49
1.0
 49
0.0
 49
0.0
 49
0.0
 49
0.0
 49
1.0
175
     0
142
0.0208333333333333
142
0.0
142
0.0
142
0.0
142
0.0
142
0.0208333333333333
142
0.0
142
0.0
142
0.0
142
0.0
142
1.0
142
0.0
142
0.0
142
0.0
142
0.0
142
1.0
179
     0
144
0.0208333333333333
144
0.0
144
0.0
144
0.0
144
0.0
144
0.0208333333333333
144
0.0
144
0.0
144
0.0
144
0.0
144
1.0
144
0.0
144
0.0
144
0.0
144
0.0
144
1.0
147
0.0208333333333333
147
0.0
147
0.0
147
0.0
147
0.0
147
0.0208333333333333
147
0.0
147
0.0
147
0.0
147
0.0
147
1.0
147
0.0
147
0.0
147
0.0
147
0.0
147
1.0
  0
MLEADERSTYLE
  5
2E02
102
{ACAD_REACTORS
330
2E01
102
}
330
2E01
100
AcDbMLeaderStyle
179
     2
170
     2
171
     1
172
     0
 90
        2
 40
0.0
 41
0.0
173
     1
 91
-1056964608
340
11
 92
       -2
290
     1
 42
0.09
291
     1
 43
0.36
  3
Standard
 44
0.18
300

342
17
174
     1
178
     6
175
     1
176
     0
 93
-1056964608
 45
0.18
292
     0
297
     0
 46
0.18
 94
-1056964608
 47
1.0
 49
1.0
140
1.0
293
     1
141
0.0
294
     1
177
     0
142
1.0
295
     0
296
     0
143
0.125
271
     0
272
     9
273
     9
  0
MLINESTYLE
  5
1C
102
{ACAD_REACTORS
330
1B
102
}
330
1B
100
AcDbMlineStyle
  2
STANDARD
 70
     0
  3

 62
     0
 51
90.0
 52
90.0
 71
     2
 49
0.5
 62
   256
  6
BYLAYER
 49
-0.5
 62
   256
  6
BYLAYER
  0
ACDBPLACEHOLDER
  5
2DB9
102
{ACAD_REACTORS
330
2DB8
102
}
330
2DB8
  0
SCALE
  5
2DF0
102
{ACAD_REACTORS
330
2DEF
102
}
330
2DEF
100
AcDbScale
 70
     0
300
1:1
140
1.0
141
1.0
290
     1
  0
SCALE
  5
2DF1
102
{ACAD_REACTORS
330
2DEF
102
}
330
2DEF
100
AcDbScale
 70
     0
300
1/128" = 1'-0"
140
0.0078125
141
12.0
290
     0
  0
SCALE
  5
2DF2
102
{ACAD_REACTORS
330
2DEF
102
}
330
2DEF
100
AcDbScale
 70
     0
300
1/64" = 1'-0"
140
0.015625
141
12.0
290
     0
  0
SCALE
  5
2DF3
102
{ACAD_REACTORS
330
2DEF
102
}
330
2DEF
100
AcDbScale
 70
     0
300
1/32" = 1'-0"
140
0.03125
141
12.0
290
     0
  0
SCALE
  5
2DF4
102
{ACAD_REACTORS
330
2DEF
102
}
330
2DEF
100
AcDbScale
 70
     0
300
1/16" = 1'-0"
140
0.0625
141
12.0
290
     0
  0
SCALE
  5
2DF5
102
{ACAD_REACTORS
330
2DEF
102
}
330
2DEF
100
AcDbScale
 70
     0
300
3/32" = 1'-0"
140
0.09375
141
12.0
290
     0
  0
SCALE
  5
2DF6
102
{ACAD_REACTORS
330
2DEF
102
}
330
2DEF
100
AcDbScale
 70
     0
300
1/8" = 1'-0"
140
0.125
141
12.0
290
     0
  0
SCALE
  5
2DF7
102
{ACAD_REACTORS
330
2DEF
102
}
330
2DEF
100
AcDbScale
 70
     0
300
3/16" = 1'-0"
140
0.1875
141
12.0
290
     0
  0
SCALE
  5
2DF8
102
{ACAD_REACTORS
330
2DEF
102
}
330
2DEF
100
AcDbScale
 70
     0
300
1/4" = 1'-0"
140
0.25
141
12.0
290
     0
  0
SCALE
  5
2DF9
102
{ACAD_REACTORS
330
2DEF
102
}
330
2DEF
100
AcDbScale
 70
     0
300
3/8" = 1'-0"
140
0.375
141
12.0
290
     0
  0
SCALE
  5
2DFA
102
{ACAD_REACTORS
330
2DEF
102
}
330
2DEF
100
AcDbScale
 70
     0
300
1/2" = 1'-0"
140
0.5
141
12.0
290
     0
  0
SCALE
  5
2DFB
102
{ACAD_REACTORS
330
2DEF
102
}
330
2DEF
100
AcDbScale
 70
     0
300
3/4" = 1'-0"
140
0.75
141
12.0
290
     0
  0
SCALE
  5
2DFC
102
{ACAD_REACTORS
330
2DEF
102
}
330
2DEF
100
AcDbScale
 70
     0
300
1" = 1'-0"
140
1.0
141
12.0
290
     0
  0
SCALE
  5
2DFD
102
{ACAD_REACTORS
330
2DEF
102
}
330
2DEF
100
AcDbScale
 70
     0
300
1-1/2" = 1'-0"
140
1.5
141
12.0
290
     0
  0
SCALE
  5
2DFE
102
{ACAD_REACTORS
330
2DEF
102
}
330
2DEF
100
AcDbScale
 70
     0
300
3" = 1'-0"
140
3.0
141
12.0
290
     0
  0
SCALE
  5
2DFF
102
{ACAD_REACTORS
330
2DEF
102
}
330
2DEF
100
AcDbScale
 70
     0
300
6" = 1'-0"
140
6.0
141
12.0
290
     0
  0
SCALE
  5
2E00
102
{ACAD_REACTORS
330
2DEF
102
}
330
2DEF
100
AcDbScale
 70
     0
300
1'-0" = 1'-0"
140
12.0
141
12.0
290
     0
  0
TABLESTYLE
  5
2DEE
102
{ACAD_XDICTIONARY
360
2E28
102
}
102
{ACAD_REACTORS
330
2DED
102
}
330
2DED
100
AcDbTableStyle
280
     0
  3
Standard
 70
     0
 71
     0
 40
0.06
 41
0.06
280
     0
281
     0
  7
STANDARD
140
0.18
170
     2
 62
     0
 63
     7
283
     0
 90
      512
 91
        0
  1

274
    -2
284
     1
 64
     0
275
    -2
285
     1
 65
     0
276
    -2
286
     1
 66
     0
277
    -2
287
     1
 67
     0
278
    -2
288
     1
 68
     0
279
    -2
289
     1
 69
     0
  7
STANDARD
140
0.25
170
     5
 62
     0
 63
     7
283
     0
 90
      512
 91
        0
  1

274
    -2
284
     1
 64
     0
275
    -2
285
     1
 65
     0
276
    -2
286
     1
 66
     0
277
    -2
287
     1
 67
     0
278
    -2
288
     1
 68
     0
279
    -2
289
     1
 69
     0
  7
STANDARD
140
0.18
170
     5
 62
     0
 63
     7
283
     0
 90
      512
 91
        0
  1

274
    -2
284
     1
 64
     0
275
    -2
285
     1
 65
     0
276
    -2
286
     1
 66
     0
277
    -2
287
     1
 67
     0
278
    -2
288
     1
 68
     0
279
    -2
289
     1
 69
     0
  0
VISUALSTYLE
  5
2DD9
102
{ACAD_REACTORS
330
2DD3
102
}
330
2DD3
100
AcDbVisualStyle
  2
2dWireframe
 70
     4
177
     2
291
     0
 71
     0
176
     1
 72
     2
176
     1
 73
     0
176
     1
 90
        0
176
     1
 40
0.6
176
     1
 41
30.0
176
     1
 63
     7
421
 16777215
176
     1
 74
     1
176
     1
 91
        4
176
     1
 64
     7
176
     1
 65
   257
176
     1
 75
     1
176
     1
175
     1
176
     1
 42
1.0
176
     1
 92
        0
176
     1
 66
   257
176
     1
 43
1.0
176
     1
 76
     1
176
     1
 77
     6
176
     1
 78
     2
176
     1
 67
     7
176
     1
 79
     5
176
     1
170
     0
176
     1
171
     0
176
     1
290
     0
176
     1
 93
        1
176
     1
 44
0.0
176
     1
173
     0
176
     1
  0
VISUALSTYLE
  5
2DD8
102
{ACAD_REACTORS
330
2DD3
102
}
330
2DD3
100
AcDbVisualStyle
  2
Basic
 70
     7
177
     2
291
     1
 71
     1
176
     1
 72
     0
176
     1
 73
     1
176
     1
 90
        0
176
     1
 40
0.6
176
     1
 41
30.0
176
     1
 63
     7
421
 16777215
176
     1
 74
     0
176
     1
 91
        4
176
     1
 64
     7
176
     1
 65
   257
176
     1
 75
     1
176
     1
175
     1
176
     1
 42
1.0
176
     1
 92
        8
176
     1
 66
     7
176
     1
 43
1.0
176
     1
 76
     1
176
     1
 77
     6
176
     1
 78
     2
176
     1
 67
     7
176
     1
 79
     5
176
     1
170
     0
176
     1
171
     0
176
     1
290
     0
176
     1
 93
        1
176
     1
 44
0.0
176
     1
173
     0
176
     1
  0
VISUALSTYLE
  5
2DDF
102
{ACAD_REACTORS
330
2DD3
102
}
330
2DD3
100
AcDbVisualStyle
  2
Brighten
 70
    12
177
     2
291
     1
 71
     2
176
     1
 72
     2
176
     1
 73
     0
176
     1
 90
        0
176
     1
 40
0.6
176
     1
 41
30.0
176
     1
 63
     7
421
 16777215
176
     1
 74
     1
176
     1
 91
        4
176
     1
 64
     7
176
     1
 65
   257
176
     1
 75
     1
176
     1
175
     1
176
     1
 42
1.0
176
     1
 92
        8
176
     1
 66
     7
176
     1
 43
1.0
176
     1
 76
     1
176
     1
 77
     6
176
     1
 78
     2
176
     1
 67
     7
176
     1
 79
     5
176
     1
170
     0
176
     1
171
     0
176
     1
290
     0
176
     1
 93
        1
176
     1
 44
50.0
176
     1
173
     0
176
     1
  0
VISUALSTYLE
  5
2DE3
102
{ACAD_REACTORS
330
2DD3
102
}
330
2DD3
100
AcDbVisualStyle
  2
ColorChange
 70
    16
177
     2
291
     1
 71
     2
176
     1
 72
     2
176
     1
 73
     3
176
     1
 90
        0
176
     1
 40
0.6
176
     1
 41
30.0
176
     1
 63
     8
421
  8421504
176
     1
 74
     1
176
     1
 91
        4
176
     1
 64
     7
176
     1
 65
   257
176
     1
 75
     1
176
     1
175
     1
176
     1
 42
1.0
176
     1
 92
        8
176
     1
 66
     8
424
  8421504
176
     1
 43
1.0
176
     1
 76
     1
176
     1
 77
     6
176
     1
 78
     2
176
     1
 67
     7
176
     1
 79
     5
176
     1
170
     0
176
     1
171
     0
176
     1
290
     0
176
     1
 93
        1
176
     1
 44
0.0
176
     1
173
     0
176
     1
  0
VISUALSTYLE
  5
2DDC
102
{ACAD_REACTORS
330
2DD3
102
}
330
2DD3
100
AcDbVisualStyle
  2
Conceptual
 70
     9
177
     2
291
     0
 71
     3
176
     1
 72
     2
176
     1
 73
     0
176
     1
 90
        0
176
     1
 40
0.6
176
     1
 41
30.0
176
     1
 63
     7
421
 16777215
176
     1
 74
     2
176
     1
 91
        2
176
     1
 64
     7
176
     1
 65
   257
176
     1
 75
     1
176
     1
175
     1
176
     1
 42
179.0
176
     1
 92
        8
176
     1
 66
     7
176
     1
 43
1.0
176
     1
 76
     1
176
     1
 77
     6
176
     1
 78
     2
176
     1
 67
     7
176
     1
 79
     3
176
     1
170
     0
176
     1
171
     0
176
     1
290
     0
176
     1
 93
        1
176
     1
 44
0.0
176
     1
173
     0
176
     1
  0
VISUALSTYLE
  5
2DDE
102
{ACAD_REACTORS
330
2DD3
102
}
330
2DD3
100
AcDbVisualStyle
  2
Dim
 70
    11
177
     2
291
     1
 71
     2
176
     1
 72
     2
176
     1
 73
     0
176
     1
 90
        0
176
     1
 40
0.6
176
     1
 41
30.0
176
     1
 63
     7
421
 16777215
176
     1
 74
     1
176
     1
 91
        4
176
     1
 64
     7
176
     1
 65
   257
176
     1
 75
     1
176
     1
175
     1
176
     1
 42
1.0
176
     1
 92
        8
176
     1
 66
     7
176
     1
 43
1.0
176
     1
 76
     1
176
     1
 77
     6
176
     1
 78
     2
176
     1
 67
     7
176
     1
 79
     5
176
     1
170
     0
176
     1
171
     0
176
     1
290
     0
176
     1
 93
        1
176
     1
 44
-50.0
176
     1
173
     0
176
     1
  0
VISUALSTYLE
  5
2DEB
102
{ACAD_REACTORS
330
2DD3
102
}
330
2DD3
100
AcDbVisualStyle
  2
EdgeColorOff
 70
    22
177
     2
291
     1
 71
     2
176
     0
 72
     2
176
     0
 73
     0
176
     0
 90
        0
176
     0
 40
0.6
176
     0
 41
30.0
176
     0
 63
     7
421
 16777215
176
     0
 74
     1
176
     0
 91
        4
176
     0
 64
     7
176
     0
 65
   257
176
     0
 75
     1
176
     0
175
     1
176
     0
 42
1.0
176
     0
 92
        8
176
     2
 66
     7
176
     0
 43
1.0
176
     0
 76
     1
176
     0
 77
     6
176
     0
 78
     2
176
     0
 67
     7
176
     0
 79
     5
176
     0
170
     0
176
     0
171
     0
176
     0
290
     0
176
     0
 93
        1
176
     0
 44
0.0
176
     0
173
     0
176
     0
  0
VISUALSTYLE
  5
2DE2
102
{ACAD_REACTORS
330
2DD3
102
}
330
2DD3
100
AcDbVisualStyle
  2
Facepattern
 70
    15
177
     2
291
     1
 71
     2
176
     1
 72
     2
176
     1
 73
     0
176
     1
 90
        0
176
     1
 40
0.6
176
     1
 41
30.0
176
     1
 63
     7
421
 16777215
176
     1
 74
     1
176
     1
 91
        4
176
     1
 64
     7
176
     1
 65
   257
176
     1
 75
     1
176
     1
175
     1
176
     1
 42
1.0
176
     1
 92
        8
176
     1
 66
     7
176
     1
 43
1.0
176
     1
 76
     1
176
     1
 77
     6
176
     1
 78
     2
176
     1
 67
     7
176
     1
 79
     5
176
     1
170
     0
176
     1
171
     0
176
     1
290
     0
176
     1
 93
        1
176
     1
 44
0.0
176
     1
173
     0
176
     1
  0
VISUALSTYLE
  5
2DD4
102
{ACAD_REACTORS
330
2DD3
102
}
330
2DD3
100
AcDbVisualStyle
  2
Flat
 70
     0
177
     2
291
     1
 71
     2
176
     1
 72
     1
176
     1
 73
     1
176
     1
 90
        2
176
     1
 40
0.6
176
     1
 41
30.0
176
     1
 63
     7
421
 16777215
176
     1
 74
     0
176
     1
 91
        0
176
     1
 64
     7
176
     1
 65
   257
176
     1
 75
     1
176
     1
175
     1
176
     1
 42
1.0
176
     1
 92
        8
176
     1
 66
     7
176
     1
 43
1.0
176
     1
 76
     1
176
     1
 77
     6
176
     1
 78
     2
176
     1
 67
     7
176
     1
 79
     5
176
     1
170
     0
176
     1
171
     0
176
     1
290
     0
176
     1
 93
       13
176
     1
 44
0.0
176
     1
173
     0
176
     1
  0
VISUALSTYLE
  5
2DD5
102
{ACAD_REACTORS
330
2DD3
102
}
330
2DD3
100
AcDbVisualStyle
  2
FlatWithEdges
 70
     1
177
     2
291
     1
 71
     2
176
     1
 72
     1
176
     1
 73
     1
176
     1
 90
        2
176
     1
 40
0.6
176
     1
 41
30.0
176
     1
 63
     7
421
 16777215
176
     1
 74
     1
176
     1
 91
        0
176
     1
 64
     7
176
     1
 65
   257
176
     1
 75
     1
176
     1
175
     1
176
     1
 42
1.0
176
     1
 92
        0
176
     1
 66
   257
176
     1
 43
1.0
176
     1
 76
     1
176
     1
 77
     6
176
     1
 78
     2
176
     1
 67
     7
176
     1
 79
     5
176
     1
170
     0
176
     1
171
     0
176
     1
290
     0
176
     1
 93
       13
176
     1
 44
0.0
176
     1
173
     0
176
     1
  0
VISUALSTYLE
  5
2DD6
102
{ACAD_REACTORS
330
2DD3
102
}
330
2DD3
100
AcDbVisualStyle
  2
Gouraud
 70
     2
177
     2
291
     1
 71
     2
176
     1
 72
     2
176
     1
 73
     1
176
     1
 90
        2
176
     1
 40
0.6
176
     1
 41
30.0
176
     1
 63
     7
421
 16777215
176
     1
 74
     0
176
     1
 91
        0
176
     1
 64
     7
176
     1
 65
   257
176
     1
 75
     1
176
     1
175
     1
176
     1
 42
1.0
176
     1
 92
        0
176
     1
 66
     7
176
     1
 43
1.0
176
     1
 76
     1
176
     1
 77
     6
176
     1
 78
     2
176
     1
 67
     7
176
     1
 79
     5
176
     1
170
     0
176
     1
171
     0
176
     1
290
     0
176
     1
 93
       13
176
     1
 44
0.0
176
     1
173
     0
176
     1
  0
VISUALSTYLE
  5
2DD7
102
{ACAD_REACTORS
330
2DD3
102
}
330
2DD3
100
AcDbVisualStyle
  2
GouraudWithEdges
 70
     3
177
     2
291
     1
 71
     2
176
     1
 72
     2
176
     1
 73
     1
176
     1
 90
        2
176
     1
 40
0.6
176
     1
 41
30.0
176
     1
 63
     7
421
 16777215
176
     1
 74
     1
176
     1
 91
        0
176
     1
 64
     7
176
     1
 65
   257
176
     1
 75
     1
176
     1
175
     1
176
     1
 42
1.0
176
     1
 92
        0
176
     1
 66
   257
176
     1
 43
1.0
176
     1
 76
     1
176
     1
 77
     6
176
     1
 78
     2
176
     1
 67
     7
176
     1
 79
     5
176
     1
170
     0
176
     1
171
     0
176
     1
290
     0
176
     1
 93
       13
176
     1
 44
0.0
176
     1
173
     0
176
     1
  0
VISUALSTYLE
  5
2DDB
102
{ACAD_REACTORS
330
2DD3
102
}
330
2DD3
100
AcDbVisualStyle
  2
Hidden
 70
     6
177
     2
291
     0
 71
     1
176
     1
 72
     2
176
     1
 73
     2
176
     1
 90
        0
176
     1
 40
0.6
176
     1
 41
30.0
176
     1
 63
     7
421
 16777215
176
     1
 74
     2
176
     1
 91
        2
176
     1
 64
     7
176
     1
 65
   257
176
     1
 75
     2
176
     1
175
     1
176
     1
 42
40.0
176
     1
 92
        0
176
     1
 66
   257
176
     1
 43
1.0
176
     1
 76
     1
176
     1
 77
     6
176
     1
 78
     2
176
     1
 67
     7
176
     1
 79
     3
176
     1
170
     0
176
     1
171
     0
176
     1
290
     0
176
     1
 93
        1
176
     1
 44
0.0
176
     1
173
     0
176
     1
  0
VISUALSTYLE
  5
2DE9
102
{ACAD_REACTORS
330
2DD3
102
}
330
2DD3
100
AcDbVisualStyle
  2
JitterOff
 70
    20
177
     2
291
     1
 71
     2
176
     0
 72
     2
176
     0
 73
     0
176
     0
 90
        0
176
     0
 40
0.6
176
     0
 41
30.0
176
     0
 63
     7
421
 16777215
176
     0
 74
     1
176
     0
 91
        4
176
     0
 64
     7
176
     0
 65
   257
176
     0
 75
     1
176
     0
175
     1
176
     0
 42
1.0
176
     0
 92
       10
176
     2
 66
     7
176
     0
 43
1.0
176
     0
 76
     1
176
     0
 77
     6
176
     0
 78
     2
176
     0
 67
     7
176
     0
 79
     5
176
     0
170
     0
176
     0
171
     0
176
     0
290
     0
176
     0
 93
        1
176
     0
 44
0.0
176
     0
173
     0
176
     0
  0
VISUALSTYLE
  5
2DE1
102
{ACAD_REACTORS
330
2DD3
102
}
330
2DD3
100
AcDbVisualStyle
  2
Linepattern
 70
    14
177
     2
291
     1
 71
     2
176
     1
 72
     2
176
     1
 73
     0
176
     1
 90
        0
176
     1
 40
0.6
176
     1
 41
30.0
176
     1
 63
     7
421
 16777215
176
     1
 74
     1
176
     1
 91
        4
176
     1
 64
     7
176
     1
 65
   257
176
     1
 75
     7
176
     1
175
     7
176
     1
 42
1.0
176
     1
 92
        8
176
     1
 66
     7
176
     1
 43
1.0
176
     1
 76
     1
176
     1
 77
     6
176
     1
 78
     2
176
     1
 67
     7
176
     1
 79
     5
176
     1
170
     0
176
     1
171
     0
176
     1
290
     0
176
     1
 93
        1
176
     1
 44
0.0
176
     1
173
     0
176
     1
  0
VISUALSTYLE
  5
2DEA
102
{ACAD_REACTORS
330
2DD3
102
}
330
2DD3
100
AcDbVisualStyle
  2
OverhangOff
 70
    21
177
     2
291
     1
 71
     2
176
     0
 72
     2
176
     0
 73
     0
176
     0
 90
        0
176
     0
 40
0.6
176
     0
 41
30.0
176
     0
 63
     7
421
 16777215
176
     0
 74
     1
176
     0
 91
        4
176
     0
 64
     7
176
     0
 65
   257
176
     0
 75
     1
176
     0
175
     1
176
     0
 42
1.0
176
     0
 92
        9
176
     2
 66
     7
176
     0
 43
1.0
176
     0
 76
     1
176
     0
 77
     6
176
     0
 78
     2
176
     0
 67
     7
176
     0
 79
     5
176
     0
170
     0
176
     0
171
     0
176
     0
290
     0
176
     0
 93
        1
176
     0
 44
0.0
176
     0
173
     0
176
     0
  0
VISUALSTYLE
  5
2DDD
102
{ACAD_REACTORS
330
2DD3
102
}
330
2DD3
100
AcDbVisualStyle
  2
Realistic
 70
     8
177
     2
291
     0
 71
     2
176
     1
 72
     3
176
     1
 73
     0
176
     1
 90
        2
176
     1
 40
0.6
176
     1
 41
30.0
176
     1
 63
     7
421
 16777215
176
     1
 74
     0
176
     1
 91
        0
176
     1
 64
     7
176
     1
 65
   257
176
     1
 75
     1
176
     1
175
     1
176
     1
 42
1.0
176
     1
 92
        8
176
     1
 66
   257
176
     1
 43
1.0
176
     1
 76
     1
176
     1
 77
     6
176
     1
 78
     2
176
     1
 67
     7
176
     1
 79
     3
176
     1
170
     0
176
     1
171
     0
176
     1
290
     0
176
     1
 93
       13
176
     1
 44
0.0
176
     1
173
     0
176
     1
  0
VISUALSTYLE
  5
2DE8
102
{ACAD_REACTORS
330
2DD3
102
}
330
2DD3
100
AcDbVisualStyle
  2
Shaded
 70
    27
177
     2
291
     0
 71
     2
176
     1
 72
     2
176
     1
 73
     1
176
     1
 90
        2
176
     1
 40
0.6
176
     1
 41
30.0
176
     1
 63
     7
421
 16777215
176
     1
 74
     0
176
     1
 91
        4
176
     1
 64
     7
176
     1
 65
   257
176
     1
 75
     1
176
     1
175
     1
176
     1
 42
1.0
176
     1
 92
        8
176
     1
 66
   257
176
     1
 43
1.0
176
     1
 76
     1
176
     1
 77
     6
176
     1
 78
     2
176
     1
 67
     8
425
  7895160
176
     1
 79
     3
176
     1
170
     0
176
     1
171
     0
176
     1
290
     0
176
     1
 93
        5
176
     1
 44
0.0
176
     1
173
     0
176
     1
  0
VISUALSTYLE
  5
2DE7
102
{ACAD_REACTORS
330
2DD3
102
}
330
2DD3
100
AcDbVisualStyle
  2
Shaded with edges
 70
    26
177
     2
291
     0
 71
     2
176
     1
 72
     2
176
     1
 73
     1
176
     1
 90
        2
176
     1
 40
0.6
176
     1
 41
30.0
176
     1
 63
     7
421
 16777215
176
     1
 74
     1
176
     1
 91
       10
176
     1
 64
     7
176
     1
 65
   257
176
     1
 75
     2
176
     1
175
     1
176
     1
 42
1.0
176
     1
 92
        8
176
     1
 66
   257
176
     1
 43
1.0
176
     1
 76
     1
176
     1
 77
     6
176
     1
 78
     2
176
     1
 67
     7
176
     1
 79
     3
176
     1
170
     0
176
     1
171
     0
176
     1
290
     0
176
     1
 93
        5
176
     1
 44
0.0
176
     1
173
     0
176
     1
  0
VISUALSTYLE
  5
2DE4
102
{ACAD_REACTORS
330
2DD3
102
}
330
2DD3
100
AcDbVisualStyle
  2
Shades of Gray
 70
    23
177
     2
291
     0
 71
     2
176
     1
 72
     2
176
     1
 73
     3
176
     1
 90
        0
176
     1
 40
0.6
176
     1
 41
30.0
176
     1
 63
     7
421
 16777215
176
     1
 74
     2
176
     1
 91
        2
176
     1
 64
     7
176
     1
 65
     7
176
     1
 75
     1
176
     1
175
     1
176
     1
 42
40.0
176
     1
 92
        8
176
     1
 66
     7
176
     1
 43
1.0
176
     1
 76
     1
176
     1
 77
     6
176
     1
 78
     2
176
     1
 67
     7
176
     1
 79
     3
176
     1
170
     0
176
     1
171
     0
176
     1
290
     0
176
     1
 93
        1
176
     1
 44
0.0
176
     1
173
     0
176
     1
  0
VISUALSTYLE
  5
2DE5
102
{ACAD_REACTORS
330
2DD3
102
}
330
2DD3
100
AcDbVisualStyle
  2
Sketchy
 70
    24
177
     2
291
     0
 71
     1
176
     1
 72
     2
176
     1
 73
     2
176
     1
 90
        0
176
     1
 40
0.6
176
     1
 41
30.0
176
     1
 63
     7
421
 16777215
176
     1
 74
     2
176
     1
 91
        2
176
     1
 64
     7
176
     1
 65
     7
176
     1
 75
     1
176
     1
175
     1
176
     1
 42
40.0
176
     1
 92
       11
176
     1
 66
     7
176
     1
 43
1.0
176
     1
 76
     1
176
     1
 77
     6
176
     1
 78
     2
176
     1
 67
     7
176
     1
 79
     6
176
     1
170
     0
176
     1
171
     0
176
     1
290
     0
176
     1
 93
        1
176
     1
 44
0.0
176
     1
173
     0
176
     1
  0
VISUALSTYLE
  5
2DE0
102
{ACAD_REACTORS
330
2DD3
102
}
330
2DD3
100
AcDbVisualStyle
  2
Thicken
 70
    13
177
     2
291
     1
 71
     2
176
     1
 72
     2
176
     1
 73
     0
176
     1
 90
        0
176
     1
 40
0.6
176
     1
 41
30.0
176
     1
 63
     7
421
 16777215
176
     1
 74
     1
176
     1
 91
        4
176
     1
 64
     7
176
     1
 65
   257
176
     1
 75
     1
176
     1
175
     1
176
     1
 42
1.0
176
     1
 92
       12
176
     1
 66
     7
176
     1
 43
1.0
176
     1
 76
     1
176
     1
 77
     6
176
     1
 78
     2
176
     1
 67
     7
176
     1
 79
     5
176
     1
170
     0
176
     1
171
     0
176
     1
290
     0
176
     1
 93
        1
176
     1
 44
0.0
176
     1
173
     0
176
     1
  0
VISUALSTYLE
  5
2DDA
102
{ACAD_REACTORS
330
2DD3
102
}
330
2DD3
100
AcDbVisualStyle
  2
Wireframe
 70
     5
177
     2
291
     0
 71
     0
176
     1
 72
     2
176
     1
 73
     0
176
     1
 90
        0
176
     1
 40
0.6
176
     1
 41
30.0
176
     1
 63
     7
421
 16777215
176
     1
 74
     1
176
     1
 91
        4
176
     1
 64
     7
176
     1
 65
   257
176
     1
 75
     1
176
     1
175
     1
176
     1
 42
1.0
176
     1
 92
        0
176
     1
 66
   257
176
     1
 43
1.0
176
     1
 76
     1
176
     1
 77
     6
176
     1
 78
     2
176
     1
 67
     7
176
     1
 79
     3
176
     1
170
     0
176
     1
171
     0
176
     1
290
     0
176
     1
 93
        1
176
     1
 44
0.0
176
     1
173
     0
176
     1
  0
VISUALSTYLE
  5
2DE6
102
{ACAD_REACTORS
330
2DD3
102
}
330
2DD3
100
AcDbVisualStyle
  2
X-Ray
 70
    25
177
     2
291
     0
 71
     2
176
     1
 72
     2
176
     1
 73
     1
176
     1
 90
        1
176
     1
 40
0.5
176
     1
 41
30.0
176
     1
 63
     7
421
 16777215
176
     1
 74
     1
176
     1
 91
        0
176
     1
 64
     7
176
     1
 65
   257
176
     1
 75
     1
176
     1
175
     1
176
     1
 42
1.0
176
     1
 92
        8
176
     1
 66
     7
176
     1
 43
1.0
176
     1
 76
     1
176
     1
 77
     6
176
     1
 78
     2
176
     1
 67
     7
176
     1
 79
     3
176
     1
170
     0
176
     1
171
     0
176
     1
290
     0
176
     1
 93
       13
176
     1
 44
0.0
176
     1
173
     0
176
     1
  0
DICTIONARYVAR
  5
2E24
102
{ACAD_REACTORS
330
2E20
102
}
330
2E20
100
DictionaryVariables
280
     0
  1
1:1
  0
DICTIONARYVAR
  5
2E22
102
{ACAD_REACTORS
330
2E20
102
}
330
2E20
100
DictionaryVariables
280
     0
  1
STANDARD
  0
DICTIONARYVAR
  5
2E21
102
{ACAD_REACTORS
330
2E20
102
}
330
2E20
100
DictionaryVariables
280
     0
  1
STANDARD
  0
DICTIONARYVAR
  5
2E26
102
{ACAD_REACTORS
330
2E20
102
}
330
2E20
100
DictionaryVariables
280
     0
  1
1
  0
DICTIONARYVAR
  5
2E27
102
{ACAD_REACTORS
330
2E20
102
}
330
2E20
100
DictionaryVariables
280
     0
  1
15
  0
DICTIONARYVAR
  5
2E25
102
{ACAD_REACTORS
330
2E20
102
}
330
2E20
100
DictionaryVariables
280
     0
  1
0
  0
DICTIONARYVAR
  5
2E23
102
{ACAD_REACTORS
330
2E20
102
}
330
2E20
100
DictionaryVariables
280
     0
  1
0
  0
XRECORD
  5
2E0E
102
{ACAD_REACTORS
330
2E0C
102
}
330
2E0C
100
AcDbXrecord
280
     1
  0
DICTIONARY
  5
2DC4
330
2DC3
100
AcDbDictionary
280
     1
281
     1
  3
BUMPTILE
360
2DC6
  3
DIFFUSETILE
360
2DC5
  3
OPACITYTILE
360
2DC9
  3
REFLECTIONTILE
360
2DC8
  3
REFRACTIONTILE
360
2DCA
  3
SPECULARTILE
360
2DC7
  0
DICTIONARY
  5
2DBC
330
2DBB
100
AcDbDictionary
280
     1
281
     1
  3
BUMPTILE
360
2DBE
  3
DIFFUSETILE
360
2DBD
  3
OPACITYTILE
360
2DC1
  3
REFLECTIONTILE
360
2DC0
  3
REFRACTIONTILE
360
2DC2
  3
SPECULARTILE
360
2DBF
  0
DICTIONARY
  5
2DCC
330
2DCB
100
AcDbDictionary
280
     1
281
     1
  3
BUMPTILE
360
2DCE
  3
DIFFUSETILE
360
2DCD
  3
OPACITYTILE
360
2DD1
  3
REFLECTIONTILE
360
2DD0
  3
REFRACTIONTILE
360
2DD2
  3
SPECULARTILE
360
2DCF
  0
DICTIONARY
  5
2E28
330
2DEE
100
AcDbDictionary
280
     1
281
     1
  3
ACAD_ROUNDTRIP_2008_TABLESTYLE_CELLSTYLEMAP
360
2E29
  0
XRECORD
  5
2DC6
102
{ACAD_REACTORS
330
2DC4
102
}
330
2DC4
100
AcDbXrecord
280
     1
270
     1
271
     1
  0
XRECORD
  5
2DC5
102
{ACAD_REACTORS
330
2DC4
102
}
330
2DC4
100
AcDbXrecord
280
     1
270
     1
271
     1
  0
XRECORD
  5
2DC9
102
{ACAD_REACTORS
330
2DC4
102
}
330
2DC4
100
AcDbXrecord
280
     1
270
     1
271
     1
  0
XRECORD
  5
2DC8
102
{ACAD_REACTORS
330
2DC4
102
}
330
2DC4
100
AcDbXrecord
280
     1
270
     1
271
     1
  0
XRECORD
  5
2DCA
102
{ACAD_REACTORS
330
2DC4
102
}
330
2DC4
100
AcDbXrecord
280
     1
270
     1
271
     1
  0
XRECORD
  5
2DC7
102
{ACAD_REACTORS
330
2DC4
102
}
330
2DC4
100
AcDbXrecord
280
     1
270
     1
271
     1
  0
XRECORD
  5
2DBE
102
{ACAD_REACTORS
330
2DBC
102
}
330
2DBC
100
AcDbXrecord
280
     1
270
     1
271
     1
  0
XRECORD
  5
2DBD
102
{ACAD_REACTORS
330
2DBC
102
}
330
2DBC
100
AcDbXrecord
280
     1
270
     1
271
     1
  0
XRECORD
  5
2DC1
102
{ACAD_REACTORS
330
2DBC
102
}
330
2DBC
100
AcDbXrecord
280
     1
270
     1
271
     1
  0
XRECORD
  5
2DC0
102
{ACAD_REACTORS
330
2DBC
102
}
330
2DBC
100
AcDbXrecord
280
     1
270
     1
271
     1
  0
XRECORD
  5
2DC2
102
{ACAD_REACTORS
330
2DBC
102
}
330
2DBC
100
AcDbXrecord
280
     1
270
     1
271
     1
  0
XRECORD
  5
2DBF
102
{ACAD_REACTORS
330
2DBC
102
}
330
2DBC
100
AcDbXrecord
280
     1
270
     1
271
     1
  0
XRECORD
  5
2DCE
102
{ACAD_REACTORS
330
2DCC
102
}
330
2DCC
100
AcDbXrecord
280
     1
270
     1
271
     1
  0
XRECORD
  5
2DCD
102
{ACAD_REACTORS
330
2DCC
102
}
330
2DCC
100
AcDbXrecord
280
     1
270
     1
271
     1
  0
XRECORD
  5
2DD1
102
{ACAD_REACTORS
330
2DCC
102
}
330
2DCC
100
AcDbXrecord
280
     1
270
     1
271
     1
  0
XRECORD
  5
2DD0
102
{ACAD_REACTORS
330
2DCC
102
}
330
2DCC
100
AcDbXrecord
280
     1
270
     1
271
     1
  0
XRECORD
  5
2DD2
102
{ACAD_REACTORS
330
2DCC
102
}
330
2DCC
100
AcDbXrecord
280
     1
270
     1
271
     1
  0
XRECORD
  5
2DCF
102
{ACAD_REACTORS
330
2DCC
102
}
330
2DCC
100
AcDbXrecord
280
     1
270
     1
271
     1
  0
CELLSTYLEMAP
  5
2E29
102
{ACAD_REACTORS
330
2E28
102
}
330
2E28
100
AcDbCellStyleMap
 90
        3
300
CELLSTYLE
  1
TABLEFORMAT_BEGIN
 90
        5
170
     1
 91
        0
 92
    32768
 62
   257
 93
        1
300
CONTENTFORMAT
  1
CONTENTFORMAT_BEGIN
 90
        0
 91
        0
 92
      512
 93
        0
300

 40
0.0
140
1.0
 94
        5
 62
     0
340
17
144
0.25
309
CONTENTFORMAT_END
171
     0
 94
        0
309
TABLEFORMAT_END
  1
CELLSTYLE_BEGIN
 90
        1
 91
        1
300
_TITLE
309
CELLSTYLE_END
300
CELLSTYLE
  1
TABLEFORMAT_BEGIN
 90
        5
170
     1
 91
        0
 92
        0
 62
   257
 93
        1
300
CONTENTFORMAT
  1
CONTENTFORMAT_BEGIN
 90
        0
 91
        0
 92
      512
 93
        0
300

 40
0.0
140
1.0
 94
        5
 62
     0
340
17
144
0.18
309
CONTENTFORMAT_END
171
     0
 94
        0
309
TABLEFORMAT_END
  1
CELLSTYLE_BEGIN
 90
        2
 91
        1
300
_HEADER
309
CELLSTYLE_END
300
CELLSTYLE
  1
TABLEFORMAT_BEGIN
 90
        5
170
     1
 91
        0
 92
        0
 62
   257
 93
        1
300
CONTENTFORMAT
  1
CONTENTFORMAT_BEGIN
 90
        0
 91
        0
 92
      512
 93
        0
300

 40
0.0
140
1.0
 94
        2
 62
     0
340
17
144
0.18
309
CONTENTFORMAT_END
171
     0
 94
        0
309
TABLEFORMAT_END
  1
CELLSTYLE_BEGIN
 90
        3
 91
        2
300
_DATA
309
CELLSTYLE_END
  0
ENDSEC
  0
EOF
